<?xml version="1.0" standalone="no"?>
<!DOCTYPE svg PUBLIC "-//W3C//DTD SVG 20010904//EN"
 "http://www.w3.org/TR/2001/REC-SVG-20010904/DTD/svg10.dtd">
<svg version="1.0" xmlns="http://www.w3.org/2000/svg"
 width="640.000000pt" height="427.000000pt" viewBox="0 0 640.000000 427.000000"
 preserveAspectRatio="xMidYMid meet">
<metadata>
Created by potrace 1.16, written by Peter Selinger 2001-2019
</metadata>
<g transform="translate(0.000000,427.000000) scale(0.100000,-0.100000)"
fill="#000000" stroke="none">
<path d="M4484 2915 c-4 -9 -12 -14 -19 -11 -18 6 -54 -23 -37 -30 22 -10 1
-24 -26 -18 -21 4 -24 3 -12 -5 12 -9 6 -10 -24 -7 -21 3 -41 7 -44 10 -3 4
-13 -1 -23 -10 -12 -11 -19 -12 -24 -4 -5 8 -11 8 -21 -1 -11 -9 -14 -9 -14 0
0 7 -5 9 -10 6 -21 -13 -80 -15 -80 -3 0 6 -3 9 -6 6 -3 -3 0 -15 7 -27 7 -11
10 -23 7 -26 -4 -4 -37 -8 -75 -10 -37 -2 -75 -4 -82 -4 -12 -1 -12 -4 -3 -13
18 -18 15 -26 -17 -33 -22 -5 -28 -11 -24 -25 5 -17 2 -18 -30 -8 -29 9 -38 8
-52 -6 -9 -9 -13 -16 -9 -16 4 0 1 -6 -8 -12 -9 -7 -18 -24 -20 -37 -2 -20
-14 -29 -53 -42 -27 -10 -70 -18 -95 -19 -25 0 -53 -7 -64 -15 -17 -13 -16
-14 15 -19 101 -14 133 -22 137 -33 2 -8 -6 -13 -24 -13 -41 0 -188 -31 -199
-42 -11 -11 49 -5 146 13 30 6 66 9 80 6 l24 -4 -22 -8 c-13 -4 -23 -13 -23
-20 0 -15 -22 -25 -58 -25 l-27 0 25 -20 c23 -18 24 -20 8 -36 -10 -10 -48
-22 -90 -29 -50 -9 -62 -13 -38 -14 19 -1 42 -6 50 -11 13 -9 13 -11 0 -20 -8
-5 -21 -10 -27 -10 -7 0 -13 -5 -13 -11 0 -5 5 -7 10 -4 13 8 123 -5 115 -14
-3 -3 -30 -13 -58 -23 l-52 -16 49 -1 c43 -1 47 -3 35 -17 -12 -15 -9 -16 34
-13 49 4 63 -5 25 -16 -76 -22 -139 -68 -70 -50 81 21 85 13 12 -25 -41 -21
-69 -39 -62 -40 20 0 14 -19 -14 -45 -32 -30 -25 -31 38 -8 47 17 79 11 45 -8
-9 -6 -17 -17 -17 -26 0 -13 8 -14 40 -9 l39 6 -24 -26 c-27 -30 -25 -44 8
-45 12 0 16 -3 10 -6 -7 -2 -13 -9 -13 -14 0 -6 5 -7 10 -4 6 4 24 11 41 15
23 7 30 6 26 -3 -21 -51 -21 -50 3 -42 20 6 22 4 17 -14 -6 -24 3 -27 22 -8
10 10 16 7 32 -12 17 -21 22 -23 30 -10 8 10 9 6 6 -16 -2 -16 -8 -38 -12 -48
-7 -16 -4 -17 21 -11 16 4 26 3 22 -1 -4 -4 0 -14 8 -23 12 -12 20 -12 40 -3
36 16 44 7 42 -50 -1 -73 9 -76 48 -13 15 25 34 9 34 -28 0 -23 4 -29 15 -24
8 3 15 1 15 -5 0 -15 59 0 93 23 32 23 37 20 54 -25 6 -18 12 -24 12 -14 1 21
21 23 21 2 0 -8 5 -15 10 -15 6 0 10 17 10 38 1 36 1 37 14 13 8 -14 12 -32 9
-40 -2 -9 6 -3 20 12 l24 29 24 -24 c27 -27 41 -54 61 -113 l13 -40 2 40 c2
22 8 63 13 91 9 43 14 51 29 47 10 -2 25 -20 34 -39 27 -55 45 -39 38 34 -1
15 2 21 8 17 6 -3 11 -12 11 -18 0 -7 11 -25 24 -42 21 -27 25 -28 39 -13 15
14 15 21 3 60 -7 23 -16 50 -20 58 -3 8 -2 21 3 29 8 12 12 12 25 2 11 -9 16
-10 16 -2 0 19 16 12 30 -14 7 -13 17 -22 22 -19 4 3 12 -5 17 -18 11 -25 14
-18 12 27 -1 17 3 36 8 44 7 11 11 9 20 -8 7 -12 16 -19 21 -16 5 3 11 1 15
-5 3 -5 11 -10 16 -10 14 0 -2 53 -20 67 -9 6 -13 15 -9 19 5 4 16 0 26 -9 27
-24 38 -21 37 11 0 15 5 26 11 25 6 -1 11 11 11 27 0 16 -4 27 -9 24 -4 -3 -8
0 -8 7 0 7 10 9 25 7 25 -5 34 5 15 17 -7 5 -8 11 -1 19 6 7 6 17 1 26 -13 21
-12 70 1 70 6 0 1 12 -10 26 -33 41 -25 49 14 15 20 -17 37 -31 39 -31 8 0 2
37 -8 49 -8 11 -8 13 2 7 7 -4 12 -1 12 8 0 10 9 16 22 16 17 0 19 3 10 12
-20 20 -13 30 17 26 24 -4 30 0 34 18 2 13 -1 28 -7 35 -8 9 -7 10 4 5 8 -4 5
1 -7 10 -13 9 -23 25 -23 36 0 11 -9 31 -20 45 -14 18 -19 38 -18 69 1 24 6
44 11 44 5 0 -1 16 -12 36 -12 19 -18 40 -15 46 5 7 2 8 -5 3 -9 -5 -12 0 -9
16 2 17 -4 27 -24 37 -16 7 -28 17 -28 23 0 13 17 11 23 -3 3 -7 6 -1 6 15 1
18 -4 27 -15 27 -8 0 -13 4 -10 9 8 12 -13 27 -46 35 -25 6 -28 11 -28 46 0
23 -5 40 -11 40 -6 0 -9 7 -5 15 3 8 1 15 -5 15 -6 0 -7 5 -3 12 5 8 -1 9 -22
5 -33 -6 -60 5 -50 21 4 7 -8 14 -31 19 -61 12 -85 22 -78 33 2 4 -9 22 -25
40 -24 27 -33 31 -43 21 -9 -10 -8 -15 8 -27 19 -15 19 -15 1 -12 -23 4 -66
41 -66 57 0 6 -13 11 -30 11 -19 0 -30 5 -30 14 0 22 -19 30 -26 11z"/>
<path d="M0 1822 l0 -130 49 -12 c27 -6 69 -10 93 -8 25 3 83 -2 129 -9 46 -8
138 -16 205 -18 67 -2 140 -9 163 -15 23 -6 72 -11 109 -10 77 1 136 -7 172
-25 30 -15 124 -25 285 -29 66 -2 133 -7 149 -11 16 -4 65 -2 110 5 68 10 91
10 145 -3 52 -12 73 -13 110 -3 28 7 66 9 96 4 66 -9 233 -20 372 -23 70 -2
130 -9 161 -19 27 -9 69 -17 93 -18 44 -1 307 0 343 0 46 2 43 43 -5 68 -23
11 -49 13 -117 8 -65 -5 -103 -2 -148 10 -61 16 -64 15 -133 -8 -80 -27 -93
-26 -180 18 -31 16 -60 25 -70 21 -17 -8 -177 -19 -252 -18 -27 0 -66 9 -94
23 -40 19 -51 31 -71 76 -29 65 -60 79 -102 45 -63 -50 -74 -54 -171 -63 -91
-9 -102 -8 -140 11 -22 12 -47 32 -56 44 -8 13 -28 32 -43 44 -25 18 -37 20
-90 14 -43 -5 -68 -3 -84 6 -33 18 -99 16 -139 -4 -51 -27 -283 -20 -489 13
-25 4 -47 19 -77 52 -45 48 -44 48 -158 42 -45 -2 -79 8 -157 48 -5 2 -8 -55
-8 -126z"/>
<path d="M5735 1939 c-16 -4 -43 -11 -58 -14 -26 -5 -28 -9 -23 -33 10 -39 36
-72 89 -108 l47 -32 -51 -11 c-27 -6 -60 -11 -72 -11 -23 0 -179 34 -231 51
-16 5 -31 7 -34 5 -5 -6 74 -119 142 -203 53 -65 99 -133 93 -139 -5 -5 -91
22 -123 39 -16 8 -64 47 -107 87 -44 39 -81 69 -84 67 -2 -3 11 -29 30 -58 33
-53 127 -226 127 -236 0 -2 -4 -1 -10 2 -5 3 -36 13 -67 21 -32 8 -68 22 -80
30 -13 8 -23 13 -23 12 0 -2 7 -25 15 -52 15 -48 20 -126 9 -126 -3 0 -14 5
-25 10 -17 10 -18 7 -15 -32 2 -24 7 -54 11 -68 3 -14 2 -37 -4 -51 -5 -14 -6
-32 -1 -39 5 -8 4 -23 -2 -34 -9 -16 -7 -22 8 -31 10 -5 36 -27 56 -47 21 -21
40 -38 41 -38 2 0 13 8 24 18 20 17 20 20 6 52 -33 74 -38 265 -7 277 7 3 33
-11 57 -31 24 -20 46 -36 49 -36 3 0 3 30 1 68 -3 48 -1 72 9 86 13 17 18 17
70 4 61 -16 98 -8 79 16 -8 9 -7 21 2 40 11 25 15 26 65 20 33 -4 52 -3 52 4
0 17 -54 116 -67 125 -21 13 -15 31 23 61 20 16 43 45 51 65 8 20 21 43 29 52
15 17 44 103 44 132 0 22 -77 97 -99 96 -9 -1 -29 -5 -46 -10z"/>
<path d="M4800 1237 c0 -41 3 -76 6 -80 4 -3 19 0 35 8 38 20 42 19 62 -14 26
-44 21 -65 -23 -101 -22 -18 -40 -38 -40 -45 0 -21 60 -76 103 -96 53 -23 96
-24 113 -1 12 15 15 15 23 2 6 -8 13 -11 17 -7 4 4 -1 16 -12 28 -18 20 -18
21 5 38 14 11 21 23 17 30 -4 7 -3 18 4 26 7 9 8 15 0 20 -10 6 -16 -4 -22
-40 -2 -11 -10 -20 -18 -20 -19 0 -61 75 -56 98 3 13 -9 27 -42 48 -54 34
-104 88 -133 142 -10 20 -24 37 -29 37 -6 0 -10 -32 -10 -73z"/>
<path d="M3809 1109 c-31 -32 -62 -59 -68 -59 -6 0 -11 14 -11 31 0 28 -3 31
-22 25 -13 -3 -63 -15 -113 -27 -49 -11 -100 -27 -112 -35 -12 -7 -29 -14 -38
-14 -9 0 -18 -7 -21 -15 -4 -8 -29 -30 -56 -47 -55 -36 -128 -120 -128 -149 0
-10 -4 -21 -10 -24 -5 -3 -10 -16 -10 -28 0 -12 -7 -41 -15 -65 -11 -30 -12
-49 -6 -61 10 -18 31 -214 34 -316 2 -49 2 -50 -42 -71 l-44 -20 -56 22 c-100
39 -97 39 -141 -3 -52 -50 -62 -58 -80 -58 -21 0 -24 -29 -5 -48 8 -9 15 -23
15 -31 0 -11 9 -16 28 -16 20 0 39 13 69 44 38 40 46 44 76 39 23 -3 43 0 60
11 l25 17 -4 -77 c-2 -43 -6 -79 -8 -81 -2 -3 -39 -7 -83 -10 -43 -3 -86 -10
-95 -15 -45 -23 -9 -28 182 -28 194 0 202 1 250 25 63 32 80 32 49 -1 l-24
-25 40 3 c37 3 40 6 43 34 3 26 11 36 47 54 24 12 57 23 73 24 16 1 35 6 43
12 21 16 75 16 88 0 10 -11 17 -11 48 5 33 17 39 17 59 5 12 -8 31 -12 43 -9
15 4 30 -2 46 -17 21 -20 29 -22 49 -12 19 8 26 8 30 -1 3 -9 5 -9 5 1 1 6 6
12 11 12 6 0 32 16 58 36 l48 36 -7 56 c-4 31 -6 58 -4 60 2 2 24 0 49 -6 l46
-10 0 34 c0 19 -4 34 -9 34 -5 0 -11 9 -14 20 -4 17 -2 20 13 15 22 -7 38 31
21 48 -17 17 -13 27 9 27 16 0 49 38 38 43 -46 23 -62 34 -66 46 -3 9 2 11 18
6 25 -8 49 17 50 51 0 26 13 38 65 55 22 7 49 20 60 29 33 27 95 60 113 60 9
0 30 16 46 36 16 20 44 43 63 50 32 14 34 17 28 47 -4 18 -14 40 -22 49 -14
15 -16 15 -34 -3 -22 -22 -66 -25 -94 -5 -28 19 -73 28 -80 16 -9 -15 -45 -12
-45 4 0 8 5 16 12 18 16 6 -102 43 -124 39 -10 -1 -18 3 -18 8 0 6 9 11 20 11
12 0 20 7 20 16 0 13 7 15 38 9 43 -8 43 -8 -26 40 -51 35 -55 36 -67 18 -7
-10 -35 -46 -61 -79 -27 -34 -57 -76 -66 -93 -20 -36 -38 -41 -38 -10 0 11 -5
30 -12 42 -7 12 -15 42 -18 67 l-6 45 -21 -35 c-34 -56 -98 -110 -130 -110
-20 0 -24 54 -8 128 28 133 18 140 -66 51z"/>
<path d="M590 1092 l-35 -29 34 -21 c27 -16 51 -20 134 -20 100 -1 127 7 127
34 0 21 -40 38 -110 45 -36 4 -76 10 -90 14 -19 5 -33 -1 -60 -23z"/>
<path d="M0 994 c0 -117 13 -146 26 -59 8 53 24 70 61 60 21 -5 31 -1 44 17
l18 23 35 -19 c61 -33 89 1 41 49 -27 28 -51 31 -90 13 -22 -10 -28 -8 -46 10
-13 14 -32 22 -54 22 l-35 0 0 -116z"/>
<path d="M4766 940 c-9 -22 -16 -47 -16 -55 0 -8 -4 -15 -10 -15 -5 0 -10 6
-10 14 0 26 -18 26 -35 0 -16 -24 -16 -26 2 -40 10 -8 33 -22 51 -30 21 -9 30
-19 25 -27 -4 -7 -8 -40 -8 -74 -1 -62 11 -83 37 -66 7 3 8 1 4 -5 -4 -7 -2
-12 4 -12 6 0 8 -10 4 -25 -3 -14 -1 -32 6 -40 11 -13 8 -62 -5 -97 -4 -9 -22
-15 -50 -17 -45 -2 -51 2 -87 51 -18 24 -44 8 -30 -18 6 -11 7 -39 2 -69 -4
-27 -5 -55 -3 -62 3 -7 -2 -13 -11 -13 -9 0 -16 -7 -16 -17 0 -18 46 -83 60
-83 4 0 31 -16 60 -35 29 -19 63 -35 76 -35 23 0 44 25 44 53 0 18 -104 60
-130 52 -29 -9 -26 16 6 46 14 13 35 39 47 59 11 19 26 38 31 42 20 14 86 5
102 -14 10 -10 27 -18 40 -18 17 0 24 -7 29 -32 4 -18 13 -41 19 -50 9 -15 8
-21 -4 -28 -10 -7 -11 -10 -2 -10 14 0 50 19 70 38 12 11 17 10 27 -5 14 -20
46 -191 48 -260 2 -41 3 -43 35 -43 17 0 32 3 32 8 0 4 -9 39 -19 78 -10 40
-15 77 -12 83 7 10 4 49 -13 171 -8 58 -18 90 -28 90 -6 0 -7 11 -4 24 3 14 2
27 -2 30 -5 3 -7 25 -6 50 2 29 -2 49 -12 56 -19 16 -18 30 2 30 10 0 14 6 11
14 -15 39 -27 97 -22 106 3 5 -3 18 -15 30 -23 23 -26 34 -6 27 11 -4 16 5 21
35 8 46 -1 60 -33 52 -22 -6 -32 -44 -11 -44 6 0 7 -5 2 -12 -4 -7 -8 -22 -8
-33 0 -18 -5 -20 -45 -16 -48 3 -70 15 -70 37 0 16 16 27 43 28 39 2 27 22
-23 40 -27 10 -50 22 -50 27 0 5 -6 9 -12 9 -7 0 -33 14 -58 30 -25 16 -48 30
-51 30 -4 0 -14 -18 -23 -40z"/>
<path d="M5379 873 c-1 -5 0 -22 1 -39 1 -25 -6 -38 -37 -63 -20 -17 -43 -31
-50 -31 -18 0 -16 -18 2 -37 18 -17 44 -18 127 -4 61 10 115 1 111 -17 -3 -13
60 -27 81 -19 29 11 25 115 -7 158 -29 38 -103 50 -176 29 -40 -11 -49 -7 -31
15 10 12 10 15 -4 15 -9 0 -16 -3 -17 -7z"/>
<path d="M1840 791 l-61 -60 -22 26 c-12 14 -35 34 -50 45 -27 19 -29 19 -41
3 -12 -16 -16 -17 -62 -2 -93 29 -95 29 -108 -5 -11 -29 -13 -30 -63 -26 -63
5 -68 -7 -18 -39 42 -28 65 -29 65 -5 0 28 11 34 31 16 17 -15 64 -16 108 -3
7 2 15 -1 17 -6 3 -6 -16 -16 -41 -23 -25 -6 -45 -17 -45 -22 0 -16 38 -88 50
-95 5 -3 10 -17 10 -30 0 -38 29 -39 64 -1 29 32 34 34 83 30 28 -2 54 0 58 6
3 5 20 7 38 3 61 -11 88 -32 109 -84 11 -27 24 -49 28 -49 17 0 31 30 25 52
-6 23 -6 23 10 3 12 -14 15 -31 11 -57 -4 -25 -2 -38 5 -38 6 0 2 -14 -9 -32
-25 -40 -69 -54 -93 -32 -10 9 -23 13 -29 9 -6 -4 -20 5 -31 20 -17 21 -24 23
-36 14 -11 -10 -15 -8 -20 9 -6 25 -20 27 -45 8 -22 -16 -23 -30 -2 -62 9 -13
14 -27 10 -31 -8 -8 -44 25 -51 48 -5 14 -13 17 -33 13 -23 -5 -30 -1 -42 20
-7 14 -16 26 -19 26 -3 -1 -14 -17 -23 -37 l-17 -37 32 -45 c25 -35 43 -49 77
-59 50 -14 95 -9 120 13 9 8 38 21 63 29 42 12 47 12 47 -1 0 -11 6 -13 20 -9
11 3 28 9 39 12 15 5 18 2 14 -20 -3 -16 -13 -26 -26 -28 -27 -4 -39 -56 -21
-89 20 -36 18 -51 -7 -44 -15 5 -20 3 -17 -6 3 -8 15 -15 27 -15 27 -2 56 -29
66 -63 7 -22 5 -23 -25 -16 -25 5 -31 4 -28 -6 6 -19 49 -24 59 -7 7 10 12 11
29 0 11 -6 33 -12 49 -12 27 0 29 3 25 27 -3 16 -7 35 -10 45 -3 9 0 19 6 23
17 10 11 54 -8 64 -10 5 -36 7 -59 4 -24 -3 -49 0 -64 8 -23 13 -21 14 36 24
l60 11 -3 36 -3 36 41 -11 40 -11 -25 -14 c-15 -7 -24 -19 -22 -25 4 -12 104
-33 114 -24 2 3 -3 19 -12 37 -13 24 -14 35 -4 46 18 22 -6 68 -58 113 l-45
38 23 22 c30 28 35 27 48 -9 9 -27 15 -30 50 -30 43 0 71 8 71 20 0 5 -17 19
-37 31 -21 12 -50 33 -66 45 -15 13 -59 33 -97 45 -39 13 -70 29 -70 36 0 19
-32 32 -63 26 -15 -3 -27 -1 -27 5 0 6 -12 12 -27 14 -33 4 -38 31 -8 36 35 7
47 24 42 57 -6 39 -46 125 -58 125 -5 0 -36 -27 -69 -59z"/>
<path d="M379 815 c-15 -8 -30 -22 -33 -31 -6 -14 -19 -16 -96 -12 -76 5 -92
3 -105 -12 -27 -29 -18 -45 38 -64 68 -24 124 -60 132 -86 8 -24 50 -27 59 -4
11 28 6 64 -8 64 -13 0 -26 20 -26 41 0 5 18 9 39 9 31 0 44 6 60 26 47 60 7
105 -60 69z"/>
<path d="M2753 800 c-3 -11 -13 -20 -23 -20 -11 0 -20 -10 -24 -24 -3 -14 -14
-27 -24 -30 -30 -10 -106 -82 -98 -94 3 -6 29 -11 56 -10 48 0 50 1 81 49 17
27 41 56 52 64 24 17 77 20 77 5 0 -5 15 -12 34 -16 19 -3 42 -14 51 -24 14
-16 21 -17 43 -7 15 7 38 19 51 29 22 16 22 17 5 43 -13 20 -22 25 -38 20 -12
-4 -36 -9 -54 -12 -19 -3 -36 -11 -38 -18 -7 -17 -44 -7 -44 12 0 43 -97 73
-107 33z"/>
<path d="M5353 636 c-9 -19 -17 -22 -39 -18 -26 5 -27 4 -19 -29 5 -19 8 -54
7 -79 -3 -66 16 -135 44 -159 28 -24 30 -50 9 -92 -19 -37 -6 -70 25 -62 12 3
20 0 20 -6 0 -7 4 -10 9 -7 5 3 12 -1 15 -9 3 -9 17 -20 32 -25 25 -10 26 -14
21 -54 -5 -32 -2 -47 8 -56 8 -7 15 -19 15 -26 0 -11 36 -14 193 -14 180 0
195 1 212 20 10 11 18 36 19 57 1 33 -2 37 -29 44 -16 3 -38 10 -47 14 -13 5
-24 -4 -45 -39 -24 -39 -33 -46 -59 -46 -31 0 -60 22 -66 50 -2 10 5 15 21 15
13 0 30 9 37 21 12 18 12 23 -6 42 l-21 22 27 26 c23 24 25 30 14 53 -14 31
-14 36 3 36 18 0 28 18 14 27 -9 6 -9 8 0 8 7 0 24 12 38 26 14 14 29 23 33
19 4 -4 -3 -15 -16 -25 l-22 -19 22 -3 c22 -3 23 -7 11 -49 -5 -17 26 -33 85
-43 29 -5 34 -2 43 22 5 15 15 37 21 50 9 18 9 30 0 55 -16 42 4 59 62 51 50
-6 61 -16 47 -42 -16 -30 -13 -59 7 -67 16 -6 16 -7 -1 -17 -17 -9 -16 -12 15
-44 27 -28 41 -34 74 -34 26 0 59 -10 87 -25 32 -18 53 -24 71 -19 26 6 26 5
25 -49 -1 -30 2 -60 5 -66 18 -28 26 -5 26 70 l0 80 -46 20 c-25 11 -51 18
-58 16 -20 -8 -116 41 -116 59 0 8 9 34 20 57 25 52 16 64 -61 76 -30 5 -67
14 -82 20 -34 13 -58 15 -39 2 22 -14 -27 -21 -73 -11 -22 5 -41 9 -42 10 -2
0 -10 0 -18 0 -8 0 -15 5 -15 10 0 11 33 14 43 4 8 -8 67 -14 67 -7 0 2 -25
15 -55 29 -37 16 -65 22 -81 18 -20 -5 -23 -9 -12 -16 9 -7 2 -8 -21 -4 -18 3
-39 6 -45 6 -6 0 -4 5 4 10 11 8 8 9 -12 4 -22 -5 -28 -3 -28 10 0 9 -8 16
-21 16 -11 0 -17 -5 -14 -10 18 -29 -78 -16 -109 15 -12 12 -15 10 -20 -15 -4
-25 -10 -30 -34 -30 -15 0 -46 -9 -67 -20 l-40 -21 -3 28 c-2 15 -10 34 -19
40 -11 9 -17 29 -17 64 -1 57 -16 73 -33 35z m277 -181 c11 -3 20 -10 20 -14
0 -4 9 -18 20 -31 12 -13 18 -30 15 -38 -3 -7 -5 -18 -5 -22 0 -5 -12 -2 -27
6 -16 7 -38 14 -50 14 -28 0 -30 -21 -7 -89 8 -27 14 -71 12 -102 -3 -51 -4
-54 -32 -57 -45 -5 -70 5 -88 38 -15 27 -16 32 -3 36 18 7 20 35 3 52 -16 16
-45 15 -51 0 -7 -24 -37 12 -37 45 0 29 42 79 105 123 11 8 14 14 7 14 -19 0
-4 20 22 30 22 8 60 6 96 -5z"/>
<path d="M1448 645 c-4 -4 -29 -9 -57 -10 -69 -5 -74 -10 -67 -60 6 -35 4 -44
-11 -49 -10 -4 -19 -2 -21 3 -2 6 -11 11 -19 11 -10 0 -13 -6 -9 -16 3 -9 6
-23 6 -33 0 -9 9 -27 21 -39 11 -12 17 -27 14 -32 -8 -13 -52 -13 -60 0 -3 6
-18 10 -33 10 -23 0 -31 -9 -54 -54 l-26 -54 39 -6 c36 -6 38 -8 25 -22 -9 -9
-15 -32 -14 -59 0 -40 3 -45 24 -45 28 0 29 -5 10 -42 -8 -16 -10 -28 -5 -28
21 0 88 40 106 64 11 13 33 26 49 28 28 3 29 5 36 72 7 70 -8 126 -32 126 -20
0 -9 27 15 40 32 17 32 34 -1 72 -15 19 -22 34 -16 40 13 13 47 -9 63 -39 17
-32 44 -37 95 -18 44 17 44 17 44 65 0 37 -4 52 -17 58 -25 13 -97 24 -105 17z"/>
<path d="M0 301 l0 -301 65 0 c53 0 63 3 59 15 -4 8 -1 15 5 15 6 0 11 11 11
24 0 14 5 28 11 31 6 4 9 30 6 66 -5 58 -4 59 16 53 12 -4 32 -15 45 -24 18
-14 34 -17 80 -13 36 3 67 1 80 -6 53 -28 4 -120 -56 -106 -27 5 -31 3 -40
-24 l-11 -31 88 0 c67 0 92 4 101 15 8 10 31 15 70 15 l58 0 9 36 c10 45 27
45 31 0 3 -31 0 -36 -22 -42 -63 -15 -14 -24 137 -24 l164 0 -5 32 c-7 46 -28
74 -65 88 -84 31 -97 39 -97 64 0 21 6 25 32 28 21 2 34 9 36 20 5 24 -57 77
-89 78 -15 0 -40 7 -55 15 -28 15 -30 15 -64 -24 -23 -26 -46 -40 -67 -43 -39
-5 -40 -1 -16 82 15 57 15 61 -2 80 -17 19 -15 50 5 50 17 0 11 53 -9 80 -18
23 -21 23 -46 10 -22 -12 -26 -19 -22 -45 5 -32 -34 -114 -56 -117 -22 -2 -32
-5 -49 -12 -22 -10 -38 0 -38 24 0 30 -56 87 -113 115 -29 14 -63 34 -77 44
-14 11 -44 22 -67 26 l-43 7 0 -301z"/>
<path d="M4486 151 c-4 -6 1 -11 11 -11 10 0 25 -5 33 -10 13 -8 13 -11 -2
-26 -15 -15 -21 -16 -62 -2 -44 15 -46 14 -67 -8 -22 -24 -22 -24 -3 -59 l19
-35 153 0 c94 0 151 4 147 9 -3 6 -44 39 -90 75 -86 67 -127 86 -139 67z"/>
<path d="M1279 95 c-41 -30 -74 -59 -74 -66 0 -18 40 -20 357 -25 l287 -5 -21
61 c-16 49 -24 60 -37 55 -9 -4 -22 -9 -28 -12 -7 -3 -13 0 -13 7 0 8 -36 10
-127 9 -86 -2 -135 1 -150 9 -13 7 -33 10 -46 7 -12 -4 -34 -2 -49 4 -22 8
-34 3 -99 -44z"/>
</g>
</svg>
