<?xml version="1.0" encoding="UTF-8"?>
<svg version="1.1" xmlns="http://www.w3.org/2000/svg" width="2000" height="655">
<path d="M0 0 C7.32430926 7.6730859 7.06595621 17.87868853 6.8984375 27.85546875 C6.37905024 40.90443081 1.84743857 52.94570338 -3.50878906 64.71435547 C-4.35565627 66.70454114 -5.02803729 68.69271934 -5.6796875 70.75390625 C-8.92601886 79.54834629 -8.92601886 79.54834629 -13.57421875 81.82910156 C-20.60152449 84.30157245 -27.92623281 85.75 -35.375 85.75 C-34.01606834 81.36952623 -32.30851604 77.37725046 -30.2578125 73.27734375 C-29.64419487 72.03467125 -29.03092515 70.79182691 -28.41796875 69.54882812 C-27.46548693 67.62755986 -26.51021092 65.70784586 -25.54833984 63.79125977 C-20.28718978 53.28394479 -15.24601471 42.53139476 -14.5 30.625 C-14.42007813 29.57054687 -14.34015625 28.51609375 -14.2578125 27.4296875 C-14.15328046 24.52160956 -14.15328046 24.52160956 -16.375 21.75 C-25.29265698 20.54387085 -34.44124931 27.13211757 -41.38769531 32.26098633 C-47.87587507 37.24698153 -53.87951947 42.73334762 -59.83447266 48.33740234 C-61.57982041 49.93781155 -63.37177267 51.47644562 -65.16796875 53.01953125 C-69.79311394 57.04594151 -74.07764084 61.37930707 -78.375 65.75 C-82.64143422 70.08924027 -86.88375268 74.39017511 -91.50390625 78.35546875 C-95.38218877 81.69054218 -98.86138223 85.29228045 -102.3125 89.0625 C-103.21971802 90.04524902 -103.21971802 90.04524902 -104.14526367 91.04785156 C-105.89301451 92.94449092 -107.63460845 94.84660948 -109.375 96.75 C-110.22835937 97.67683594 -111.08171875 98.60367188 -111.9609375 99.55859375 C-117.32776423 105.44327218 -122.37136748 111.55576752 -127.375 117.75 C-128.40943444 119.01621503 -129.44463622 120.28180343 -130.48046875 121.546875 C-141.62304429 135.17034375 -152.22883652 149.14184023 -162.61669922 163.34765625 C-164.27258387 165.61007016 -165.93486548 167.86766039 -167.59765625 170.125 C-175.8276421 181.35164943 -183.55187298 192.88911285 -191.22314453 204.50244141 C-193.43874878 207.84620902 -195.66793388 211.1805087 -197.90234375 214.51171875 C-234.07598609 268.46521822 -267.485314 324.54658803 -296.375 382.75 C-285.62462733 376.24938402 -275.98477431 368.82388683 -266.375 360.75 C-265.22703737 359.79760441 -264.07862258 358.84575348 -262.9296875 357.89453125 C-256.24115388 352.32772668 -249.7985472 346.53066297 -243.4375 340.59375 C-240.72361803 338.06259824 -237.96316219 335.58840019 -235.1875 333.125 C-230.95672862 329.33993387 -226.95059485 325.37267013 -222.9921875 321.3046875 C-220.95028891 319.31155066 -218.892446 317.4529274 -216.73046875 315.59765625 C-211.51886008 311.07686034 -206.67844832 306.1992875 -201.8125 301.3125 C-200.90564453 300.40951172 -199.99878906 299.50652344 -199.06445312 298.57617188 C-194.54029013 294.04544737 -190.17312031 289.45598607 -186.00415039 284.59741211 C-183.27397461 281.50146724 -180.32309364 278.63646244 -177.375 275.75 C-173.18170634 271.59993617 -169.09258336 267.44200681 -165.27734375 262.9375 C-162.5524156 259.8041124 -159.70935294 256.78428491 -156.875 253.75 C-152.28336953 248.82382451 -147.76676276 243.85587053 -143.375 238.75 C-142.40154777 237.62976834 -141.42753227 236.51002604 -140.453125 235.390625 C-130.4571665 223.9005023 -120.55962457 212.38284853 -111.203125 200.36328125 C-108.24023636 196.56201564 -105.21309955 192.81388127 -102.1875 189.0625 C-97.89788786 183.74059879 -93.81611723 178.33033225 -89.8984375 172.7265625 C-88.08818067 170.3778703 -87.13653751 169.85500693 -84.22021484 169.45288086 C-83.35090332 169.37432861 -82.4815918 169.29577637 -81.5859375 169.21484375 C-80.64492187 169.12783203 -79.70390625 169.04082031 -78.734375 168.95117188 C-77.74953125 168.86416016 -76.7646875 168.77714844 -75.75 168.6875 C-74.26113281 168.55118164 -74.26113281 168.55118164 -72.7421875 168.41210938 C-70.28676132 168.18781564 -67.83105611 167.96726893 -65.375 167.75 C-69.35388973 185.06734191 -87.90684661 202.65127183 -98.99414062 216.06933594 C-100.85719545 218.3368871 -102.67937336 220.63581347 -104.5 222.9375 C-107.99320349 227.32055112 -111.60466924 231.59569867 -115.23876953 235.86181641 C-118.16876682 239.30595484 -121.03824093 242.790656 -123.875 246.3125 C-127.9995599 251.38319551 -132.37116599 256.18192479 -136.8125 260.97265625 C-139.479858 263.86364944 -142.07323603 266.80801642 -144.65234375 269.77734375 C-153.93126007 280.40286017 -163.41240194 290.93726415 -173.48046875 300.82299805 C-175.14743715 302.51853691 -176.67640306 304.24991078 -178.203125 306.0703125 C-183.45831224 312.11437017 -189.1841315 317.70800056 -194.85375977 323.35913086 C-196.80795624 325.3079687 -198.75675147 327.26209272 -200.70507812 329.21679688 C-212.02221032 340.53934768 -212.02221032 340.53934768 -217.79516602 345.38452148 C-219.57860737 346.92598146 -221.22470147 348.56751955 -222.875 350.25 C-226.53794754 353.96200487 -230.42226303 357.35126869 -234.375 360.75 C-235.50441915 361.73118075 -236.6332776 362.71300712 -237.76171875 363.6953125 C-249.77524359 374.14759795 -261.83612042 384.46554282 -274.41943359 394.22851562 C-276.54170494 395.87970102 -278.65591113 397.54088193 -280.76953125 399.203125 C-288.75010411 405.46628403 -296.79071435 411.60034426 -305.06640625 417.46875 C-305.58533447 417.84346436 -306.1042627 418.21817871 -306.63891602 418.60424805 C-308.375 419.75 -308.375 419.75 -310.51538086 420.81176758 C-318.86388229 425.31475884 -321.40484859 433.10418882 -324.8125 441.4375 C-325.45990477 442.96682516 -326.10893168 444.49546457 -326.75952148 446.0234375 C-332.42089167 459.42833841 -337.55911474 473.01975485 -342.375 486.75 C-342.93944918 488.31143484 -343.50449341 489.8726548 -344.0703125 491.43359375 C-350.29747915 508.97476859 -356.46925232 528.36594907 -356.6875 547.0625 C-356.73100586 548.28743164 -356.73100586 548.28743164 -356.77539062 549.53710938 C-356.83658381 555.44460534 -355.67995369 559.80979056 -352.375 564.75 C-349.47372211 567.48549058 -347.13066367 568.00667404 -343.25 567.9375 C-327.9945736 565.53805379 -315.66354143 547.43045443 -306.87011719 535.73681641 C-305.84767707 534.37812638 -304.81939386 533.02381901 -303.78613281 531.67333984 C-293.49021415 518.21201914 -284.38574957 504.0927153 -275.375 489.75 C-202.92381303 374.90549996 -202.92381303 374.90549996 -152.375 335.75 C-151.26136632 334.82777739 -150.15089249 333.90173079 -149.04296875 332.97265625 C-136.32643768 322.38989848 -122.25111519 311.92107752 -106.375 306.75 C-105.45203125 306.43546875 -104.5290625 306.1209375 -103.578125 305.796875 C-91.20069295 302.1170979 -77.09530412 301.93555896 -65.375 307.75 C-58.41242952 311.91375502 -54.02009634 319.29309824 -49.375 325.75 C-49.10888916 324.67806396 -48.84277832 323.60612793 -48.56860352 322.50170898 C-46.85616348 317.5693637 -44.82087766 313.67815147 -40.375 310.75 C-30.51448746 308.19607062 -19.7114861 309.27430538 -9.62548828 309.72003174 C-5.76521672 309.87435703 -1.90349185 309.94216446 1.95898438 310.01757812 C9.51833265 310.17777547 17.0704198 310.43321248 24.625 310.75 C23.97696103 314.25524939 23.20566437 316.873234 21.39453125 319.953125 C20.69577881 321.15642456 20.69577881 321.15642456 19.98291016 322.3840332 C19.4729248 323.24730225 18.96293945 324.11057129 18.4375 325 C17.33604784 326.89383864 16.23583847 328.7884005 15.13671875 330.68359375 C14.55970215 331.67601074 13.98268555 332.66842773 13.38818359 333.69091797 C10.4528955 338.78357371 7.60629379 343.92526651 4.75 349.0625 C0.11900331 357.37233182 -4.61210861 365.61416271 -9.4375 373.8125 C-14.69940809 382.76067518 -19.71591301 391.816752 -24.62353516 400.96337891 C-28.56435677 408.29539068 -32.63643113 415.540196 -36.79003906 422.75341797 C-40.66757175 429.49161243 -44.4664887 436.27113911 -48.25 443.0625 C-56.89799381 458.54968694 -65.81132118 473.87332287 -74.98388672 489.05566406 C-98.60086148 522.54620009 -98.60086148 522.54620009 -110.1875 560 C-109.60238328 563.06119584 -109.60238328 563.06119584 -106.375 564.75 C-91.02200072 563.90293797 -73.79198542 544.57673725 -63.44921875 533.73046875 C-61.71799776 531.76786739 -60.04684475 529.76340443 -58.375 527.75 C-57.57964844 526.8425 -56.78429688 525.935 -55.96484375 525 C-48.74852728 516.73423023 -42.31784474 507.99024059 -35.98925781 499.03320312 C-34.43485975 496.83466552 -32.87111528 494.64310184 -31.3046875 492.453125 C-25.4169388 484.19652219 -19.70454304 475.8371488 -14.11889648 467.37304688 C-13.40455444 466.29120117 -13.40455444 466.29120117 -12.67578125 465.1875 C-12.25466064 464.54683594 -11.83354004 463.90617187 -11.3996582 463.24609375 C-10.375 461.75 -10.375 461.75 -9.375 460.75 C-7.74027118 460.66299658 -6.10185945 460.64298937 -4.46484375 460.65234375 C-3.47548828 460.65556641 -2.48613281 460.65878906 -1.46679688 460.66210938 C0.09458008 460.67467773 0.09458008 460.67467773 1.6875 460.6875 C3.25467773 460.69426758 3.25467773 460.69426758 4.85351562 460.70117188 C7.4440666 460.71300087 10.03450559 460.72948311 12.625 460.75 C10.84750982 465.38221699 8.58616855 469.40718231 6 473.625 C5.28626221 474.78999023 5.28626221 474.78999023 4.55810547 475.97851562 C-1.99418903 486.52358218 -9.18519706 496.63413529 -16.375 506.75 C-16.9716748 507.59191895 -17.56834961 508.43383789 -18.18310547 509.30126953 C-25.30984389 519.33861569 -32.65124485 529.16429524 -40.375 538.75 C-41.49455078 540.14412109 -41.49455078 540.14412109 -42.63671875 541.56640625 C-53.05682222 554.41849078 -63.92974644 566.80198337 -75.375 578.75 C-75.90657715 579.30494141 -76.4381543 579.85988281 -76.98583984 580.43164062 C-92.13781538 596.14902384 -109.1628775 608.51762054 -128.375 618.75 C-129.46167969 619.34039063 -130.54835938 619.93078125 -131.66796875 620.5390625 C-143.23877371 626.61635463 -154.74043739 630.02749311 -167.6875 626.5 C-175.19588711 623.90231157 -179.21774091 620.49641409 -183.05078125 613.5546875 C-188.33252487 602.36798568 -187.69733602 590.8316316 -187.375 578.75 C-187.81666504 579.20737549 -188.25833008 579.66475098 -188.71337891 580.13598633 C-197.56990501 589.26391102 -206.41986573 597.99011847 -216.6953125 605.51025391 C-218.38159063 606.75486442 -220.03479189 608.03547673 -221.6875 609.32421875 C-228.13798904 614.25804981 -234.80620119 618.22233179 -242.125 621.75 C-242.89287842 622.12398926 -243.66075684 622.49797852 -244.4519043 622.88330078 C-256.91336516 628.63884555 -269.4133683 629.34705871 -282.375 624.75 C-292.73213222 619.52392411 -297.46900041 612.53269145 -301.39453125 601.8359375 C-303.01146446 596.74678518 -303.4962079 592.26419226 -303.47265625 586.91796875 C-303.46943359 585.62568359 -303.46621094 584.33339844 -303.46289062 583.00195312 C-303.45453665 581.64713474 -303.44607172 580.29231703 -303.4375 578.9375 C-303.43248 577.56315265 -303.42791797 576.18880355 -303.42382812 574.81445312 C-303.41205668 571.45959076 -303.39561283 568.10481779 -303.375 564.75 C-304.24620483 565.82689087 -304.24620483 565.82689087 -305.13500977 566.92553711 C-309.40390211 572.17729099 -313.68391347 577.37382177 -318.3125 582.3125 C-319.0703479 583.12509277 -319.0703479 583.12509277 -319.84350586 583.95410156 C-327.88197389 592.53149656 -336.07935489 600.52588088 -345.375 607.75 C-346.66857422 608.76900391 -346.66857422 608.76900391 -347.98828125 609.80859375 C-362.14592678 620.56840435 -378.17254243 629.07292424 -396.375 627.75 C-407.79796863 625.7411918 -416.73219253 619.11985474 -423.375 609.75 C-438.09721522 583.7004928 -431.21601171 551.64555031 -423.79785156 524.25878906 C-419.61615053 509.55622049 -414.69874351 495.06188177 -409.88574219 480.55688477 C-409.53915054 479.51030197 -409.1925589 478.46371918 -408.83546448 477.38542175 C-408.18051507 475.41037468 -407.52291813 473.43620279 -406.86216736 471.46308899 C-405.1363508 466.26252842 -403.62851974 461.08477403 -402.375 455.75 C-403.58414062 455.9665625 -404.79328125 456.183125 -406.0390625 456.40625 C-415.94696663 458.11422938 -425.29541241 459.19396226 -435.375 458.75 C-435.64344727 459.63107422 -435.91189453 460.51214844 -436.18847656 461.41992188 C-437.31627412 464.58518086 -438.62721877 467.16226729 -440.359375 470.03125 C-440.9577417 471.02705078 -441.5561084 472.02285156 -442.17260742 473.04882812 C-443.13904175 474.6334082 -443.13904175 474.6334082 -444.125 476.25 C-444.79313721 477.35279297 -445.46127441 478.45558594 -446.1496582 479.59179688 C-461.72154348 505.19343608 -478.1702313 529.71693309 -497.375 552.75 C-498.20902344 553.7709375 -499.04304688 554.791875 -499.90234375 555.84375 C-511.92058608 570.37091637 -525.32127407 584.35548745 -540.375 595.75 C-541.33664062 596.52859375 -542.29828125 597.3071875 -543.2890625 598.109375 C-563.57054969 614.43739327 -589.3174257 630.43915769 -616.375 627.75 C-626.34985776 626.05245037 -634.40550425 620.77845541 -640.80859375 613.0234375 C-653.27602925 594.92855605 -652.0538741 570.6473599 -648.41015625 549.94140625 C-639.23750727 502.21994846 -616.03618078 459.14310703 -588.375 419.75 C-587.42778076 418.39455078 -587.42778076 418.39455078 -586.46142578 417.01171875 C-578.88767586 406.20726787 -570.84385601 395.86557802 -562.375 385.75 C-561.88708984 385.16299316 -561.39917969 384.57598633 -560.89648438 383.97119141 C-554.85466322 376.71732696 -548.57121993 369.70927425 -542.125 362.8125 C-541.4755542 362.11455322 -540.8261084 361.41660645 -540.15698242 360.69750977 C-535.79725305 356.07758067 -531.203068 351.87271261 -526.375 347.75 C-525.29104847 346.78992411 -524.2089094 345.82779659 -523.12890625 344.86328125 C-496.98754777 321.78205689 -465.72671874 301.97593981 -429.81982422 303.56787109 C-420.78853643 304.24066325 -414.41074765 307.44178979 -408.34765625 314.12109375 C-399.94326069 325.32140704 -398.03432344 336.31334657 -398.125 349.9375 C-398.11726563 351.08025391 -398.10953125 352.22300781 -398.1015625 353.40039062 C-398.12722759 364.75077508 -399.71405076 375.60493064 -402.875 386.5 C-403.12709229 387.37487061 -403.37918457 388.24974121 -403.63891602 389.15112305 C-408.74028955 406.17611694 -416.08897528 422.5615146 -423.375 438.75 C-417.50016301 437.67604009 -411.65286515 436.50802583 -405.81494141 435.24853516 C-403.87235877 434.85162163 -401.91209811 434.54149061 -399.94921875 434.26171875 C-395.04642339 433.21872176 -392.96826911 431.60434815 -390.09375 427.46484375 C-387.81826703 423.43633941 -385.87513811 419.26027898 -383.93164062 415.06396484 C-381.10406988 409.04429024 -378.09696163 403.11293511 -375.1166687 397.16778564 C-373.99513264 394.92777859 -372.87812805 392.68555855 -371.76196289 390.44287109 C-366.38134558 379.64865875 -360.73836421 369.03050366 -354.88037109 358.48730469 C-352.6389094 354.41152323 -350.45978057 350.30302998 -348.27294922 346.19775391 C-316.959676 287.51231622 -280.2750464 231.19441433 -239.375 178.75 C-238.48434315 177.60028509 -237.59371916 176.45054472 -236.703125 175.30078125 C-231.29179041 168.33964965 -225.72389634 161.54241718 -219.99609375 154.83984375 C-217.55196666 151.97422306 -215.17804266 149.05594478 -212.8125 146.125 C-208.93687067 141.36192782 -204.86265711 136.81635751 -200.70703125 132.296875 C-198.75094748 130.16058251 -196.83312303 128.00219343 -194.9375 125.8125 C-179.40664638 107.98077917 -163.24779946 89.67973539 -145.19921875 74.35546875 C-143.16694494 72.56689372 -141.27442105 70.67881247 -139.375 68.75 C-136.2038397 65.53565269 -132.91917247 62.53249037 -129.49609375 59.58984375 C-127.15008942 57.55491181 -124.8576355 55.46709033 -122.5625 53.375 C-118.32030793 49.55059957 -113.97145994 45.89849715 -109.5234375 42.31640625 C-107.18215024 40.4247852 -104.88699326 38.48603917 -102.6015625 36.52734375 C-80.83360046 17.99881665 -29.92765061 -22.11726374 0 0 Z M-475.375 355.75 C-483.04750725 366.11825304 -487.37329098 378.41384881 -486.12109375 391.37890625 C-484.32353502 401.72701464 -480.27001633 409.88260958 -473.375 417.75 C-472.87484375 418.35585938 -472.3746875 418.96171875 -471.859375 419.5859375 C-468.24580174 423.61926927 -464.03558433 426.36194588 -459.375 429.0625 C-458.50282837 429.56922241 -458.50282837 429.56922241 -457.61303711 430.08618164 C-453.59652831 432.31531864 -449.7940765 433.6395943 -445.375 434.75 C-432.19881174 413.38805991 -420.92276251 388.03985533 -419.375 362.75 C-419.31699219 361.88117188 -419.25898437 361.01234375 -419.19921875 360.1171875 C-418.90532376 351.23846526 -420.71131036 343.96894423 -425.64453125 336.5625 C-428.27976283 333.80234773 -430.97223027 332.95275327 -434.69921875 332.4140625 C-451.2363016 332.14072229 -465.05788829 343.81091125 -475.375 355.75 Z M-104.375 355.75 C-105.02500977 356.33974609 -105.67501953 356.92949219 -106.34472656 357.53710938 C-116.00068531 366.26803622 -116.00068531 366.26803622 -124.7890625 375.8515625 C-126.663458 378.09529701 -128.64285482 380.22593733 -130.625 382.375 C-136.2084563 388.57988651 -141.31942225 395.11566857 -146.375 401.75 C-146.89690918 402.43143066 -147.41881836 403.11286133 -147.95654297 403.81494141 C-162.86717826 423.37038446 -176.05868377 444.16915924 -188.81005859 465.18017578 C-190.40811772 467.80438332 -192.02635321 470.41550551 -193.64453125 473.02734375 C-205.49934917 492.37237083 -215.59359293 512.73573783 -221.375 534.75 C-221.63796875 535.72839844 -221.9009375 536.70679688 -222.171875 537.71484375 C-223.76129917 544.5128539 -225.23628628 553.10563274 -221.98046875 559.48046875 C-219.60943491 562.83222218 -218.88208237 563.63634361 -214.75 564.5625 C-207.71136713 565.22078941 -202.92954543 562.37599991 -197.5625 558.1875 C-195.82379596 556.71955598 -194.09491624 555.23991258 -192.375 553.75 C-191.49714844 553.02941406 -190.61929688 552.30882812 -189.71484375 551.56640625 C-181.54141635 544.59253223 -175.55765534 536.47091707 -169.375 527.75 C-168.82440918 526.98365234 -168.27381836 526.21730469 -167.70654297 525.42773438 C-143.42590946 491.63031246 -122.81413273 455.31673685 -102.57397461 419.00610352 C-96.90181009 408.85402306 -91.0430944 398.81500186 -85.15576172 388.78662109 C-82.0732071 383.53013434 -79.00630702 378.26452032 -75.9375 373 C-74.8347051 371.10933435 -73.73184287 369.21870798 -72.62890625 367.328125 C-72.10441895 366.42126953 -71.57993164 365.51441406 -71.03955078 364.58007812 C-69.85618079 362.56810616 -68.64292268 360.57358358 -67.40966797 358.59179688 C-66.44697998 357.02268555 -66.44697998 357.02268555 -65.46484375 355.421875 C-64.87437256 354.47924805 -64.28390137 353.53662109 -63.67553711 352.56542969 C-62.18398538 349.33648759 -61.9880699 347.26798913 -62.375 343.75 C-64.17493774 341.05009338 -65.458773 339.2081135 -68.375 337.75 C-83.34026245 335.3949089 -94.21657124 346.41811006 -104.375 355.75 Z M-509.375 407.75 C-537.8470198 441.50993383 -575.17588667 497.86794753 -573.7109375 543.67578125 C-573.04185826 549.79863432 -571.79530722 555.20645921 -567.45703125 559.765625 C-562.83565936 563.26641645 -558.68801805 564.60073042 -552.90625 564.19921875 C-538.55034441 561.65148859 -527.49070605 551.55385384 -517.375 541.75 C-516.36199587 540.78904489 -515.34897506 539.82810737 -514.3359375 538.8671875 C-507.42597686 532.22346587 -501.44883782 525.1020488 -495.67773438 517.45849609 C-494.44863628 515.84657172 -493.18620576 514.26022123 -491.921875 512.67578125 C-469.24120185 485.40034282 -469.24120185 485.40034282 -457.375 453.75 C-458.33019531 453.2653125 -459.28539062 452.780625 -460.26953125 452.28125 C-479.77005484 442.23598613 -495.59550894 429.30203115 -506.7734375 410.3125 C-507.56621094 409.0440625 -507.56621094 409.0440625 -508.375 407.75 C-508.705 407.75 -509.035 407.75 -509.375 407.75 Z " fill="#E61C29" transform="translate(1854.375,12.25)"/>
<path d="M0 0 C9.19460378 7.80512074 14.02539072 16.85561194 16.09375 28.77734375 C18.1957715 59.00296327 9.92017426 87.56520443 -2.90625 114.77734375 C29.67332292 110.12311905 64.22423188 75.43432228 84.609375 51.73046875 C87.97011409 47.84626623 91.56774039 44.31723909 95.34375 40.83984375 C95.99996338 40.23285645 96.65617676 39.62586914 97.33227539 39.00048828 C102.74500252 34.02984569 108.28939763 29.28753478 114.09375 24.77734375 C114.68236816 24.31618164 115.27098633 23.85501953 115.87744141 23.37988281 C139.11295144 5.24686483 163.6565909 -8.86298219 194.09375 -7.22265625 C206.16161474 -5.62264722 216.55375148 -1.25921182 224.375 8.29296875 C232.8104762 20.48606616 234.13694686 33.44776841 232.09375 47.77734375 C227.68344783 70.42298859 215.81024452 93.98408129 196.84375 107.83984375 C190.40252531 112.02714067 184.7578845 113.65954628 177.09375 112.77734375 C172.40063518 111.0625518 169.2151599 108.67910612 166.09375 104.77734375 C162.90861518 96.66972783 163.3407488 87.87275012 166.5625 79.8046875 C172.17281078 67.20561862 181.04679019 55.28377718 194.09375 49.77734375 C199.39196099 48.17610665 204.55145833 47.48564419 210.09375 47.77734375 C211.20636307 41.19841431 211.61079377 36.30899646 208.39453125 30.3359375 C206.0678446 27.54810574 203.83602033 26.8752822 200.28125 26.40625 C183.69021465 26.06060343 172.18094599 34.76498901 160.44921875 45.60546875 C158.43085465 47.46651425 156.37561783 49.25349762 154.28125 51.02734375 C145.56911925 58.64604918 137.49355905 66.9210971 130.31640625 76 C128.36009937 78.44452406 126.33245951 80.8032172 124.26635742 83.15478516 C102.28579387 108.36674012 85.40210614 138.68981242 71.09375 168.77734375 C70.5668457 169.88480957 70.5668457 169.88480957 70.02929688 171.01464844 C51.22349764 209.93179483 51.22349764 209.93179483 51.71875 252.02734375 C54.27563935 259.03874416 57.50937982 263.68445483 64.15625 267.21484375 C74.21477791 271.11336715 84.52718665 268.96345429 94.09375 264.77734375 C114.22735456 255.54459252 129.37049722 240.55719844 144.90625 225.08984375 C145.80214844 224.19869873 146.69804688 223.30755371 147.62109375 222.3894043 C152.65179679 217.34603064 157.48667812 212.20993889 162.09375 206.77734375 C162.76676147 205.99484253 162.76676147 205.99484253 163.45336914 205.1965332 C183.07294509 182.3640871 200.96748177 158.35322281 218.15625 133.65234375 C223.84236319 125.48905752 229.69465815 117.4749756 235.72949219 109.56640625 C237.01520903 107.88034092 238.29350827 106.18891224 239.5703125 104.49609375 C248.84519358 92.29071278 258.51124285 80.37488404 268.9296875 69.125 C270.88563859 67.00311082 272.77839782 64.84317129 274.65625 62.65234375 C277.95477349 58.84575384 281.51438686 55.337512 285.1015625 51.8046875 C287.19104432 49.75298862 287.19104432 49.75298862 289.15625 47.15234375 C291.51276429 44.26371333 294.2003479 42.00443671 297.03125 39.58984375 C298.91943887 37.93052626 300.66368365 36.21193189 302.40625 34.40234375 C321.8808122 14.70896625 351.2716693 -6.36751222 379.71875 -7.59765625 C393.25550601 -6.99378609 402.35208924 -1.3195314 411.66015625 8.04296875 C413.09375 9.77734375 413.09375 9.77734375 413.09375 11.77734375 C415.60771898 9.44294398 417.04495054 7.89968794 418.33496094 4.66552734 C421.68831591 1.15489112 422.70230337 1.30428848 427.42285156 1.09619141 C430.11493326 1.09714378 432.7941903 1.12979397 435.484375 1.19140625 C436.91353575 1.2026017 438.34271958 1.21114025 439.77191162 1.21713257 C443.52738403 1.2400047 447.28145644 1.29891004 451.03637695 1.36535645 C454.8704128 1.42681623 458.70467568 1.45415522 462.5390625 1.484375 C470.05792885 1.54865824 477.57564302 1.65101389 485.09375 1.77734375 C483.70947638 5.30798586 482.18395174 8.58090354 480.328125 11.890625 C479.77527832 12.87844971 479.22243164 13.86627441 478.65283203 14.8840332 C478.05583496 15.94195068 477.45883789 16.99986816 476.84375 18.08984375 C476.21968262 19.19996826 475.59561523 20.31009277 474.95263672 21.45385742 C470.20924721 29.8646504 465.36912264 38.21677474 460.48510742 46.54663086 C455.98983779 54.21891471 451.5600609 61.92733044 447.15625 69.65234375 C440.12813099 81.97783158 433.05134399 94.27456731 425.95263672 106.55957031 C422.83050395 111.9640502 419.71233796 117.37081787 416.59375 122.77734375 C415.34376878 124.94402125 414.09376879 127.11068792 412.84375 129.27734375 C411.915625 130.88609375 411.915625 130.88609375 410.96875 132.52734375 C390.34375 168.27734374 390.34375 168.27734374 388.46826172 171.52807617 C387.21975778 173.69222555 385.97138513 175.85645068 384.72314453 178.02075195 C381.57633342 183.47656548 378.42716829 188.93099559 375.2734375 194.3828125 C369.05309476 205.13998154 362.85383971 215.90877811 356.71875 226.71484375 C356.16493652 227.68639404 355.61112305 228.65794434 355.04052734 229.65893555 C354.53473145 230.55265869 354.02893555 231.44638184 353.5078125 232.3671875 C353.0638916 233.14956787 352.6199707 233.93194824 352.16259766 234.73803711 C350.4682398 237.9707852 349.91578702 240.67549276 349.84375 244.27734375 C349.80507812 245.4375 349.80507812 245.4375 349.765625 246.62109375 C349.95686483 248.82543531 349.95686483 248.82543531 351.234375 250.62109375 C353.13159245 252.04460596 353.13159245 252.04460596 355.93359375 251.64453125 C377.18750293 245.81218534 398.00743263 221.18491794 411.03125 204.40625 C413.11780458 201.74668328 415.29819813 199.19994457 417.51708984 196.65112305 C421.64972379 191.90352142 425.68582573 187.12436749 429.46875 182.08984375 C430.19578125 181.14238281 430.9228125 180.19492187 431.671875 179.21875 C433.65462967 176.52514964 435.29759947 173.70949136 436.953125 170.8046875 C444.81874297 157.74041785 444.81874297 157.74041785 450.97460938 155.93017578 C457.7354993 155.1371929 464.39168272 155.70768065 471.09375 156.77734375 C469.48994401 161.62627765 466.74036769 165.37003661 463.78125 169.46484375 C463.25362061 170.20307373 462.72599121 170.94130371 462.18237305 171.7019043 C460.49144693 174.06422388 458.79288058 176.42092045 457.09375 178.77734375 C455.97112044 180.34228028 454.84872277 181.90738318 453.7265625 183.47265625 C441.38219421 200.65994047 428.6480802 217.52115371 415.09375 233.77734375 C414.66545898 234.29200195 414.23716797 234.80666016 413.79589844 235.33691406 C400.06727275 251.77397483 385.40694006 267.86965799 369.09375 281.77734375 C368.05378244 282.69167994 367.01480374 283.60714151 365.9765625 284.5234375 C347.28589319 300.92886593 325.20479871 318.33551965 299.15625 317.984375 C291.71591037 317.48139286 286.32219516 314.97805578 280.88671875 309.87890625 C275.56992296 303.64701925 272.9510525 296.46289417 272.99609375 288.35546875 C272.99931641 287.33066406 273.00253906 286.30585938 273.00585938 285.25 C273.01423828 284.18652344 273.02261719 283.12304688 273.03125 282.02734375 C273.03576172 280.94839844 273.04027344 279.86945313 273.04492188 278.7578125 C273.05669273 276.09759992 273.07313601 273.4375001 273.09375 270.77734375 C272.4646875 271.49019531 271.835625 272.20304687 271.1875 272.9375 C266.11062019 278.61840618 260.96434641 283.90981687 255.09375 288.77734375 C254.21203125 289.54691406 253.3303125 290.31648438 252.421875 291.109375 C233.88843677 307.06872459 213.24033505 319.0576231 188.16748047 317.95654297 C180.16045547 317.2646244 172.76891305 313.3778336 167.09375 307.77734375 C158.2909442 297.17396404 156.20000571 284.68349523 157.30566406 271.19140625 C158.35345897 261.64713576 159.92945861 252.20483634 162.54296875 242.95703125 C163.2162439 240.66728046 163.2162439 240.66728046 163.09375 237.77734375 C162.43890625 238.43742432 161.7840625 239.09750488 161.109375 239.77758789 C158.64384874 242.26030841 156.17597166 244.74064567 153.70654297 247.21948242 C152.64474139 248.28626672 151.58384442 249.35395228 150.52392578 250.42260742 C145.09300814 255.897116 139.65784937 261.3100057 133.78857422 266.32104492 C131.33240716 268.43153707 129.0060535 270.674744 126.65625 272.90234375 C108.21139144 290.01318746 86.72271527 305.03830121 62.78125 313.15234375 C62.07701904 313.39114258 61.37278809 313.62994141 60.6472168 313.87597656 C50.86000254 317.01460752 41.28361615 318.12264083 31.03125 318.08984375 C30.01998047 318.10595703 29.00871094 318.12207031 27.96679688 318.13867188 C14.31178665 318.14746454 1.95583491 313.10857647 -8.06640625 303.7421875 C-24.03488597 286.68880045 -27.60886538 261.52971539 -27.2109375 238.98046875 C-25.17507175 203.4790082 -5.95481505 164.20195642 13.09375 134.77734375 C10.32211964 135.37801612 7.55149029 135.98281899 4.78125 136.58984375 C3.63172852 136.83831055 3.63172852 136.83831055 2.45898438 137.09179688 C0.85430116 137.44469401 -0.74637555 137.8161993 -2.34301758 138.20385742 C-4.90625 138.77734375 -4.90625 138.77734375 -7.6784668 139.1418457 C-12.19087052 139.92078881 -14.99006169 140.76177918 -18.11206055 144.22241211 C-20.28664183 147.50775263 -22.21645387 150.88101718 -24.09375 154.33984375 C-24.81424081 155.60300115 -25.53859597 156.86396141 -26.26660156 158.12280273 C-27.76347347 160.717278 -29.24449926 163.31981833 -30.71435547 165.9296875 C-34.04939594 171.82154924 -37.59912258 177.57982304 -41.15625 183.33984375 C-41.81536377 184.41137695 -42.47447754 185.48291016 -43.15356445 186.58691406 C-58.3215069 211.11058975 -75.62013224 233.16377658 -95.4296875 254.078125 C-98.25740511 257.06936044 -101.00354877 260.12066567 -103.71875 263.21484375 C-107.36842789 267.30193622 -111.27449094 270.9652401 -115.39453125 274.57421875 C-117.01765514 275.99792306 -118.62101808 277.44462298 -120.19921875 278.91796875 C-141.2241899 298.49901391 -169.90996642 318.65119633 -199.76318359 318.24804688 C-212.37179764 317.70299757 -221.58705212 312.596774 -230.15625 303.52734375 C-243.15259253 287.32691678 -242.96831589 263.77910037 -241.02807617 244.15405273 C-236.05137489 200.20711503 -215.22512742 156.55537852 -189.90625 120.77734375 C-189.07807076 119.5911837 -188.24994661 118.40498519 -187.421875 117.21875 C-177.18130404 102.64448237 -166.26498689 88.51075135 -154.2421875 75.359375 C-152.96974746 73.95288192 -151.7034797 72.54026113 -150.47070312 71.09887695 C-145.61464082 65.43274571 -140.43046792 60.11539846 -135.15576172 54.84155273 C-133.66731763 53.3509276 -132.18707723 51.85247358 -130.70703125 50.35351562 C-124.43552274 44.04513654 -117.89924205 38.29179762 -110.90625 32.77734375 C-109.70216581 31.8006605 -108.4988949 30.82297268 -107.296875 29.84375 C-81.46511482 9.12130391 -32.78900228 -24.29474988 0 0 Z M-61.90625 44.77734375 C-71.13490802 57.10431245 -75.63493123 69.37812736 -73.90625 84.77734375 C-70.83357819 95.64656133 -62.12283227 103.64404936 -52.71875 109.2734375 C-44.10816213 113.87771018 -36.62654295 115.94209448 -26.90625 115.77734375 C-8.63927633 77.82872764 -8.63927633 77.82872764 -8.73046875 37.07421875 C-10.92546188 31.833998 -13.35927645 26.99294476 -18.65625 24.46484375 C-36.47996427 20.69444266 -50.95586009 31.91817028 -61.90625 44.77734375 Z M349.5390625 52.73046875 C346.82495783 56.11226052 344.00007853 59.37998077 341.15625 62.65234375 C336.03122556 68.58793826 331.21617548 74.70615623 326.48339844 80.95800781 C324.38769936 83.70170941 322.25274198 86.41428307 320.12207031 89.13085938 C308.43645253 104.05713448 297.31302969 119.2666493 286.78125 135.02734375 C286.36486267 135.64879272 285.94847534 136.2702417 285.51947021 136.91052246 C249.33725574 188.6616619 249.33725574 188.6616619 237.09375 247.77734375 C238.7434348 250.95360255 240.84897458 253.15495604 244.09375 254.77734375 C252.10747435 256.11296448 257.12706811 253.00828299 263.47265625 248.52734375 C279.48988916 236.62907279 291.17997324 221.27528326 302.09375 204.77734375 C302.91662131 203.55335492 303.7395371 202.329396 304.5625 201.10546875 C313.91713627 187.04241759 322.33381512 172.37198398 330.89343262 157.81799316 C332.05222332 155.8479429 333.21199565 153.87847409 334.37207031 151.90917969 C352.78775076 120.63925731 370.93901897 89.20355482 388.69238281 57.55224609 C390.9772971 53.48346969 393.27878995 49.43597692 395.7109375 45.453125 C396.09765625 44.81101074 396.484375 44.16889648 396.8828125 43.50732422 C397.87511957 41.86939289 398.88584888 40.24265871 399.8984375 38.6171875 C401.35885057 35.14751332 401.1881541 33.3467076 400.09375 29.77734375 C396.87011553 26.71489101 394.15080679 25.50691766 389.78125 25.27734375 C373.58371968 26.11561327 358.96828899 40.83715869 349.5390625 52.73046875 Z M-97.90625 94.77734375 C-126.26665268 130.1314768 -164.96802024 187.03640773 -161.90625 234.77734375 C-160.74231744 241.346658 -157.87081583 246.31936627 -152.90625 250.77734375 C-148.235532 253.60435727 -142.95221794 253.43162206 -137.7421875 252.3125 C-115.89287191 245.78858775 -97.3540508 224.20882527 -83.90625 206.77734375 C-82.85631852 205.48782829 -81.80403725 204.20022411 -80.75 202.9140625 C-71.98382218 192.09627851 -64.72578268 180.68743854 -57.65722656 168.70849609 C-54.23185421 162.97438839 -50.65408045 157.33241552 -47.07983398 151.69018555 C-44.24637593 147.16108631 -41.8533266 142.75543651 -39.90625 137.77734375 C-40.42421143 137.5664209 -40.94217285 137.35549805 -41.47583008 137.13818359 C-55.01491586 131.59994476 -67.53330972 126.15385073 -78.90625 116.77734375 C-79.89625 116.05546875 -80.88625 115.33359375 -81.90625 114.58984375 C-87.46116879 109.93740476 -91.94953937 103.0728564 -95.61328125 96.90234375 C-96.25330078 95.85046875 -96.25330078 95.85046875 -96.90625 94.77734375 C-97.23625 94.77734375 -97.56625 94.77734375 -97.90625 94.77734375 Z " fill="#E61C29" transform="translate(451.90625,164.22265625)"/>
<path d="M0 0 C3.87938159 3.24751262 3.87938159 3.24751262 5.64624023 5.11499023 C8.08206178 6.74042215 8.08206178 6.74042215 11.45727539 5.67749023 C12.84422879 5.19886688 14.22408176 4.69935838 15.59765625 4.18359375 C16.34037277 3.92343475 17.08308929 3.66327576 17.84831238 3.39523315 C19.43660767 2.8379696 21.02206739 2.27257005 22.6048584 1.69985962 C26.68593436 0.22634045 30.78925087 -1.18152383 34.89453125 -2.5859375 C36.0929213 -2.99712074 36.0929213 -2.99712074 37.31552124 -3.41661072 C50.86293579 -8.01075939 64.87907235 -10.73903079 79.20703125 -10.828125 C79.9657402 -10.83518463 80.72444916 -10.84224426 81.50614929 -10.84951782 C113.28815783 -11.0781493 113.28815783 -11.0781493 127 -7.625 C128.25756104 -7.31103271 128.25756104 -7.31103271 129.54052734 -6.99072266 C147.30515425 -2.4342845 163.79290056 3.82350031 180 12.375 C181.08684082 12.94573242 182.17368164 13.51646484 183.29345703 14.10449219 C198.4183474 22.05456019 213.41508249 30.18512284 228.19726562 38.75878906 C231.35733621 40.58105973 234.52927327 42.38152954 237.703125 44.1796875 C249.115888 50.64929095 260.47889801 57.18000951 271.6875 64 C272.60063965 64.5554248 273.5137793 65.11084961 274.45458984 65.68310547 C280.05877287 69.11873603 285.55827697 72.6876309 291 76.375 C285.43312161 83.09675754 279.2914864 89.1420994 273.07617188 95.25976562 C268.75983103 99.53476881 264.6026141 103.86455259 260.64624023 108.47485352 C257.39150994 112.23157395 253.95029596 115.81965143 250.54296875 119.4375 C247.85353625 122.3113144 245.26908551 125.14714597 243 128.375 C238.6185591 127.76555145 235.09042171 126.09075506 231.25 124 C230.26447144 123.46717407 230.26447144 123.46717407 229.2590332 122.92358398 C222.12900806 118.99781858 215.35213521 114.56612097 208.5703125 110.07373047 C204.01762323 107.06483876 199.44475981 104.0867489 194.87567139 101.10284424 C192.62290169 99.63116067 190.37103909 98.15809267 188.11923218 96.68493652 C178.75913879 90.56148224 169.39860251 84.4392476 160 78.375 C159.2373584 77.88225586 158.4747168 77.38951172 157.68896484 76.88183594 C97.42763358 37.46657338 97.42763358 37.46657338 28 28.375 C25.64219588 28.97876968 23.32924058 29.66458162 21 30.375 C20.98541748 31.15399658 20.97083496 31.93299316 20.95581055 32.7355957 C20.22112501 67.98752134 13.16862462 97.91757499 -1 130.375 C-1.37882324 131.25913574 -1.75764648 132.14327148 -2.14794922 133.05419922 C-13.31277698 158.93513864 -30.44088758 182.29694409 -49 203.375 C-49.73347656 204.2309375 -50.46695312 205.086875 -51.22265625 205.96875 C-69.17260263 226.55743623 -93.59950511 245.67795532 -121.3515625 249.8828125 C-129.76966859 250.21598293 -139.65951551 248.29921263 -146.5 243.125 C-156.76911932 231.82896874 -158.96970204 218.58683329 -158.4375 203.7734375 C-157.40159433 187.63057407 -150.77807802 172.84514197 -144 158.375 C-143.57412598 157.46282715 -143.14825195 156.5506543 -142.70947266 155.61083984 C-134.26144918 137.70780607 -124.33543525 120.88470034 -112 105.375 C-111.51950195 104.76591797 -111.03900391 104.15683594 -110.54394531 103.52929688 C-96.62785439 85.92825976 -81.35792787 68.67394878 -64 54.375 C-62.90171875 53.44300781 -62.90171875 53.44300781 -61.78125 52.4921875 C-47.64580268 40.66902015 -32.84927712 29.78274131 -17 20.375 C-27.11971689 15.05566163 -39.46063981 17.19407161 -50 20.375 C-58.30872255 23.46211443 -66.21430455 27.33784481 -74.0625 31.4375 C-75.14378174 32.00186768 -76.22506348 32.56623535 -77.33911133 33.14770508 C-101.35827069 45.85455803 -123.19121579 61.97749189 -144 79.375 C-144.78213867 80.02758789 -144.78213867 80.02758789 -145.58007812 80.69335938 C-159.37598658 92.24152832 -172.32090977 104.61758633 -185.0625 117.3125 C-185.94301025 118.1883374 -186.82352051 119.0641748 -187.73071289 119.96655273 C-192.12367798 124.37043411 -196.37157184 128.8357292 -200.42456055 133.55444336 C-202.83222229 136.33670489 -205.35823629 139.00433519 -207.875 141.6875 C-212.33504356 146.4814914 -216.56309553 151.40010996 -220.6640625 156.5078125 C-223.33874352 159.79078218 -226.10201279 162.98769587 -228.875 166.1875 C-233.3284283 171.34458264 -237.60860723 176.60627146 -241.78686523 181.98803711 C-244.73543224 185.78190555 -247.73945417 189.52286246 -250.78686523 193.23779297 C-256.67071974 200.41050837 -262.34513089 207.70288248 -267.86328125 215.16015625 C-270.01622264 218.0687071 -272.20398683 220.9462536 -274.41796875 223.80859375 C-285.4398523 238.13479758 -295.24800618 253.17250951 -305 268.375 C-305.59474121 269.29764648 -306.18948242 270.22029297 -306.80224609 271.17089844 C-320.04808903 291.7381819 -332.22205549 312.93885161 -344 334.375 C-344.46535156 335.2215918 -344.93070313 336.06818359 -345.41015625 336.94042969 C-371.37544192 384.47240413 -388.88387144 435.86380637 -397 489.375 C-397.1134375 490.10452881 -397.226875 490.83405762 -397.34375 491.58569336 C-400.29307912 512.36003031 -398.61165946 535.86916605 -386.6875 553.6875 C-385.48529081 555.27083509 -384.25672778 556.8345805 -383 558.375 C-382.45085937 559.07238281 -381.90171875 559.76976562 -381.3359375 560.48828125 C-374.12161464 568.67192943 -361.88978814 574.9021714 -351.015625 575.6484375 C-326.12005179 576.40643783 -306.35100726 565.15817293 -287 550.375 C-286.44812012 549.95444336 -285.89624023 549.53388672 -285.32763672 549.10058594 C-277.41320511 542.96347393 -270.3510079 535.91846226 -263.25 528.875 C-262.3744043 528.00883057 -261.49880859 527.14266113 -260.59667969 526.25024414 C-254.64225978 520.26597329 -249.24203962 513.98771017 -244 507.375 C-243.40413086 506.63846191 -242.80826172 505.90192383 -242.19433594 505.14306641 C-210.06767792 465.40057759 -175.90391112 408.6241554 -180 355.375 C-181.01057797 349.43693239 -182.21561871 343.38353567 -187 339.375 C-193.81993614 336.5739548 -199.997819 337.33420891 -207 339.375 C-229.63244457 349.31854443 -244.02692852 374.89368879 -254 396.375 C-254.53367187 397.49132812 -255.06734375 398.60765625 -255.6171875 399.7578125 C-259.55468989 408.38767525 -262.18875403 417.26408048 -264.703125 426.39453125 C-265.05020508 427.63964478 -265.05020508 427.63964478 -265.40429688 428.90991211 C-266.0455357 431.35550948 -266.0455357 431.35550948 -266.29882812 433.82641602 C-266.75275937 437.26622993 -267.07453723 439.55515222 -269.73925781 441.91577148 C-272.10341124 443.33809702 -274.49789438 444.52515208 -277 445.6875 C-278.82769129 446.61296547 -280.65184883 447.54543829 -282.47265625 448.484375 C-283.3970752 448.95681641 -284.32149414 449.42925781 -285.27392578 449.91601562 C-305.75038936 460.87493971 -340.40526617 483.18553234 -351 504.375 C-351.66 504.375 -352.32 504.375 -353 504.375 C-346.84108774 447.39254347 -327.73448566 390.7543508 -288 348.375 C-287.5349707 347.87597168 -287.06994141 347.37694336 -286.59082031 346.86279297 C-273.88986444 333.34148027 -259.55144966 322.74298725 -243 314.375 C-241.88496094 313.81039063 -240.76992187 313.24578125 -239.62109375 312.6640625 C-223.45614612 305.14459453 -202.56440376 299.34219132 -185 304.9375 C-174.04408561 309.71826264 -167.23929934 317.41847101 -162.75 328.4453125 C-148.51927612 371.03284648 -166.46386089 418.79133317 -185.4375 456.875 C-191.39782947 468.71340726 -197.85366936 480.20902014 -205 491.375 C-205.41523926 492.02887695 -205.83047852 492.68275391 -206.25830078 493.35644531 C-216.3589024 509.17138005 -227.57897765 524.30944977 -240 538.375 C-241.11761719 539.64150391 -241.11761719 539.64150391 -242.2578125 540.93359375 C-244.48736028 543.43084709 -246.74142432 545.90398403 -249 548.375 C-249.93518731 549.41510258 -250.87006686 550.45548194 -251.8046875 551.49609375 C-258.49950996 558.9058225 -265.50400279 565.77533964 -273 572.375 C-273.78383057 573.07592773 -273.78383057 573.07592773 -274.58349609 573.79101562 C-290.4075923 587.92701695 -307.4972545 599.99948353 -326 610.375 C-326.69689941 610.76945313 -327.39379883 611.16390625 -328.11181641 611.5703125 C-354.14124282 626.09954588 -386.89410202 632.05311502 -416 624.375 C-440.99966152 616.96586347 -459.61009332 598.80433812 -471.98339844 576.31298828 C-476.4022411 567.88917151 -479.27373754 558.96326486 -481.75 549.8125 C-482.04825684 548.71663574 -482.04825684 548.71663574 -482.35253906 547.59863281 C-485.78534625 534.16770109 -486.40576041 520.90501298 -486.375 507.125 C-486.37478851 506.24815552 -486.37457703 505.37131104 -486.37435913 504.46789551 C-486.3383183 489.43596583 -485.15654355 475.10999117 -482 460.375 C-481.83935059 459.57562012 -481.67870117 458.77624023 -481.51318359 457.95263672 C-469.73826379 400.34968013 -442.0629732 344.36202748 -412 294.375 C-411.47470703 293.49956543 -410.94941406 292.62413086 -410.40820312 291.72216797 C-397.96147806 271.07049268 -384.52218958 250.95437529 -370.44189453 231.38183594 C-368.9113578 229.25162735 -367.39106118 227.11432314 -365.87109375 224.9765625 C-355.64378179 210.64316959 -344.98604775 196.67339939 -333.5078125 183.31640625 C-331.14106999 180.5404606 -328.84617969 177.71936807 -326.5625 174.875 C-322.18315122 169.48926586 -317.49955162 164.42683201 -312.765625 159.35546875 C-310.67089076 157.10901311 -308.62670331 154.83026572 -306.625 152.5 C-296.51158838 140.83679568 -285.63871294 129.84989359 -274.71142578 118.95605469 C-272.60200343 116.85206263 -270.49807561 114.74267965 -268.39453125 112.6328125 C-267.02636265 111.26530378 -265.65788439 109.8981048 -264.2890625 108.53125 C-263.67431061 107.91447388 -263.05955872 107.29769775 -262.42617798 106.66223145 C-258.65815514 102.91417493 -254.77001718 99.35465811 -250.74589539 95.88278198 C-248.52223863 93.96239796 -246.35593022 91.98234777 -244.1875 90 C-239.92877171 86.16132837 -235.56428016 82.49024335 -231.10546875 78.88671875 C-228.80538263 77.02639752 -226.51800364 75.15447665 -224.23828125 73.26953125 C-215.73537509 66.25803503 -207.1042834 59.58931049 -198 53.375 C-197.04158203 52.71838379 -196.08316406 52.06176758 -195.09570312 51.38525391 C-181.16355935 41.87364398 -167.13462085 32.716132 -152.30810547 24.63623047 C-150.16439348 23.46483041 -148.03639025 22.26914023 -145.91015625 21.06640625 C-127.92156542 11.04099533 -108.67979718 3.36551457 -89.1875 -3.1875 C-87.99165283 -3.59282959 -86.79580566 -3.99815918 -85.5637207 -4.41577148 C-59.20292857 -13.03087538 -23.63622805 -18.2171904 0 0 Z M-33 57.375 C-33.58523438 57.81602051 -34.17046875 58.25704102 -34.7734375 58.71142578 C-42.27583778 64.39351115 -49.38699684 70.37416758 -56.25 76.8125 C-58.72679294 79.12042069 -61.25228742 81.34826209 -63.8125 83.5625 C-67.18626971 86.55000627 -70.16202717 89.68792134 -73.06640625 93.12890625 C-74.95598951 95.3238767 -76.91654887 97.43924988 -78.89868164 99.55053711 C-85.06594191 106.14591664 -90.66868095 113.08886397 -96 120.375 C-96.48114258 121.03161621 -96.96228516 121.68823242 -97.45800781 122.36474609 C-104.52557146 132.06617028 -111.04155644 141.95799695 -117 152.375 C-117.40992188 153.08269531 -117.81984375 153.79039062 -118.2421875 154.51953125 C-134.69413079 182.65348727 -134.69413079 182.65348727 -138 214.375 C-136.61260666 219.11396152 -134.80910118 221.73102151 -130.9375 224.8125 C-125.94583271 227.46764218 -121.57069523 228.37352084 -116 227.375 C-98.50547202 220.72403021 -84.25353862 208.25307204 -71 195.375 C-70.51160645 194.90707031 -70.02321289 194.43914062 -69.52001953 193.95703125 C-62.78993547 187.50049108 -56.71436716 180.74080988 -51 173.375 C-50.5344873 172.78058105 -50.06897461 172.18616211 -49.58935547 171.57373047 C-42.30162431 162.2356575 -35.7626408 152.723252 -30 142.375 C-29.35248779 141.2293457 -29.35248779 141.2293457 -28.69189453 140.06054688 C-14.17114613 114.18402683 5.80189323 70.91657155 -0.484375 39.9921875 C-0.65453125 39.45851562 -0.8246875 38.92484375 -1 38.375 C-11.09945462 38.375 -25.12843738 51.40677054 -33 57.375 Z " fill="#E61C29" transform="translate(1402,12.625)"/>
<path d="M0 0 C1.26714844 -0.02449219 2.53429687 -0.04898438 3.83984375 -0.07421875 C18.51129219 -0.11954763 30.81340537 4.51867808 41.625 14.5 C51.75430868 25.18409413 55.41294585 39.25661378 55.29467773 53.67236328 C54.43547264 78.64180271 41.77477156 105.15244093 23.765625 122.39453125 C15.70138506 129.18622269 7.0711548 132.10390963 -3.45703125 131.6953125 C-8.30283564 131.11353218 -11.01725958 129.51351099 -14.375 126.0625 C-18.96338153 119.01605694 -18.81909724 111.5132901 -18.125 103.375 C-15.02700715 88.83555629 -5.37622058 74.49496843 7.125 66.25 C14.34306701 62.3208103 21.8180996 61.87772942 29.875 61.375 C31.78521915 54.85230046 32.07915057 47.16499189 29.3125 40.875 C26.44996568 35.95757497 22.16714401 34.139048 16.875 32.375 C-22.3283612 29.30909611 -61.88528352 59.2398081 -90.125 83.375 C-93.22803507 86.11077602 -96.26446214 88.91173065 -99.28125 91.7421875 C-101.41550967 93.7181367 -103.57044012 95.62076852 -105.77734375 97.51171875 C-110.64117222 101.74962361 -115.19413065 106.2936608 -119.7434082 110.86303711 C-121.18525221 112.31024385 -122.63237116 113.75202026 -124.08007812 115.19335938 C-128.71640189 119.82635702 -133.22529955 124.51786473 -137.4909668 129.49584961 C-140.38675669 132.82602962 -143.45845317 135.99103769 -146.5 139.1875 C-151.53942197 144.52383059 -156.38076075 149.93183198 -160.95703125 155.67578125 C-162.97842875 158.1925122 -165.05099862 160.65096217 -167.15087891 163.10180664 C-172.57346778 169.43316214 -177.73087313 175.93567213 -182.76220703 182.58251953 C-184.22677663 184.50886672 -185.70401008 186.42500704 -187.18359375 188.33984375 C-195.04820461 198.5324558 -202.67539715 208.87550476 -210.125 219.375 C-211.09107178 220.73383301 -211.09107178 220.73383301 -212.07666016 222.12011719 C-220.41451651 233.87827376 -228.44389638 245.7233307 -235.78759766 258.12841797 C-237.1892333 260.48289975 -238.61359411 262.82242037 -240.04296875 265.16015625 C-250.15184968 281.74298771 -259.5815929 298.71661756 -268.06054688 316.19287109 C-269.25026454 318.63179231 -270.46171366 321.05944263 -271.671875 323.48828125 C-287.81790138 356.20188619 -299.74865185 390.89487246 -308.125 426.375 C-308.37121094 427.39787109 -308.61742187 428.42074219 -308.87109375 429.47460938 C-318.47520026 469.88972784 -320.29926663 518.25961022 -297.79199219 554.99462891 C-291.34272457 564.99339022 -283.3554155 573.21702263 -273.125 579.375 C-272.5568457 579.72127441 -271.98869141 580.06754883 -271.40332031 580.42431641 C-258.58314703 588.17081713 -245.29088589 594.09330221 -230.875 598.1875 C-229.84947021 598.47995605 -229.84947021 598.47995605 -228.80322266 598.77832031 C-216.51413579 602.06739855 -204.33089597 602.78671658 -191.6875 602.75 C-190.87765656 602.74845917 -190.06781311 602.74691833 -189.23342896 602.74533081 C-173.27785372 602.67376016 -157.84276613 601.20094348 -142.125 598.375 C-141.43182678 598.25292175 -140.73865356 598.13084351 -140.0244751 598.00506592 C-103.94340183 591.63300837 -68.43062828 582.27141185 -32.87949944 573.4967289 C-19.33258397 570.15311805 -5.77080062 566.88041819 7.8125 563.6875 C19.11364525 561.02713376 30.37507019 558.25049658 41.61019897 555.32351685 C79.31684722 545.50406087 117.18094115 537.41188609 155.9375 533 C156.63681641 532.92027954 157.33613281 532.84055908 158.05664062 532.75842285 C175.20809012 530.83582043 192.19430161 530.16766419 209.4375 530.1875 C210.89657776 530.18840637 210.89657776 530.18840637 212.38513184 530.18933105 C226.62740986 530.21333654 240.74721034 530.39285249 254.875 532.375 C255.83631836 532.50922363 256.79763672 532.64344727 257.78808594 532.78173828 C306.80397493 539.87263026 348.9553899 558.27691658 388.875 587.375 C390.02331299 588.20451172 390.02331299 588.20451172 391.19482422 589.05078125 C402.38952803 597.13926857 413.28702073 605.50678503 423.875 614.375 C424.49294434 614.88853027 425.11088867 615.40206055 425.74755859 615.93115234 C433.44022947 622.34609182 440.76284172 629.0709286 447.875 636.125 C448.56907959 636.80981445 449.26315918 637.49462891 449.97827148 638.20019531 C462.875 651.17635061 462.875 651.17635061 462.875 655.375 C459.2806867 654.13235637 456.37356734 652.44669206 453.2746582 650.25415039 C407.75428679 618.08491831 343.25589607 600.31639207 287.75463867 609.52392578 C264.4574048 613.95219423 244.56478572 626.4169344 230.78515625 645.7734375 C229.25183551 647.86176391 227.7717575 649.62689121 225.875 651.375 C225.4625 650.78074219 225.05 650.18648437 224.625 649.57421875 C215.0461935 635.82606567 206.20335199 623.69313916 192.875 613.375 C191.59302734 612.35212891 191.59302734 612.35212891 190.28515625 611.30859375 C182.7019168 605.48147291 174.5370492 601.32900051 165.875 597.375 C164.70324219 596.83875 163.53148437 596.3025 162.32421875 595.75 C138.81805341 585.70954673 113.25953528 582.18406885 87.875 581.375 C86.70453125 581.33375 85.5340625 581.2925 84.328125 581.25 C35.08162812 580.40456658 -13.26393558 591.5964757 -60.59361267 603.90739441 C-111.68658348 617.17743043 -162.8940255 630.3831306 -215.125 638.375 C-216.02879395 638.51905273 -216.93258789 638.66310547 -217.86376953 638.81152344 C-261.17969531 645.57207157 -309.07698915 637.7633578 -345.33740234 612.20605469 C-359.53862418 601.73682267 -371.54722332 589.16529746 -381.125 574.375 C-381.6715625 573.59769531 -382.218125 572.82039062 -382.78125 572.01953125 C-397.91427948 549.27973961 -404.19385463 516.26614918 -404.328125 489.27734375 C-404.33513931 488.33372986 -404.34215363 487.39011597 -404.34938049 486.41790771 C-404.36681889 483.38272289 -404.37323455 480.34773311 -404.375 477.3125 C-404.37567474 476.27622467 -404.37634949 475.23994934 -404.37704468 474.17227173 C-404.36132885 459.00444291 -403.91645645 444.32086632 -401.125 429.375 C-400.95339355 428.40046875 -400.78178711 427.4259375 -400.60498047 426.421875 C-390.40630419 368.96659773 -368.77818347 314.49160226 -339.125 264.375 C-338.60953613 263.49537598 -338.09407227 262.61575195 -337.56298828 261.70947266 C-331.099146 250.68672878 -324.37677589 239.89579009 -317.125 229.375 C-316.60180176 228.61219727 -316.07860352 227.84939453 -315.53955078 227.06347656 C-303.49955628 209.5438078 -290.67776275 192.7483885 -277.125 176.375 C-276.64289063 175.79234375 -276.16078125 175.2096875 -275.6640625 174.609375 C-269.53581313 167.22838957 -263.1971763 160.0837409 -256.66479492 153.05834961 C-255.53008847 151.81785477 -254.40994269 150.56400289 -253.2980957 149.30297852 C-246.96124821 142.13763078 -240.26854908 135.36579297 -233.49536133 128.61499023 C-231.55889451 126.68390453 -229.62786044 124.74750118 -227.69726562 122.81054688 C-221.67411233 116.78415046 -215.62955508 110.88570737 -209.125 105.375 C-207.34929779 103.75532183 -205.57791693 102.13088282 -203.8125 100.5 C-198.41029859 95.57881653 -192.81270102 90.95998347 -187.125 86.375 C-185.89494984 85.36565906 -184.6658379 84.35517402 -183.4375 83.34375 C-174.19620676 75.75003163 -164.8065981 68.40026651 -155.125 61.375 C-154.4969043 60.91915527 -153.86880859 60.46331055 -153.22167969 59.99365234 C-134.63280409 46.61755569 -114.56055996 35.64071616 -94.125 25.375 C-93.2990332 24.95734375 -92.47306641 24.5396875 -91.62207031 24.109375 C-75.24696464 15.88510668 -58.39706939 9.50225758 -40.625 5 C-39.21214722 4.64192261 -39.21214722 4.64192261 -37.77075195 4.27661133 C-25.22875224 1.2550352 -12.88905099 0.01319248 0 0 Z " fill="#E61C29" transform="translate(404.125,-0.375)"/>
<path d="M0 0 C1 3 1 3 0.09472656 5.19799805 C-0.38512695 6.04402588 -0.86498047 6.89005371 -1.359375 7.76171875 C-1.89248291 8.70781006 -2.42559082 9.65390137 -2.97485352 10.62866211 C-3.56065186 11.63807861 -4.1464502 12.64749512 -4.75 13.6875 C-5.64319946 15.24319702 -5.64319946 15.24319702 -6.55444336 16.83032227 C-11.6150098 25.54150918 -17.04780893 33.87676541 -23 42 C-23.49387207 42.67643555 -23.98774414 43.35287109 -24.49658203 44.04980469 C-40.36209999 65.69055245 -58.07570185 87.27859656 -79.33984375 103.875 C-81.54920504 105.6398936 -83.65733876 107.45467129 -85.76953125 109.33203125 C-98.95092438 120.92301873 -113.71962503 130.44140509 -129 139 C-129.89702637 139.50273437 -130.79405273 140.00546875 -131.71826172 140.5234375 C-177.13905717 165.68890547 -231.06290076 180.92029186 -283 170 C-285.0161831 169.38400473 -287.02617713 168.74058607 -289 168 C-287.4360964 162.90501845 -284.29847222 159.38729758 -280.9375 155.375 C-280.3511377 154.66496826 -279.76477539 153.95493652 -279.16064453 153.22338867 C-277.98335044 151.79814979 -276.80370271 150.37485146 -275.62158203 148.95361328 C-273.52026215 146.42203218 -271.44811045 143.86720417 -269.375 141.3125 C-266.12879313 137.35414537 -262.85776228 133.41754606 -259.5625 129.5 C-258.73878906 128.5203125 -257.91507813 127.540625 -257.06640625 126.53125 C-256.59960449 126.00845459 -256.13280273 125.48565918 -255.65185547 124.94702148 C-253.8718397 122.90168265 -253.8718397 122.90168265 -251.96142578 120.16430664 C-246.00893932 112.4951601 -246.00893932 112.4951601 -240.55102539 111.14990234 C-237.27912328 111.0158516 -234.09397815 111.04515111 -230.82836914 111.28579712 C-227.98449884 111.49337493 -225.14094506 111.57140514 -222.29125977 111.65867615 C-220.86184845 111.70379656 -219.43262009 111.75516115 -218.00366211 111.81288147 C-159.61896377 114.12367218 -100.23652952 83.12560427 -55 49 C-54.10812988 48.33556885 -54.10812988 48.33556885 -53.19824219 47.65771484 C-34.02628794 33.37477355 -16.77644754 16.98471131 0 0 Z " fill="#E61C29" transform="translate(1999,0)"/>
<path d="M0 0 C1.35901663 0.01680467 2.71808811 0.0296071 4.07717896 0.03858948 C7.63953512 0.07281371 11.19854216 0.16107744 14.75958252 0.26092529 C18.39915656 0.35330955 22.03927675 0.39416353 25.6796875 0.43945312 C32.81125895 0.53572393 39.94056613 0.68914241 47.0703125 0.87890625 C45.56174161 4.77050265 43.79229029 8.1871722 41.61328125 11.75390625 C41.27359818 12.31208038 40.9339151 12.87025452 40.5839386 13.44534302 C39.47893328 15.25882087 38.36847619 17.0688894 37.2578125 18.87890625 C36.49321672 20.1311811 35.72889604 21.38362395 34.96484375 22.63623047 C29.65437324 31.33307581 24.3050728 40.00620693 18.91870117 48.65625 C18.42217041 49.45417969 17.92563965 50.25210938 17.4140625 51.07421875 C16.98287109 51.76531738 16.55167969 52.45641602 16.10742188 53.16845703 C15.0261825 54.89939223 15.0261825 54.89939223 14.0703125 56.87890625 C-6.0596875 56.87890625 -26.1896875 56.87890625 -46.9296875 56.87890625 C-45.80558913 51.2584144 -45.80558913 51.2584144 -43.69921875 48.04296875 C-43.23273926 47.31964355 -42.76625977 46.59631836 -42.28564453 45.85107422 C-41.77630371 45.07650879 -41.26696289 44.30194336 -40.7421875 43.50390625 C-39.65044473 41.8124221 -38.56068909 40.11965416 -37.47265625 38.42578125 C-36.89692871 37.53052734 -36.32120117 36.63527344 -35.72802734 35.71289062 C-31.99578064 29.83128328 -28.42045548 23.85253152 -24.82739258 17.88525391 C-24.27591553 16.97308105 -23.72443848 16.0609082 -23.15625 15.12109375 C-22.43816162 13.92782471 -22.43816162 13.92782471 -21.70556641 12.71044922 C-21.11952637 11.77604004 -20.53348633 10.84163086 -19.9296875 9.87890625 C-19.58410797 9.1201973 -19.23852844 8.36148834 -18.88247681 7.57978821 C-14.49081717 -0.88163887 -8.85942905 -0.3157554 0 0 Z " fill="#E61C29" transform="translate(994.9296875,165.12109375)"/>
</svg>
