<?xml version="1.0" encoding="UTF-8"?>
<svg version="1.1" xmlns="http://www.w3.org/2000/svg" width="451" height="142">
<path d="M0 0 C1.72791527 -0.00065712 1.72791527 -0.00065712 3.49073792 -0.00132751 C7.28379489 0.00075611 11.07640536 0.02406796 14.86938477 0.04760742 C17.50496682 0.05320487 20.14055201 0.05747426 22.77613831 0.06047058 C28.99502546 0.06977386 35.21375333 0.09436413 41.43257052 0.12451905 C48.51600964 0.15811679 55.59945659 0.17456253 62.68295562 0.18960536 C77.2464827 0.2209154 91.80988463 0.27364223 106.37329102 0.34057617 C106.49047764 14.86659701 106.57811786 29.39254376 106.63235188 43.9189415 C106.65805255 50.66495384 106.69304522 57.41067122 106.75048828 64.15649414 C106.80501899 70.67285524 106.83475631 77.18891073 106.84767723 83.70548248 C106.85687924 86.18526262 106.87484834 88.665027 106.9019413 91.14467621 C107.16367978 116.10419512 107.16367978 116.10419512 101.37329102 125.34057617 C100.90655472 126.10948181 100.43981842 126.87838745 99.9589386 127.67059326 C95.48559889 134.63625823 88.12512015 139.64694816 80.37329102 142.34057617 C77.93081951 142.58667183 77.93081951 142.58667183 75.33024597 142.58108521 C73.84325195 142.5852092 73.84325195 142.5852092 72.32621765 142.5894165 C71.25015762 142.58222595 70.1740976 142.5750354 69.06542969 142.56762695 C67.9235318 142.56791901 66.78163391 142.56821106 65.60513306 142.56851196 C61.83376445 142.56711951 58.06259383 142.551562 54.29125977 142.53588867 C51.67523812 142.53215825 49.05921507 142.52931141 46.44319153 142.52731323 C40.26323769 142.52110326 34.08335482 142.50469901 27.90343219 142.48461425 C20.86597526 142.4622402 13.8285149 142.45125804 6.79103124 142.44122338 C-7.6815854 142.42033233 -22.1541462 142.38516576 -36.62670898 142.34057617 C-36.79080781 127.3104024 -36.9139507 112.28029849 -36.98939419 97.2494173 C-37.02536774 90.26899947 -37.07434119 83.28914077 -37.15478516 76.30908203 C-37.2324632 69.56575967 -37.27276582 62.82301698 -37.29084969 56.07927513 C-37.30372758 53.51375406 -37.32887496 50.94826267 -37.36681938 48.38298988 C-37.74210412 21.94657283 -37.74210412 21.94657283 -28.1436615 10.58512878 C-26.78295898 9.20776367 -26.78295898 9.20776367 -24.12670898 7.21557617 C-23.25014648 6.53237305 -22.37358398 5.84916992 -21.47045898 5.14526367 C-14.1223931 0.48206801 -8.58834329 -0.08591231 0 0 Z " fill="#E7741E" transform="translate(36.626708984375,-0.340576171875)"/>
<path d="M0 0 C3.125 0.375 3.125 0.375 6 1 C6.2165625 2.1446875 6.2165625 2.1446875 6.4375 3.3125 C6.9632594 6.08172908 6.9632594 6.08172908 8 9 C11.42944358 8.39254251 13.42812716 7.10627797 16.125 4.9375 C19.78823529 2 19.78823529 2 22 2 C23.28751357 5.78834888 24.56909069 9.57864846 25.84521484 13.37084961 C26.28011228 14.66046159 26.71662422 15.94953029 27.15478516 17.23803711 C27.78452574 19.0908453 28.40797257 20.94578889 29.03125 22.80078125 C29.40830078 23.91622314 29.78535156 25.03166504 30.17382812 26.1809082 C31 29 31 29 31 32 C35.15197686 31.76056084 37.4229931 31.48211002 40.66015625 28.77734375 C41.84931641 27.37162109 41.84931641 27.37162109 43.0625 25.9375 C43.90683594 24.95007813 44.75117187 23.96265625 45.62109375 22.9453125 C48.51336513 19.36440508 51.34767074 15.76285737 54 12 C56.8605891 13.35937085 58.85927699 14.64520469 61 17 C59.1695027 21.52862915 55.77099772 24.38486887 52.29150391 27.69848633 C49.37093924 30.51780601 47.0967835 33.30966655 44.875 36.6875 C43.09110397 38.86093164 41.84254406 39.85729239 39.04833984 40.33056641 C33.95254229 40.68690817 29.14589241 40.31912511 24 40 C22.02 33.07 20.04 26.14 18 19 C15.99301585 18.90421737 15.99301585 18.90421737 14.125 19.5625 C12 20 12 20 10.0546875 19.33984375 C9.37664062 19.22769531 8.69859375 19.11554688 8 19 C6.35444301 20.22809091 6.35444301 20.22809091 5 22 C3.5625 23.75 3.5625 23.75 2 25 C-0.86472539 24.69306514 -2.84495483 23.60769954 -5.5 22.375 C-8.70290745 20.87049812 -8.70290745 20.87049812 -11.125 21 C-13.28601722 21.99710446 -13.28601722 21.99710446 -15.1875 24.6875 C-18 27 -18 27 -20.3203125 26.8828125 C-22.59730935 26.36174426 -24.7905246 25.75574649 -27 25 C-27.103125 25.66 -27.20625 26.32 -27.3125 27 C-28.19213564 30.83841009 -29.56969896 34.33096691 -31 38 C-41.19992418 39.20158841 -46.8778174 36.50723746 -55.0625 30.625 C-56.08021484 29.92632812 -57.09792969 29.22765625 -58.14648438 28.5078125 C-60.78115747 26.69440415 -63.39124288 24.85032217 -66 23 C-66.99 22.34 -67.98 21.68 -69 21 C-68.25 16.25 -68.25 16.25 -66 14 C-59.96199657 14.07488996 -55.30919133 17.46451958 -50.3125 20.5 C-48.62248128 21.51273574 -46.93113074 22.52325321 -45.23828125 23.53125 C-44.49618408 23.98048828 -43.75408691 24.42972656 -42.98950195 24.89257812 C-40.89950681 26.13632946 -40.89950681 26.13632946 -38 27 C-36.35 21.72 -34.7 16.44 -33 11 C-27 13 -27 13 -21 15 C-20.54109375 14.48308594 -20.0821875 13.96617188 -19.609375 13.43359375 C-18.99578125 12.77488281 -18.3821875 12.11617187 -17.75 11.4375 C-17.14671875 10.77621094 -16.5434375 10.11492188 -15.921875 9.43359375 C-14 8 -14 8 -11.984375 8.15234375 C-10.00924702 8.99604999 -8.29929028 9.95546132 -6.5 11.125 C-3.32056813 13.21798668 -3.32056813 13.21798668 -0.6875 12.875 C1.19447261 12.00702329 1.19447261 12.00702329 3 10 C1.7625 9.4121875 1.7625 9.4121875 0.5 8.8125 C-2 7 -2 7 -2.4375 4.4375 C-2 2 -2 2 0 0 Z " fill="#FEFAF7" transform="translate(75,51)"/>
<path d="M0 0 C1.1446875 0.2475 1.1446875 0.2475 2.3125 0.5 C5.70452174 1.13107381 7.70543302 1.09818899 11 0 C18.28225827 -0.72129034 22.92674033 0.49850957 28.6875 5.1875 C33.01491719 10.45057496 34.57004741 15.91240011 34.27734375 22.703125 C33.4137751 29.85493299 31.42144866 34.40411948 25.71875 38.90625 C22.32129575 41.06826634 19.35359809 41.13542902 15.4375 41.125 C14.46683594 41.12757812 13.49617188 41.13015625 12.49609375 41.1328125 C10 41 10 41 8 40 C7.95101562 40.98742188 7.90203125 41.97484375 7.8515625 42.9921875 C7.77679688 44.27351563 7.70203125 45.55484375 7.625 46.875 C7.55539063 48.15117188 7.48578125 49.42734375 7.4140625 50.7421875 C7 54 7 54 5 56 C2 56.3125 2 56.3125 -1 56 C-3.14206578 52.78690132 -3.25464818 51.92403931 -3.2746582 48.22485352 C-3.28419022 47.25697403 -3.29372223 46.28909454 -3.30354309 45.29188538 C-3.30263168 44.24810226 -3.30172028 43.20431915 -3.30078125 42.12890625 C-3.30506638 41.05503159 -3.3093515 39.98115692 -3.31376648 38.8747406 C-3.319512 36.60261745 -3.32000842 34.33047589 -3.31567383 32.05834961 C-3.31251552 28.57959642 -3.33596529 25.10169477 -3.36132812 21.62304688 C-3.36360123 19.41666774 -3.36430456 17.21028632 -3.36328125 15.00390625 C-3.372491 13.96214737 -3.38170074 12.92038849 -3.39118958 11.84706116 C-3.38496078 10.87602951 -3.37873199 9.90499786 -3.37231445 8.90454102 C-3.37294388 8.05199234 -3.3735733 7.19944366 -3.3742218 6.32106018 C-2.92208505 3.51674306 -1.84605741 2.11699842 0 0 Z M9.0625 11.8125 C6.05994622 16.45281038 6.10289925 20.61739552 7 26 C8.80118478 29.00197464 9.90332732 30.45166366 13 32 C16.77938109 32.50391748 18.5610671 32.25763453 21.875 30.3125 C25.09473514 25.2935011 25.25846466 19.79634019 24 14 C21.09889982 11.04029173 19.61967335 10.09959036 15.5 9.4375 C11.93481742 9.78104094 11.93481742 9.78104094 9.0625 11.8125 Z " fill="#9DA199" transform="translate(202,19)"/>
<path d="M0 0 C0.825 0.226875 1.65 0.45375 2.5 0.6875 C5.55270463 0.84561388 5.55270463 0.84561388 8.5 -0.3125 C14.78003424 -0.84470629 19.34234045 -0.10360018 24.5 3.6875 C30.26837194 9.96988528 30.90819693 15.77959592 30.84765625 24.16015625 C30.22153838 30.51279038 27.41539744 33.95027906 22.8125 38.125 C19.09172214 40.63903909 16.99036018 40.82329414 12.5 40.8125 C10.89125 40.81636719 10.89125 40.81636719 9.25 40.8203125 C6.5 40.6875 6.5 40.6875 4.5 39.6875 C4.43941406 40.67492188 4.37882812 41.66234375 4.31640625 42.6796875 C4.23261719 43.96101563 4.14882813 45.24234375 4.0625 46.5625 C3.98128906 47.83867188 3.90007812 49.11484375 3.81640625 50.4296875 C3.5 53.6875 3.5 53.6875 2.5 55.6875 C0.19 55.6875 -2.12 55.6875 -4.5 55.6875 C-5.73111907 53.22526185 -5.64006703 51.58002094 -5.66113281 48.82641602 C-5.67074036 47.8151918 -5.6803479 46.80396759 -5.69024658 45.76210022 C-5.69449646 44.66627121 -5.69874634 43.5704422 -5.703125 42.44140625 C-5.71167511 40.75832619 -5.71167511 40.75832619 -5.72039795 39.04124451 C-5.72985588 36.66479437 -5.73638507 34.28833107 -5.74023438 31.91186523 C-5.7499507 28.26848624 -5.78097167 24.62566863 -5.8125 20.98242188 C-5.81902874 18.67708669 -5.82427972 16.37174747 -5.828125 14.06640625 C-5.8404718 12.97260147 -5.8528186 11.87879669 -5.86553955 10.75184631 C-5.86253845 9.73746994 -5.85953735 8.72309357 -5.85644531 7.67797852 C-5.86009094 6.78466324 -5.86373657 5.89134796 -5.86749268 4.97096252 C-5.5 2.6875 -5.5 2.6875 -4.13397217 0.85606384 C-2.5 -0.3125 -2.5 -0.3125 0 0 Z M4.5 13.6875 C2.77679812 17.13390377 3.1276488 20.9117282 3.5 24.6875 C5.12400184 28.32217079 6.16113044 29.46158696 9.5 31.6875 C13.35833276 32.19076079 15.00857943 32.00419325 18.3125 29.875 C21.25663248 26.93086752 21.69443202 24.3961101 21.875 20.375 C21.82051711 17.04064707 21.44349746 14.86415749 19.5 12.125 C16.57251754 9.7464205 15.95214845 9.26615253 12.4375 9.0625 C8.20490318 9.73434077 6.98870441 10.30286201 4.5 13.6875 Z " fill="#9DA199" transform="translate(295.5,19.3125)"/>
<path d="M0 0 C3.82228384 1.91114192 7.09918638 4.07957191 9 8 C8.1875 10.75 8.1875 10.75 7 13 C4.125 13.125 4.125 13.125 1 13 C0.34 12.34 -0.32 11.68 -1 11 C-4.33635192 9.9872962 -4.33635192 9.9872962 -8 10 C-10.81969244 11.48555973 -10.81969244 11.48555973 -13 14 C-13.71496769 17.16075506 -13.71496769 17.16075506 -13.5 20.5625 C-13.4896875 21.69816406 -13.479375 22.83382812 -13.46875 24.00390625 C-13.24289829 26.97557489 -13.24289829 26.97557489 -11.6171875 28.8515625 C-9.38133471 30.43934202 -7.73339163 30.80475774 -5 31 C-1.87927975 30.03406278 0.26495897 28.82336069 3 27 C5.6875 27.375 5.6875 27.375 8 28 C8.75 30.1875 8.75 30.1875 9 33 C6.46475761 37.25920721 3.63545981 39.33823139 -1 41 C-6.61609721 41.85439698 -11.24750706 41.12153297 -16.20703125 38.33984375 C-20.3862329 35.21682378 -23.06194105 31.12616054 -24 26 C-24.66299211 17.67434908 -23.80575557 12.25700846 -19.1875 5.25 C-13.69454451 -0.39989707 -7.54731701 -1.02203251 0 0 Z " fill="#9DA199" transform="translate(187,19)"/>
<path d="M0 0 C1.9375 1.1875 1.9375 1.1875 3 3 C2.9375 5.5625 2.9375 5.5625 2 8 C-0.0625 9.3125 -0.0625 9.3125 -2 10 C-2 12.31 -2 14.62 -2 17 C-1.360625 17.226875 -0.72125 17.45375 -0.0625 17.6875 C2 19 2 19 2.875 21.5 C2.91625 22.325 2.9575 23.15 3 24 C2.34 24.66 1.68 25.32 1 26 C0.01 26 -0.98 26 -2 26 C-1.98952637 26.86802246 -1.97905273 27.73604492 -1.96826172 28.63037109 C-1.93420284 31.84699528 -1.90911233 35.06352767 -1.89013672 38.28027344 C-1.88007123 39.67320781 -1.86641766 41.06612102 -1.84912109 42.45898438 C-1.8248978 44.4595436 -1.81459186 46.46025615 -1.8046875 48.4609375 C-1.79421387 49.66540527 -1.78374023 50.86987305 -1.77294922 52.11083984 C-2 55 -2 55 -4 57 C-6.5 57.3125 -6.5 57.3125 -9 57 C-11.39112209 53.41331687 -11.23381027 51.83603431 -11.1953125 47.58203125 C-11.18564453 45.70161133 -11.18564453 45.70161133 -11.17578125 43.78320312 C-11.15902344 42.47287109 -11.14226562 41.16253906 -11.125 39.8125 C-11.11496639 38.47722013 -11.1058412 37.14193311 -11.09765625 35.80664062 C-11.07405292 32.53757985 -11.04112594 29.26887972 -11 26 C-12.65 25.67 -14.3 25.34 -16 25 C-15.67 22.69 -15.34 20.38 -15 18 C-13.68 17.67 -12.36 17.34 -11 17 C-11.08701172 15.78763672 -11.08701172 15.78763672 -11.17578125 14.55078125 C-11.54389122 5.83183363 -11.54389122 5.83183363 -8.875 1.75 C-5.52109747 -0.29150589 -3.85548465 -0.67051907 0 0 Z " fill="#9DA199" transform="translate(284,3)"/>
<path d="M0 0 C8.58 0 17.16 0 26 0 C27 4 27 4 26 6 C18.74 6 11.48 6 4 6 C4 9.3 4 12.6 4 16 C5.68029297 15.96519531 5.68029297 15.96519531 7.39453125 15.9296875 C8.86718084 15.91092763 10.33983763 15.89272766 11.8125 15.875 C12.55048828 15.85824219 13.28847656 15.84148437 14.04882812 15.82421875 C17.91246426 15.78925372 19.70903668 15.80602445 23 18 C22.67 19.32 22.34 20.64 22 22 C16.06 22 10.12 22 4 22 C4 25.63 4 29.26 4 33 C11.26 33 18.52 33 26 33 C26.33 34.32 26.66 35.64 27 37 C25 39 25 39 22.49389648 39.24291992 C21.46337158 39.23881104 20.43284668 39.23470215 19.37109375 39.23046875 C18.25412109 39.22853516 17.13714844 39.22660156 15.98632812 39.22460938 C14.2296582 39.20624023 14.2296582 39.20624023 12.4375 39.1875 C11.26251953 39.18685547 10.08753906 39.18621094 8.87695312 39.18554688 C0.14012141 39.14012141 0.14012141 39.14012141 -1 38 C-1.1009825 35.35711643 -1.13970742 32.74093041 -1.1328125 30.09765625 C-1.13376923 29.30475693 -1.13472595 28.5118576 -1.13571167 27.69493103 C-1.13639351 26.0144747 -1.13453896 24.33401575 -1.13037109 22.65356445 C-1.1250299 20.07692555 -1.13031228 17.50046152 -1.13671875 14.92382812 C-1.13605783 13.29427045 -1.13477638 11.66471288 -1.1328125 10.03515625 C-1.13483673 9.26115982 -1.13686096 8.48716339 -1.13894653 7.68971252 C-1.11495583 2.22991166 -1.11495583 2.22991166 0 0 Z " fill="#9DA199" transform="translate(265,89)"/>
<path d="M0 0 C1.18722656 -0.05607422 1.18722656 -0.05607422 2.3984375 -0.11328125 C4.625 0.3125 4.625 0.3125 6.3984375 1.85546875 C8.07191196 5.20774721 7.98705767 8.28161853 7.875 11.9375 C7.86984375 12.618125 7.8646875 13.29875 7.859375 14 C7.78029337 19.00191327 7.78029337 19.00191327 6.625 21.3125 C5.965 21.3125 5.305 21.3125 4.625 21.3125 C4.65980469 22.50488281 4.69460937 23.69726562 4.73046875 24.92578125 C4.75860753 26.49217342 4.7859076 28.05858081 4.8125 29.625 C4.85020508 30.80352539 4.85020508 30.80352539 4.88867188 32.00585938 C4.90317383 33.1418457 4.90317383 33.1418457 4.91796875 34.30078125 C4.94153442 35.34552612 4.94153442 35.34552612 4.96557617 36.41137695 C4.51824338 38.90842387 3.62872777 39.80218088 1.625 41.3125 C-1.71692692 41.06796876 -2.98043557 40.70706443 -5.375 38.3125 C-5.63125507 35.49951824 -5.79541489 32.75574908 -5.875 29.9375 C-6.02894529 23.36333486 -6.02894529 23.36333486 -8.375 17.3125 C-8.94724001 12.32583704 -9.05078873 7.78160593 -6.9375 3.1875 C-4.51438622 0.27976346 -3.81617865 0.11732588 0 0 Z " fill="#9DA199" transform="translate(246.375,18.6875)"/>
<path d="M0 0 C2.84253966 0.406059 2.84253966 0.406059 6.62109375 0.32421875 C7.90715036 2.89633197 7.83153316 4.89328841 7.9375 7.76953125 C7.97939453 8.84589844 8.02128906 9.92226562 8.06445312 11.03125 C8.10376953 12.15917969 8.14308594 13.28710938 8.18359375 14.44921875 C8.22677734 15.58488281 8.26996094 16.72054687 8.31445312 17.890625 C8.42075415 20.70169643 8.5227878 23.5128582 8.62109375 26.32421875 C7.96109375 26.65421875 7.30109375 26.98421875 6.62109375 27.32421875 C5.63109375 26.99421875 4.64109375 26.66421875 3.62109375 26.32421875 C3.62109375 25.66421875 3.62109375 25.00421875 3.62109375 24.32421875 C2.79609375 24.83984375 1.97109375 25.35546875 1.12109375 25.88671875 C-3.13778465 27.63590095 -6.03807724 27.90348656 -10.37890625 26.32421875 C-13.85733968 23.80742567 -16.01713762 21.40952464 -17.37890625 17.32421875 C-17.91522388 10.88840724 -17.19111438 7.57888401 -13.37890625 2.32421875 C-9.31782934 -1.61379522 -5.23602402 -0.67538174 0 0 Z M-10.37890625 7.32421875 C-12.1772537 10.92091365 -11.72538038 14.86132796 -10.81640625 18.69921875 C-9.33688921 20.66090917 -9.33688921 20.66090917 -6.00390625 21.32421875 C-2.43869297 21.62105863 -2.43869297 21.62105863 0.05859375 19.94921875 C2.27587905 16.22417944 2.48798965 12.56497979 1.62109375 8.32421875 C0.08218236 6.44427436 -1.05417178 5.4757615 -3.25390625 4.44921875 C-6.35158913 4.26700211 -7.92338532 5.53235213 -10.37890625 7.32421875 Z " fill="#9DA199" transform="translate(359.37890625,100.67578125)"/>
<path d="M0 0 C2.75119142 1.9291891 4.50695923 3.99103662 6 7 C6.46486992 9.86919713 6.30837077 12.07047764 6 15 C2.81175432 16.59412284 -0.62896662 16.10174735 -4.125 16.0625 C-4.87910156 16.05798828 -5.63320313 16.05347656 -6.41015625 16.04882812 C-8.27347127 16.03703499 -10.13674555 16.01909942 -12 16 C-10.69356281 18.03744631 -10.69356281 18.03744631 -9 20 C-4.92967115 20.51961645 -2.54859836 19.90103484 1 18 C1.66 18.33 2.32 18.66 3 19 C2.73852205 22.22489472 2.39459008 23.6300718 0 25.875 C-4.22011563 27.45754336 -7.71450143 27.42849952 -12 26 C-14.72360009 23.79028672 -16.43101059 21.13797881 -18 18 C-18.52071898 12.34218796 -18.74744693 7.58021291 -15 3 C-10.89169694 -1.79302024 -5.74970734 -1.73077925 0 0 Z M-11.375 6.9375 C-13.10314537 8.69329129 -13.10314537 8.69329129 -13 10 C-8.71 10 -4.42 10 0 10 C-0.33 8.68 -0.66 7.36 -1 6 C-4.877135 4.0614325 -8.02545958 4.20498019 -11.375 6.9375 Z " fill="#9DA199" transform="translate(418,101)"/>
<path d="M0 0 C1.64453125 1.046875 1.64453125 1.046875 4.14453125 3.109375 C4.14453125 3.769375 4.14453125 4.429375 4.14453125 5.109375 C3.48453125 5.109375 2.82453125 5.109375 2.14453125 5.109375 C2.14453125 5.769375 2.14453125 6.429375 2.14453125 7.109375 C-2.60546875 6.234375 -2.60546875 6.234375 -4.85546875 5.109375 C-6.85506887 5.069383 -8.85594117 5.06590701 -10.85546875 5.109375 C-11.18546875 6.429375 -11.51546875 7.749375 -11.85546875 9.109375 C-11.11941406 9.21894531 -10.38335937 9.32851562 -9.625 9.44140625 C1.46312421 11.24304334 1.46312421 11.24304334 4.14453125 14.109375 C4.54536323 17.15353142 4.43231862 20.0588289 4.14453125 23.109375 C-0.76179128 26.313504 -3.83096379 27.9403412 -9.85546875 27.109375 C-12.95458039 25.95898476 -15.90934142 24.60582063 -18.85546875 23.109375 C-18.52546875 21.459375 -18.19546875 19.809375 -17.85546875 18.109375 C-16.89640625 18.3259375 -16.89640625 18.3259375 -15.91796875 18.546875 C-11.30173353 19.39475494 -6.55743413 20.109375 -1.85546875 20.109375 C-2.18546875 19.119375 -2.51546875 18.129375 -2.85546875 17.109375 C-5.25495715 16.26163676 -5.25495715 16.26163676 -8.10546875 15.734375 C-12.94784227 14.51747644 -16.01629199 13.46953931 -18.85546875 9.109375 C-18.98046875 6.046875 -18.98046875 6.046875 -17.85546875 3.109375 C-12.59472808 -2.01292513 -6.71521946 -3.22330534 0 0 Z " fill="#9DA199" transform="translate(446.85546875,100.890625)"/>
<path d="M0 0 C3 2.0625 3 2.0625 5 4 C4.34 5.32 3.68 6.64 3 8 C0.83125748 7.49396008 -0.99967627 7.00016187 -3 6 C-4.99960012 5.960008 -7.00047242 5.95653201 -9 6 C-9.33 6.99 -9.66 7.98 -10 9 C-9.09636719 9.24234375 -8.19273437 9.4846875 -7.26171875 9.734375 C-6.08222656 10.06953125 -4.90273437 10.4046875 -3.6875 10.75 C-2.51574219 11.07484375 -1.34398437 11.3996875 -0.13671875 11.734375 C3.16985795 13.06853546 4.35748163 13.88159556 6 17 C5.92269551 20.71061546 5.45702271 22.45452128 3.0625 25.3125 C-0.66904906 28.36558559 -3.20166319 28.31464504 -8 28 C-11.49527195 26.91913277 -14.37963595 25.62036405 -17 23 C-16.625 20.875 -16.625 20.875 -16 19 C-15.0409375 19.2165625 -15.0409375 19.2165625 -14.0625 19.4375 C-9.44626478 20.28537994 -4.70196538 21 0 21 C0 20.01 0 19.02 0 18 C-0.90363281 17.81824219 -1.80726563 17.63648437 -2.73828125 17.44921875 C-3.91777344 17.19785156 -5.09726563 16.94648437 -6.3125 16.6875 C-7.48425781 16.44386719 -8.65601563 16.20023438 -9.86328125 15.94921875 C-12.91196858 15.02663965 -14.23568917 14.60003701 -16 12 C-16.64383941 6.92976465 -16.64383941 6.92976465 -16 4 C-11.27279224 -0.9827325 -6.52255012 -1.70043135 0 0 Z " fill="#9DA199" transform="translate(235,100)"/>
<path d="M0 0 C1.423125 0.2784375 1.423125 0.2784375 2.875 0.5625 C5.89868793 1.28686632 5.89868793 1.28686632 8 0 C12.98109259 -0.37593152 16.05673864 -0.1765161 20 3 C23.7790677 7.64000638 23.35289067 12.12560526 23.1875 17.8125 C23.16719727 19.13797852 23.16719727 19.13797852 23.14648438 20.49023438 C23.11129217 22.66042023 23.05748985 24.83029033 23 27 C21.125 27.625 21.125 27.625 19 28 C16.6031335 25.6031335 16.71718867 24.92971686 16.5859375 21.6484375 C16.54726563 20.79765625 16.50859375 19.946875 16.46875 19.0703125 C16.4378125 18.18085937 16.406875 17.29140625 16.375 16.375 C16.33632813 15.4778125 16.29765625 14.580625 16.2578125 13.65625 C16.16340643 11.4377073 16.07783252 9.21917597 16 7 C11.9899066 6.82135369 11.9899066 6.82135369 8 7 C4.99844733 10.00155267 5.61256303 13.46759516 5.5 17.5 C5.27027027 25.72972973 5.27027027 25.72972973 3 28 C0.875 27.625 0.875 27.625 -1 27 C-1.02892385 22.87501462 -1.04677267 18.75005515 -1.0625 14.625 C-1.07087891 13.449375 -1.07925781 12.27375 -1.08789062 11.0625 C-1.09111328 9.94101563 -1.09433594 8.81953125 -1.09765625 7.6640625 C-1.10289307 6.62717285 -1.10812988 5.5902832 -1.11352539 4.52197266 C-1 2 -1 2 0 0 Z " fill="#9DA199" transform="translate(299,100)"/>
<path d="M0 0 C3.34860474 1.9860247 6.37655195 4.19091953 7.67578125 7.9609375 C8.65170008 14.09864388 8.56344882 18.77360839 5 24 C1.60651277 27.15109528 -0.93083061 28.34134409 -5.5 28.1875 C-9.84141883 27.42352782 -12.33889588 25.82916886 -14.96875 22.30078125 C-17.01140603 17.74349186 -16.8525628 12.85101622 -16 8 C-12.639997 1.38323432 -7.57514373 -1.7899678 0 0 Z M-7.875 5.6875 C-10.96407192 9.04913709 -10.56045384 11.97765831 -10.56640625 16.40625 C-10.21864189 19.11127397 -10.21864189 19.11127397 -8.16015625 20.85546875 C-5.10930301 22.47192444 -3.25645567 21.92030269 0 21 C2.64751415 18.35248585 2.71520084 16.70238904 3 13 C2.6039603 9.72757736 2.6039603 9.72757736 1 7 C-2.3891886 5.11711745 -4.10327489 4.78556574 -7.875 5.6875 Z " fill="#9DA199" transform="translate(206,100)"/>
<path d="M0 0 C3 1 3 1 4 3 C4.08573394 5.25120742 4.10712188 7.50499303 4.09765625 9.7578125 C4.0962413 10.42086395 4.09482635 11.08391541 4.09336853 11.76705933 C4.08776754 13.88641863 4.075215 16.00567259 4.0625 18.125 C4.05748512 19.56119639 4.05292219 20.99739444 4.04882812 22.43359375 C4.03864833 25.95580248 4.01907338 29.47778321 4 33 C9.61 33 15.22 33 21 33 C22 37 22 37 21 39 C13.74 39 6.48 39 -1 39 C-2.54971773 35.90056455 -2.16291442 32.62056402 -2.16796875 29.21875 C-2.17129715 28.44946167 -2.17462555 27.68017334 -2.17805481 26.88757324 C-2.18312004 25.26017862 -2.18546326 23.6327736 -2.18530273 22.00537109 C-2.1874913 19.50991825 -2.20565654 17.01490595 -2.22460938 14.51953125 C-2.22754291 12.94010568 -2.22952797 11.36067801 -2.23046875 9.78125 C-2.23765427 9.0322644 -2.24483978 8.28327881 -2.25224304 7.51159668 C-2.2288276 2.2288276 -2.2288276 2.2288276 0 0 Z " fill="#9DA199" transform="translate(165,89)"/>
<path d="M0 0 C2.9375 2.0625 2.9375 2.0625 5 4 C4.34 5.32 3.68 6.64 3 8 C-0.875 7.125 -0.875 7.125 -2 6 C-4.67058851 5.85884839 -7.32432238 5.95752893 -10 6 C-11.2250724 13.18995898 -11.2250724 13.18995898 -9 20 C-4.45194365 20.17835515 -1.1205746 19.99785435 3 18 C3.66 19.32 4.32 20.64 5 22 C1.59382482 25.49351301 -0.58667452 27.3711221 -5.5625 27.5625 C-8.66741389 27.36420298 -10.0717823 26.96098788 -12.875 25.4375 C-16.62260725 21.13877404 -18.32631209 17.1383642 -18 11.4375 C-17.2460817 6.63536819 -15.53918754 4.2978793 -12 1 C-7.85277649 -1.5101616 -4.63447215 -1.15861804 0 0 Z " fill="#9DA199" transform="translate(391,101)"/>
<path d="M0 0 C2.475 0.495 2.475 0.495 5 1 C5.02505615 1.94842773 5.0501123 2.89685547 5.07592773 3.87402344 C5.1711884 7.40018032 5.27041441 10.92617959 5.37231445 14.45214844 C5.41556707 15.97684386 5.45724885 17.50158469 5.49731445 19.02636719 C5.55525203 21.22084222 5.61887795 23.41509068 5.68359375 25.609375 C5.70030624 26.2886908 5.71701874 26.96800659 5.73423767 27.66790771 C5.83507472 30.90538552 6.03139176 33.89769604 7 37 C4.525 37.495 4.525 37.495 2 38 C-0.49336211 34.25995683 -0.25481228 31.37438391 -0.1953125 27.05078125 C-0.1924826 26.27816452 -0.18965271 25.50554779 -0.18673706 24.70951843 C-0.17554878 22.24368757 -0.15044703 19.77822094 -0.125 17.3125 C-0.11496843 15.63997921 -0.10584289 13.96745272 -0.09765625 12.29492188 C-0.07561392 8.19647441 -0.04109363 4.09829894 0 0 Z " fill="#9DA199" transform="translate(330,90)"/>
<path d="M0 0 C2.80722055 2.32598274 3.90580309 4.10512938 4.2890625 7.74609375 C4.31074931 10.52561966 4.28304235 13.23453699 4 16 C3 17 3 17 1.00390625 17.1328125 C0.19824219 17.13023438 -0.60742188 17.12765625 -1.4375 17.125 C-2.24058594 17.12757812 -3.04367187 17.13015625 -3.87109375 17.1328125 C-6 17 -6 17 -8 16 C-8.78195713 6.07783281 -8.78195713 6.07783281 -5.6875 1.8125 C-3 0 -3 0 0 0 Z " fill="#E7731D" transform="translate(263,4)"/>
<path d="M0 0 C3 0.25 3 0.25 5 2.25 C5.36796448 5.12012296 5.37509409 6.65774618 3.8125 9.125 C2 10.25 2 10.25 -0.5625 10.0625 C-3 9.25 -3 9.25 -5 7.25 C-5.25 4.75 -5.25 4.75 -5 2.25 C-3 0.25 -3 0.25 0 0 Z " fill="#9DA199" transform="translate(246,7.75)"/>
<path d="M0 0 C3.125 0.375 3.125 0.375 6 1 C6.59732819 3.76264289 7 6.16032769 7 9 C3.36442231 10.21185923 2.36216382 9.59260392 -1 8 C-2 7 -2 7 -2.1875 4.5625 C-2 2 -2 2 0 0 Z " fill="#FCEFE6" transform="translate(75,51)"/>
</svg>
