<?xml version="1.0" encoding="UTF-8"?>
<svg version="1.1" xmlns="http://www.w3.org/2000/svg" width="707" height="353">
<path d="M0 0 C6.67833442 2.89095685 10.11465657 6.91508924 13.125 13.4375 C14.75703728 18.21703774 15.13521979 23.03323427 15.31640625 28.0546875 C15.37924805 29.71757812 15.37924805 29.71757812 15.44335938 31.4140625 C15.48267578 32.55617187 15.52199219 33.69828125 15.5625 34.875 C15.60568359 36.0403125 15.64886719 37.205625 15.69335938 38.40625 C15.79901629 41.27072625 15.90111799 44.13528321 16 47 C16.78503906 46.27554688 17.57007813 45.55109375 18.37890625 44.8046875 C20.54166942 42.8100933 22.71541708 40.8282663 24.89453125 38.8515625 C26.67158324 37.23567386 28.38577233 35.60914216 30.07421875 33.8984375 C33.07567929 30.94595184 34.68924881 30.02466279 38.9375 29.6875 C43.91479653 30.77628362 47.97247011 33.97587673 51 38 C52.2409909 43.34915291 52.21838922 48.74791304 52.31640625 54.2109375 C52.33718735 55.17907379 52.35796844 56.14721008 52.37937927 57.14468384 C52.44448984 60.22138732 52.50357998 63.29817236 52.5625 66.375 C52.60572186 68.46745617 52.6493373 70.55990426 52.69335938 72.65234375 C52.80013156 77.76814669 52.90150636 82.88403125 53 88 C55.31 88 57.62 88 60 88 C59.97905273 87.11328613 59.95810547 86.22657227 59.93652344 85.31298828 C59.86775357 81.97677921 59.81791617 78.64133905 59.78027344 75.3046875 C59.76033811 73.86934413 59.73317926 72.43408003 59.69824219 70.99902344 C59.49641366 62.48660864 59.43229603 54.54036726 64 47 C64.98253467 45.98283451 65.9805881 44.98020375 67 44 C67.37125 43.2575 67.7425 42.515 68.125 41.75 C71.58072244 36.68160709 76.94320157 33.37119896 82 30 C89.03456233 29.31872482 94.85415253 31.20281639 101.5 33.375 C103.48900609 34.00962451 105.4785801 34.64247214 107.46875 35.2734375 C108.41032959 35.57475586 109.35190918 35.87607422 110.32202148 36.18652344 C112.72562812 36.91665538 115.12028016 37.53436094 117.56640625 38.1015625 C121.26959469 39.07054241 122.67281891 40.0212082 125 43 C125.33 43.66 125.66 44.32 126 45 C129.82227071 43.39914309 132.42864315 40.93771778 135.4375 38.125 C145.2022343 29.02573438 145.2022343 29.02573438 149.875 28.875 C154.62361197 29.74737758 157.88535208 32.40552795 161 36 C162.78910956 39.01669126 163.25606696 41.24553081 163.28710938 44.73681641 C163.30052368 45.67103424 163.31393799 46.60525208 163.32775879 47.56777954 C163.33567444 49.06950211 163.33567444 49.06950211 163.34375 50.6015625 C163.3583728 51.63437347 163.37299561 52.66718445 163.38806152 53.73129272 C163.45035973 58.1501645 163.49003649 62.56917478 163.53173828 66.98828125 C163.56537581 70.21369347 163.61050119 73.4388031 163.65625 76.6640625 C163.66416565 78.17185776 163.66416565 78.17185776 163.67224121 79.71011353 C163.68565552 80.63802704 163.69906982 81.56594055 163.71289062 82.52197266 C163.72382751 83.74963852 163.72382751 83.74963852 163.73498535 85.00210571 C163.82447092 87.22979472 163.82447092 87.22979472 166 89 C167.32 88.34 168.64 87.68 170 87 C170.33 68.85 170.66 50.7 171 32 C180.24 32 189.48 32 199 32 C199.04898437 35.70734375 199.09796875 39.4146875 199.1484375 43.234375 C199.20243547 46.82198145 199.2597477 50.40952068 199.31738281 53.99707031 C199.35568354 56.49181112 199.39053446 58.98660736 199.421875 61.48144531 C199.46750124 65.06595685 199.5255006 68.6500864 199.5859375 72.234375 C199.60326431 73.90956207 199.60326431 73.90956207 199.62094116 75.61859131 C199.6507457 77.17975677 199.6507457 77.17975677 199.68115234 78.77246094 C199.70113785 80.14479889 199.70113785 80.14479889 199.7215271 81.54486084 C200.01782231 84.1571293 200.57656071 85.79841494 202 88 C204.17208588 88.91160093 204.17208588 88.91160093 206.625 89.25 C207.44226563 89.39953125 208.25953125 89.5490625 209.1015625 89.703125 C209.72804688 89.80109375 210.35453125 89.8990625 211 90 C206.89758092 96.04905716 202.3625106 102.21522681 196 106 C189.40841915 106.98772924 182.61019005 104.53753935 177.23828125 100.76171875 C175.5625 99.4375 175.5625 99.4375 173 97 C173 96.34 173 95.68 173 95 C168.54658831 98.05626292 164.77921681 101.11580495 161 105 C156.92724906 107.71516729 153.78250838 107.63457231 149 107 C144.33551888 105.41243976 139.88156146 103.05553094 137 99 C133.10427293 90.20119488 133.44889382 80.79696742 133.3125 71.375 C133.27926264 69.78252512 133.24476725 68.19007597 133.20898438 66.59765625 C133.12482145 62.73191463 133.05767154 58.86622385 133 55 C131.68 54.67 130.36 54.34 129 54 C129.09539062 54.72703125 129.19078125 55.4540625 129.2890625 56.203125 C130.85501542 70.40595381 127.80651539 82.09288998 120 94 C114.29014414 100.8598975 106.74745867 105.22395052 98 107 C86.1986702 107.98030216 78.10555147 105.51856198 69.03125 97.9375 C67 96 67 96 65 93 C64.34 93 63.68 93 63 93 C61.84570752 94.39194093 60.69582421 95.78781088 59.5703125 97.203125 C56.7046869 100.48219906 53.31427879 103.18905794 50 106 C49.67 106.33 49.34 106.66 49 107 C40.85742843 107.64623584 34.17917047 106.02989859 27.5 101.1875 C24.17492214 96.33842813 23.75622697 90.84934783 23.7265625 85.11328125 C23.695625 83.2115918 23.695625 83.2115918 23.6640625 81.27148438 C23.63790586 78.62050907 23.61974599 75.96944343 23.609375 73.31835938 C23.58617187 72.05443359 23.56296875 70.79050781 23.5390625 69.48828125 C23.53084473 68.33884033 23.52262695 67.18939941 23.51416016 66.00512695 C22.88919999 62.35240392 21.93961601 61.19774993 19 59 C17.68 58.67 16.36 58.34 15 58 C15 73.51 15 89.02 15 105 C5.43 105 -4.14 105 -14 105 C-14.33 101.04 -14.66 97.08 -15 93 C-15.66 93.845625 -16.32 94.69125 -17 95.5625 C-25.98343095 106.13124229 -25.98343095 106.13124229 -33 107.1875 C-40.95841206 107.44382922 -46.33279721 103.10048251 -52 98 C-52.54527344 98.58910156 -53.09054687 99.17820312 -53.65234375 99.78515625 C-59.6504616 105.76276771 -59.6504616 105.76276771 -63.35546875 106.4140625 C-68.2707643 105.92337895 -72.59278339 104.15672302 -77 102 C-77 101.34 -77 100.68 -77 100 C-77.7425 99.773125 -78.485 99.54625 -79.25 99.3125 C-82.5425747 97.7410439 -83.97497109 96.00004284 -86 93 C-86 92.34 -86 91.68 -86 91 C-90.63989391 93.05018568 -93.51542936 95.34949743 -97 99 C-98.36133796 100.26486519 -99.73723853 101.51418322 -101.125 102.75 C-101.78757812 103.34296875 -102.45015625 103.9359375 -103.1328125 104.546875 C-107.23101664 107.73627236 -112.04716037 107.57702986 -117 107 C-122.18368041 105.32667159 -126.32145921 102.84197758 -129 98 C-131.07655107 90.06730534 -131.29324716 82.15268633 -131.30859375 74 C-131.333718 71.54296601 -131.35911645 69.08593481 -131.38476562 66.62890625 C-131.41365858 62.79281134 -131.43770951 58.95676441 -131.45629883 55.12060547 C-131.47784893 51.39267503 -131.51723486 47.66525537 -131.55859375 43.9375 C-131.55876747 42.20790039 -131.55876747 42.20790039 -131.5589447 40.44335938 C-131.57895287 38.84524414 -131.57895287 38.84524414 -131.59936523 37.21484375 C-131.60443588 36.27761475 -131.60950653 35.34038574 -131.61473083 34.37475586 C-131.823142 31.96692662 -131.823142 31.96692662 -133.27503967 30.23657227 C-135.21532898 28.68542023 -135.21532898 28.68542023 -139 28 C-139 53.41 -139 78.82 -139 105 C-149.23 105 -159.46 105 -170 105 C-170.029729 101.75978027 -170.029729 101.75978027 -170.06005859 98.45410156 C-170.12696189 91.31741133 -170.20460147 84.180867 -170.28752708 77.04434586 C-170.33747549 72.71742205 -170.38380565 68.39052248 -170.421875 64.06347656 C-170.45874622 59.88772968 -170.50511114 55.71218631 -170.55806351 51.53661346 C-170.5765977 49.94345418 -170.59170928 48.35025128 -170.60334396 46.75702667 C-170.62022325 44.52563125 -170.64926172 42.29470093 -170.68115234 40.06347656 C-170.69447601 38.79328674 -170.70779968 37.52309692 -170.7215271 36.2144165 C-171.02419751 32.2632821 -171.02419751 32.2632821 -173 29 C-174.98 28.34 -176.96 27.68 -179 27 C-179 52.74 -179 78.48 -179 105 C-189.23 105 -199.46 105 -210 105 C-210.04898438 100.16085938 -210.09796875 95.32171875 -210.1484375 90.3359375 C-210.1838366 87.26430242 -210.21980385 84.19269494 -210.2578125 81.12109375 C-210.31804406 76.24922708 -210.37620816 71.3773989 -210.421875 66.50537109 C-210.45883801 62.57599569 -210.50522735 58.64683282 -210.55806351 54.71763992 C-210.57654908 53.22103237 -210.59167844 51.72437935 -210.60334396 50.22770309 C-210.62030698 48.12602883 -210.64936462 46.02483515 -210.68115234 43.92333984 C-210.69447601 42.72865082 -210.70779968 41.53396179 -210.7215271 40.30307007 C-211.16211186 35.07713123 -212.67601587 30.09958043 -216 26 C-218.63064216 24.6977019 -221.18015945 23.87831099 -224 23 C-223.04882866 21.8274869 -222.08882991 20.66212985 -221.125 19.5 C-220.59132812 18.8503125 -220.05765625 18.200625 -219.5078125 17.53125 C-219.01023438 17.0259375 -218.51265625 16.520625 -218 16 C-217.34 16 -216.68 16 -216 16 C-215.74605469 15.41734375 -215.49210938 14.8346875 -215.23046875 14.234375 C-212.82764302 9.8711486 -209.43069413 7.19743321 -205 5 C-198.14679327 3.82600313 -191.30170591 3.66405961 -185.1875 7.3125 C-182.76075375 9.09639956 -181.72665634 10.41001548 -180 13 C-180 13.99 -180 14.98 -180 16 C-178.59921896 15.11192313 -177.20462363 14.21408741 -175.8125 13.3125 C-175.03519531 12.81363281 -174.25789063 12.31476563 -173.45703125 11.80078125 C-170.85728441 10.03680818 -170.85728441 10.03680818 -168.6953125 7.328125 C-165.21599489 4.32280138 -162.45142256 4.28671993 -158.0625 4.4375 C-157.37220703 4.42654297 -156.68191406 4.41558594 -155.97070312 4.40429688 C-150.86040181 4.47695519 -147.9388291 5.83029137 -144 9 C-141.55136689 11.71335021 -140.1565211 13.53043669 -139 17 C-138.01 15.9790625 -138.01 15.9790625 -137 14.9375 C-136.53335938 14.48890625 -136.06671875 14.0403125 -135.5859375 13.578125 C-133.94810447 11.99558095 -133.94810447 11.99558095 -132.4140625 10.109375 C-129.27199337 6.73405183 -127.04292167 5.18142729 -122.4296875 4.37890625 C-115.6735396 4.15728311 -110.12313456 4.43966805 -104.515625 8.41796875 C-100.65260905 12.45024056 -99.62632 15.83864347 -99.63110352 21.36328125 C-99.62422012 22.62809326 -99.61733673 23.89290527 -99.61024475 25.19604492 C-99.6150117 26.20204239 -99.6150117 26.20204239 -99.61987495 27.22836304 C-99.62902176 29.33915579 -99.61872255 31.44906714 -99.60325623 33.55981445 C-99.56325043 39.55776688 -99.56195468 45.55564722 -99.56420898 51.55371094 C-99.56426015 55.22956284 -99.54506468 58.90493705 -99.51487541 62.58065796 C-99.50407334 64.65540711 -99.51616413 66.72923582 -99.52870178 68.80395508 C-99.51866623 70.06876709 -99.50863068 71.3335791 -99.49829102 72.63671875 C-99.49845718 73.74748779 -99.49862335 74.85825684 -99.49879456 76.00268555 C-98.88329055 79.70132066 -97.66587988 81.40095624 -95 84 C-94.01 84 -93.02 84 -92 84 C-92.04640625 82.68386719 -92.0928125 81.36773437 -92.140625 80.01171875 C-92.38115861 70.25106922 -92.47696478 61.92113128 -88 53 C-87.54625 51.88625 -87.0925 50.7725 -86.625 49.625 C-84.5019878 46.19551875 -82.26789606 44.36400991 -79 42 C-78.34 42 -77.68 42 -77 42 C-76.67 41.01 -76.34 40.02 -76 39 C-64.89314304 32.43909781 -54.0889679 32.24382567 -41.5625 32.625 C-32.8690625 32.810625 -32.8690625 32.810625 -24 33 C-23.67 51.15 -23.34 69.3 -23 88 C-18.18677916 86.30056375 -18.18677916 86.30056375 -15 83 C-14.5460714 80.70032116 -14.5460714 80.70032116 -14.61181641 78.10473633 C-14.59763168 76.61222099 -14.59763168 76.61222099 -14.5831604 75.08955383 C-14.58923309 74.01457138 -14.59530579 72.93958893 -14.6015625 71.83203125 C-14.59869232 70.72325119 -14.59582214 69.61447113 -14.59286499 68.47209167 C-14.59082172 66.12258393 -14.59636988 63.77305928 -14.60888672 61.42358398 C-14.62486013 57.84384541 -14.60908548 54.26524903 -14.58984375 50.68554688 C-14.59182762 48.40103919 -14.59567426 46.11653221 -14.6015625 43.83203125 C-14.59245346 42.2347393 -14.59245346 42.2347393 -14.5831604 40.60517883 C-14.64142983 34.37695872 -15.29085762 29.64275657 -18 24 C-21.14321752 21.43579623 -24.01429888 20.56938587 -28 20 C-26.90586922 13.6540415 -20.67656061 9.97969431 -16 6 C-15.00033203 5.11441406 -15.00033203 5.11441406 -13.98046875 4.2109375 C-9.47592002 0.46158925 -5.88361929 -1.61467748 0 0 Z M96 48 C89.48533028 60.40225893 84.34338014 71.29723765 88.375 85.5 C89.30077013 88.45498344 89.78397806 89.78397806 92 92 C98.63272105 80.51616258 102.45003734 71.53876965 101 58 C99.98195708 54.47871736 98.67987823 51.25476407 97 48 C96.67 48 96.34 48 96 48 Z M-59 54 C-59 54.66 -59 55.32 -59 56 C-59.928125 56.309375 -59.928125 56.309375 -60.875 56.625 C-63.22201338 57.88841815 -63.22201338 57.88841815 -64.3125 60.625 C-65.74456546 67.65513954 -64.20275414 72.36193118 -60.64453125 78.3359375 C-58.62897537 80.62643675 -58.62897537 80.62643675 -53 82 C-53 71.44 -53 60.88 -53 50 C-55.31579505 50 -57.36598215 52.57547162 -59 54 Z " fill="#D6070F" transform="translate(355,108)"/>
<path d="M0 0 C6.38694121 2.76481683 10.01413753 6.47934295 12.98071289 12.73632812 C15.18241912 19.78600691 14.82889485 27.23826503 14.875 34.5625 C14.90677562 36.24287913 14.94061337 37.9232206 14.9765625 39.60351562 C15.12365666 48.0122222 15.12365666 48.0122222 15 52 C14.67 52.33 14.34 52.66 14 53 C14.66 53.66 15.32 54.32 16 55 C15.01 55.33 14.02 55.66 13 56 C13 71.84 13 87.68 13 104 C4.75 104 -3.5 104 -12 104 C-12 99.71 -12 95.42 -12 91 C-13.32 90.34 -14.64 89.68 -16 89 C-15.125 85.125 -15.125 85.125 -14 84 C-13.89967815 82.54836176 -13.86918411 81.09181808 -13.8671875 79.63671875 C-13.86501221 78.70021484 -13.86283691 77.76371094 -13.8605957 76.79882812 C-13.86534912 75.77208984 -13.87010254 74.74535156 -13.875 73.6875 C-13.87910889 72.63111328 -13.88321777 71.57472656 -13.88745117 70.48632812 C-13.94504837 61.98919308 -14.08436884 53.4942333 -14.3125 45 C-14.33489746 43.82655029 -14.35729492 42.65310059 -14.38037109 41.4440918 C-14.5864035 34.98763282 -15.16482414 29.84280768 -18 24 C-21.14321752 21.43579623 -24.01429888 20.56938587 -28 20 C-26.90586922 13.6540415 -20.67656061 9.97969431 -16 6 C-15.00033203 5.11441406 -15.00033203 5.11441406 -13.98046875 4.2109375 C-9.47592002 0.46158925 -5.88361929 -1.61467748 0 0 Z " fill="#D6050D" transform="translate(355,108)"/>
<path d="M0 0 C1.27133789 0.00966797 1.27133789 0.00966797 2.56835938 0.01953125 C3.8899707 0.04466797 3.8899707 0.04466797 5.23828125 0.0703125 C6.57729492 0.08384766 6.57729492 0.08384766 7.94335938 0.09765625 C10.14610439 0.12121502 12.34830713 0.15410921 14.55078125 0.1953125 C15.05445882 1.65237976 15.55360681 3.11101346 16.05078125 4.5703125 C16.32921875 5.38242188 16.60765625 6.19453125 16.89453125 7.03125 C17.55078125 9.1953125 17.55078125 9.1953125 17.55078125 11.1953125 C18.54078125 11.5253125 19.53078125 11.8553125 20.55078125 12.1953125 C19.55078125 14.1953125 19.55078125 14.1953125 17.55078125 15.1953125 C17.55078125 16.1853125 17.55078125 17.1753125 17.55078125 18.1953125 C16.89078125 18.1953125 16.23078125 18.1953125 15.55078125 18.1953125 C15.55078125 19.1853125 15.55078125 20.1753125 15.55078125 21.1953125 C16.21078125 21.1953125 16.87078125 21.1953125 17.55078125 21.1953125 C18.04578125 19.7103125 18.04578125 19.7103125 18.55078125 18.1953125 C20.94767131 21.79064759 20.78520895 24.28062402 20.68603516 28.4206543 C20.67657364 29.15261017 20.66711212 29.88456604 20.65736389 30.63870239 C20.62369138 33.05756644 20.57557532 35.47591731 20.52734375 37.89453125 C20.50117605 39.57174845 20.47590909 41.24897993 20.45150757 42.92622375 C20.38486208 47.34048528 20.30596816 51.75444658 20.22454834 56.16845703 C20.14362287 60.67273435 20.07424612 65.17718777 20.00390625 69.68164062 C19.86418668 78.51974236 19.71153079 87.35757 19.55078125 96.1953125 C10.37550637 97.55461248 2.12141492 97.1953125 -7.44921875 97.1953125 C-7.44921875 74.0953125 -7.44921875 50.9953125 -7.44921875 27.1953125 C-8.43921875 26.8653125 -9.42921875 26.5353125 -10.44921875 26.1953125 C-12.45590277 21.62453224 -12.89515051 17.10277402 -13.44921875 12.1953125 C-13.75090941 10.85446514 -14.06439556 9.5147063 -14.44921875 8.1953125 C-12.46921875 7.8653125 -10.48921875 7.5353125 -8.44921875 7.1953125 C-8.29453125 6.0196875 -8.29453125 6.0196875 -8.13671875 4.8203125 C-6.95258934 0.29909111 -4.17720458 -0.05606986 0 0 Z " fill="#D8030B" transform="translate(194.44921875,114.8046875)"/>
<path d="M0 0 C0.33 0 0.66 0 1 0 C1.495 12.375 1.495 12.375 2 25 C3.835625 23.30875 5.67125 21.6175 7.5625 19.875 C8.67234269 18.8662687 9.78284968 17.85826688 10.89453125 16.8515625 C12.67158324 15.23567386 14.38577233 13.60914216 16.07421875 11.8984375 C19.07567929 8.94595184 20.68924881 8.02466279 24.9375 7.6875 C29.91479653 8.77628362 33.97247011 11.97587673 37 16 C38.2409909 21.34915291 38.21838922 26.74791304 38.31640625 32.2109375 C38.33718735 33.17907379 38.35796844 34.14721008 38.37937927 35.14468384 C38.44448984 38.22138732 38.50357998 41.29817236 38.5625 44.375 C38.60572186 46.46745617 38.6493373 48.55990426 38.69335938 50.65234375 C38.80013156 55.76814669 38.90150636 60.88403125 39 66 C41.31 66 43.62 66 46 66 C46 60.72 46 55.44 46 50 C48 52 48 52 48.23046875 55.15234375 C48.21628906 56.40144531 48.20210938 57.65054688 48.1875 58.9375 C48.18105469 60.18402344 48.17460937 61.43054688 48.16796875 62.71484375 C48 66 48 66 47 69 C48.98 69.495 48.98 69.495 51 70 C49.81346715 71.1843988 48.62679665 72.36865999 47.43945312 73.55224609 C46.0863929 74.91310891 44.7533897 76.29383039 43.421875 77.67578125 C35.31525928 85.67573097 35.31525928 85.67573097 30.4375 85.875 C24.33146506 85.10625459 18.46929962 82.79024223 13.5 79.1875 C10.17492214 74.33842813 9.75622697 68.84934783 9.7265625 63.11328125 C9.7059375 61.84548828 9.6853125 60.57769531 9.6640625 59.27148438 C9.63790586 56.62050907 9.61974599 53.96944343 9.609375 51.31835938 C9.58617187 50.05443359 9.56296875 48.79050781 9.5390625 47.48828125 C9.53084473 46.33884033 9.52262695 45.18939941 9.51416016 44.00512695 C8.88919999 40.35240392 7.93961601 39.19774993 5 37 C3.68 36.67 2.36 36.34 1 36 C1 51.51 1 67.02 1 83 C-8.57 83 -18.14 83 -28 83 C-28.33 79.04 -28.66 75.08 -29 71 C-29.721875 71.928125 -30.44375 72.85625 -31.1875 73.8125 C-33.48430257 76.58834996 -35.76885405 78.3382678 -39 80 C-38.690625 79.443125 -38.38125 78.88625 -38.0625 78.3125 C-36.47860666 74.86520273 -36 71.7792414 -36 68 C-36.66 68 -37.32 68 -38 68 C-38 67.34 -38 66.68 -38 66 C-36.6078125 65.5978125 -36.6078125 65.5978125 -35.1875 65.1875 C-32.09429458 64.03512935 -30.93507587 63.55327926 -29 61 C-28.4959183 58.49126841 -28.4959183 58.49126841 -28.48828125 55.67578125 C-28.45283203 54.64775391 -28.41738281 53.61972656 -28.38085938 52.56054688 C-28.34702148 50.95276367 -28.34702148 50.95276367 -28.3125 49.3125 C-28.27833984 48.22904297 -28.24417969 47.14558594 -28.20898438 46.02929688 C-28.1264544 43.3529678 -28.05732063 40.67696841 -28 38 C-27.67 38 -27.34 38 -27 38 C-26.94214353 41.95827235 -26.90645283 45.9164367 -26.875 49.875 C-26.85824219 51.00292969 -26.84148437 52.13085938 -26.82421875 53.29296875 C-26.81777344 54.36933594 -26.81132812 55.44570312 -26.8046875 56.5546875 C-26.79421387 57.54968262 -26.78374023 58.54467773 -26.77294922 59.56982422 C-27 62 -27 62 -29 64 C-29 64.99 -29 65.98 -29 67 C-27.68 67.66 -26.36 68.32 -25 69 C-25.33 73.29 -25.66 77.58 -26 82 C-17.75 82 -9.5 82 -1 82 C-1 66.16 -1 50.32 -1 34 C-0.34 33.67 0.32 33.34 1 33 C0.34 32.34 -0.32 31.68 -1 31 C-0.505 29.515 -0.505 29.515 0 28 C0.0833804 25.86205475 0.10733747 23.72157991 0.09765625 21.58203125 C0.09443359 20.32841797 0.09121094 19.07480469 0.08789062 17.78320312 C0.07951172 16.47287109 0.07113281 15.16253906 0.0625 13.8125 C0.05748317 12.47721519 0.05292059 11.14192859 0.04882812 9.80664062 C0.03702695 6.53771527 0.02056297 3.26888009 0 0 Z " fill="#D40C13" transform="translate(369,130)"/>
<path d="M0 0 C0.66 0 1.32 0 2 0 C2.83764268 1.95649397 3.66999059 3.91525556 4.5 5.875 C4.9640625 6.96554688 5.428125 8.05609375 5.90625 9.1796875 C7 12 7 12 7 14 C11.95 14 16.9 14 22 14 C20.79216249 17.62351253 19.70346858 18.15215236 16.5625 20.1875 C15.75941406 20.71730469 14.95632813 21.24710938 14.12890625 21.79296875 C12 23 12 23 10 23 C10.28875 23.81984375 10.5775 24.6396875 10.875 25.484375 C11.24625 26.56203125 11.6175 27.6396875 12 28.75 C12.37125 29.81734375 12.7425 30.8846875 13.125 31.984375 C14 35 14 35 14 39 C12.125 38.75 12.125 38.75 10 38 C9.71125 37.34773438 9.4225 36.69546875 9.125 36.0234375 C8.18741278 33.8549577 8.18741278 33.8549577 6.1171875 33.1796875 C2.4600223 32.6827208 0.02450333 32.41885932 -3.265625 34.28515625 C-4.63921984 35.36113888 -5.97862248 36.48274746 -7.2734375 37.65234375 C-9 39 -9 39 -12 39 C-10.68 33.72 -9.36 28.44 -8 23 C-10.475 22.01 -10.475 22.01 -13 21 C-15.23308016 19.4886746 -17.00994096 17.85121771 -19 16 C-19 15.34 -19 14.68 -19 14 C-14.05 13.67 -9.1 13.34 -4 13 C-3.2884375 10.0609375 -3.2884375 10.0609375 -2.5625 7.0625 C-1.125 1.125 -1.125 1.125 0 0 Z " fill="#D5040B" transform="translate(407,226)"/>
<path d="M0 0 C0.99 0.33 1.98 0.66 3 1 C4.16796875 3.43359375 4.16796875 3.43359375 5.1875 6.4375 C5.53167969 7.42621094 5.87585938 8.41492188 6.23046875 9.43359375 C7 12 7 12 7 14 C11.62 14 16.24 14 21 14 C18.72382466 18.55235069 17.1643382 20.22377454 13 23 C12.01 23 11.02 23 10 23 C10.3609375 23.98742187 10.721875 24.97484375 11.09375 25.9921875 C11.56266681 27.28639791 12.03140769 28.58067206 12.5 29.875 C12.73847656 30.52597656 12.97695313 31.17695313 13.22265625 31.84765625 C15 36.7734375 15 36.7734375 15 39 C12.6875 38.75 12.6875 38.75 10 38 C9.525625 37.360625 9.05125 36.72125 8.5625 36.0625 C6.33960788 33.1282824 4.60666013 32.56575061 1 32 C-2.25688994 33.78208561 -2.25688994 33.78208561 -5 36 C-5.66 36 -6.32 36 -7 36 C-7.33 36.99 -7.66 37.98 -8 39 C-8.99 39 -9.98 39 -11 39 C-10.30834212 33.58201328 -9.24200752 28.3177215 -8 23 C-8.721875 22.7525 -9.44375 22.505 -10.1875 22.25 C-13.29567538 20.86858872 -15.52723148 19.33146746 -18 17 C-18 16.01 -18 15.02 -18 14 C-13.38 13.67 -8.76 13.34 -4 13 C-2.68 8.71 -1.36 4.42 0 0 Z " fill="#D50D13" transform="translate(467,226)"/>
<path d="M0 0 C0.99 0 1.98 0 3 0 C4.32 4.29 5.64 8.58 7 13 C11.95 13.33 16.9 13.66 22 14 C21.67 14.99 21.34 15.98 21 17 C20.34 17 19.68 17 19 17 C18.505 18.485 18.505 18.485 18 20 C15.07920195 22.07530387 13.62453269 23 10 23 C10.3609375 23.98742187 10.721875 24.97484375 11.09375 25.9921875 C11.56266681 27.28639791 12.03140769 28.58067206 12.5 29.875 C12.73847656 30.52597656 12.97695312 31.17695313 13.22265625 31.84765625 C15 36.7734375 15 36.7734375 15 39 C11.32264776 38.68479838 10.16827983 38.17690956 7.5625 35.4375 C5.20993441 32.72800165 5.20993441 32.72800165 1.9375 32.5625 C-0.92866527 32.98937568 -2.63003953 33.3655445 -5 35 C-5.515625 35.70125 -6.03125 36.4025 -6.5625 37.125 C-7.2740625 38.053125 -7.2740625 38.053125 -8 39 C-8.99 39 -9.98 39 -11 39 C-9.84941444 33.60204011 -8.57578241 28.29012667 -7 23 C-7.886875 22.773125 -8.77375 22.54625 -9.6875 22.3125 C-13.4641247 20.81610154 -15.38617976 19.07508263 -18 16 C-18 15.34 -18 14.68 -18 14 C-13.38 14 -8.76 14 -4 14 C-1.59490912 7.10828759 -1.59490912 7.10828759 0 0 Z " fill="#D2060D" transform="translate(226,226)"/>
<path d="M0 0 C0.66 0 1.32 0 2 0 C2.67031719 1.9570868 3.33614683 3.91571113 4 5.875 C4.556875 7.51082031 4.556875 7.51082031 5.125 9.1796875 C6 12 6 12 6 14 C10.95 14 15.9 14 21 14 C19.16128937 17.67742126 18.63568217 18.5975402 15.5 20.75 C14.8915625 21.17796875 14.283125 21.6059375 13.65625 22.046875 C12 23 12 23 10 23 C10.28875 23.90363281 10.5775 24.80726563 10.875 25.73828125 C11.24625 26.91777344 11.6175 28.09726563 12 29.3125 C12.556875 31.07013672 12.556875 31.07013672 13.125 32.86328125 C14 36 14 36 14 39 C10.71649203 38.6211337 9.6807136 37.71541864 7.125 35.4375 C4.2363373 32.77995489 4.2363373 32.77995489 0.875 32.5 C-2.26618405 33.04629288 -3.61535551 33.95601901 -6 36 C-6.66 36 -7.32 36 -8 36 C-8.33 36.99 -8.66 37.98 -9 39 C-9.99 39 -10.98 39 -12 39 C-11.67 37.845 -11.34 36.69 -11 35.5 C-9.93809759 31.02257568 -9.24704199 27.59304385 -10 23 C-11.94938974 21.36320728 -13.85336709 20.28976653 -16.15234375 19.203125 C-18 18 -18 18 -19 14 C-14.38 13.67 -9.76 13.34 -5 13 C-3.11304374 8.71146306 -1.41807378 4.47238653 0 0 Z " fill="#D1141A" transform="translate(287,226)"/>
<path d="M0 0 C0.66 0 1.32 0 2 0 C4.475 6.435 4.475 6.435 7 13 C13.93 13.495 13.93 13.495 21 14 C18.67935928 18.64128144 17.78034825 20.37822009 12.890625 22.0859375 C11.93671875 22.38757813 10.9828125 22.68921875 10 23 C10.28875 23.98742187 10.5775 24.97484375 10.875 25.9921875 C11.25013927 27.28641797 11.62513165 28.58069103 12 29.875 C12.19078125 30.52597656 12.3815625 31.17695313 12.578125 31.84765625 C14 36.7734375 14 36.7734375 14 39 C10.94039311 37.95099192 9.03055902 37.02814646 6.625 34.8125 C4.06004122 32.68408518 4.06004122 32.68408518 0.5625 32.9375 C-3.77762286 34.23192261 -5.67676517 35.9859033 -9 39 C-9.66 39 -10.32 39 -11 39 C-10.85816304 37.24967156 -10.71136571 35.49974466 -10.5625 33.75 C-10.44068359 32.28820312 -10.44068359 32.28820312 -10.31640625 30.796875 C-10.04925416 28.43538247 -9.64628032 26.28098935 -9 24 C-9.63808594 23.52949219 -10.27617187 23.05898437 -10.93359375 22.57421875 C-11.75988281 21.95160156 -12.58617187 21.32898438 -13.4375 20.6875 C-14.26121094 20.07261719 -15.08492188 19.45773438 -15.93359375 18.82421875 C-18 17 -18 17 -19 14 C-14.05 14 -9.1 14 -4 14 C-3.525625 12.4325 -3.05125 10.865 -2.5625 9.25 C-2.29566406 8.36828125 -2.02882813 7.4865625 -1.75390625 6.578125 C-1.11531506 4.39434165 -0.53224167 2.21164502 0 0 Z " fill="#D7050D" transform="translate(347,226)"/>
<path d="M0 0 C1.8871875 0.061875 1.8871875 0.061875 3.8125 0.125 C3.8125 1.445 3.8125 2.765 3.8125 4.125 C2.8225 4.125 1.8325 4.125 0.8125 4.125 C0.4825 5.445 0.1525 6.765 -0.1875 8.125 C-0.8475 8.125 -1.5075 8.125 -2.1875 8.125 C-1.89875 9.02863281 -1.61 9.93226563 -1.3125 10.86328125 C-0.94125 12.04277344 -0.57 13.22226563 -0.1875 14.4375 C0.369375 16.19513672 0.369375 16.19513672 0.9375 17.98828125 C1.8125 21.125 1.8125 21.125 1.8125 24.125 C-2.07836767 23.54857516 -4.39367303 21.84331813 -7.1875 19.125 C-8 16.375 -8 16.375 -8.1875 14.125 C-10.4975 13.795 -12.8075 13.465 -15.1875 13.125 C-15.5175 11.475 -15.8475 9.825 -16.1875 8.125 C-14.5375 7.135 -12.8875 6.145 -11.1875 5.125 C-11.5175 4.135 -11.8475 3.145 -12.1875 2.125 C-11.424375 2.16625 -10.66125 2.2075 -9.875 2.25 C-6.02376743 2.0708729 -4.02705874 -0.13203471 0 0 Z " fill="#D7030C" transform="translate(299.1875,240.875)"/>
<path d="M0 0 C4.875 4.625 4.875 4.625 6 8 C7.65 6.35 9.3 4.7 11 3 C11.3449145 4.33038449 11.67516582 5.66457061 12 7 C12.20625 7.7425 12.4125 8.485 12.625 9.25 C13.13767161 13.00959181 12.57182252 16.25138568 12 20 C10.02 19.67 8.04 19.34 6 19 C6 44.41 6 69.82 6 96 C5.67 96 5.34 96 5 96 C4.98969254 95.02503067 4.97938507 94.05006134 4.96876526 93.04554749 C4.87120055 83.87763686 4.76848298 74.70979667 4.66066074 65.54200077 C4.60538952 60.82823641 4.55196295 56.1144659 4.50268555 51.40063477 C4.45510376 46.85539096 4.40276346 42.31022504 4.34705925 37.76507378 C4.32660757 36.02707281 4.30789924 34.28905046 4.29092598 32.55101204 C4.26694396 30.12515623 4.2368814 27.69944899 4.20532227 25.27368164 C4.1995668 24.54791931 4.19381134 23.82215698 4.18788147 23.07440186 C4.4236013 19.75258984 4.4236013 19.75258984 3 17 C2.67 17.66 2.34 18.32 2 19 C1.34 19 0.68 19 0 19 C0 18.01 0 17.02 0 16 C0.66 16 1.32 16 2 16 C1.67 14.35 1.34 12.7 1 11 C1.99 10.67 2.98 10.34 4 10 C3.525625 9.649375 3.05125 9.29875 2.5625 8.9375 C0.32126175 6.15836457 0.32882342 3.4855283 0 0 Z " fill="#E74447" transform="translate(210,117)"/>
<path d="M0 0 C0.66 0 1.32 0 2 0 C2.69670416 1.78810766 3.38211189 3.58062052 4.0625 5.375 C4.44535156 6.37273437 4.82820313 7.37046875 5.22265625 8.3984375 C6 11 6 11 5 13 C2.10067643 10.60490662 1.49831724 8.68754757 1 5 C0.67 7.97 0.34 10.94 0 14 C-0.99 14 -1.98 14 -3 14 C-3 14.66 -3 15.32 -3 16 C-3.66 16.33 -4.32 16.66 -5 17 C-5.93730205 21.03039882 -6.0982335 24.87419289 -6 29 C-6.66 29 -7.32 29 -8 29 C-8 30.32 -8 31.64 -8 33 C-6.35 33 -4.7 33 -3 33 C-7.625 37.875 -7.625 37.875 -11 39 C-10.85816304 37.24967156 -10.71136571 35.49974466 -10.5625 33.75 C-10.44068359 32.28820312 -10.44068359 32.28820312 -10.31640625 30.796875 C-10.04925416 28.43538247 -9.64628032 26.28098935 -9 24 C-9.63808594 23.52949219 -10.27617187 23.05898437 -10.93359375 22.57421875 C-11.75988281 21.95160156 -12.58617187 21.32898438 -13.4375 20.6875 C-14.26121094 20.07261719 -15.08492188 19.45773438 -15.93359375 18.82421875 C-18 17 -18 17 -19 14 C-14.05 14 -9.1 14 -4 14 C-3.525625 12.4325 -3.05125 10.865 -2.5625 9.25 C-2.29566406 8.36828125 -2.02882813 7.4865625 -1.75390625 6.578125 C-1.11531506 4.39434165 -0.53224167 2.21164502 0 0 Z " fill="#DA1D23" transform="translate(347,226)"/>
<path d="M0 0 C0.33 0 0.66 0 1 0 C1.33479485 3.62486659 1.66758816 7.24991417 2 10.875 C2.09539062 11.90753906 2.19078125 12.94007813 2.2890625 14.00390625 C2.37929688 14.99003906 2.46953125 15.97617188 2.5625 16.9921875 C2.64628906 17.90339355 2.73007812 18.81459961 2.81640625 19.75341797 C3 22 3 22 3 24 C4.2065625 24.309375 4.2065625 24.309375 5.4375 24.625 C6.7059375 25.305625 6.7059375 25.305625 8 26 C8.8125 29.125 8.8125 29.125 9 32 C7.5 30.625 7.5 30.625 6 29 C6 28.34 6 27.68 6 27 C1.36010609 29.05018568 -1.51542936 31.34949743 -5 35 C-6.36133796 36.26486519 -7.73723853 37.51418322 -9.125 38.75 C-9.78757813 39.34296875 -10.45015625 39.9359375 -11.1328125 40.546875 C-15.21937209 43.72721008 -20.05821633 43.59683378 -25 43 C-32.2878942 40.4242116 -32.2878942 40.4242116 -34 37 C-31.69 37.66 -29.38 38.32 -27 39 C-27 39.66 -27 40.32 -27 41 C-25.08302063 40.85833643 -23.16642277 40.71150416 -21.25 40.5625 C-20.18265625 40.48128906 -19.1153125 40.40007812 -18.015625 40.31640625 C-15.56320038 40.05909227 -13.36078709 39.68187782 -11 39 C-11.020625 38.05125 -11.04125 37.1025 -11.0625 36.125 C-11 33 -11 33 -10 31 C-7.67843403 30.59270772 -5.3431213 30.25561323 -3 30 C-3 29.01 -3 28.02 -3 27 C-1.35 27 0.3 27 2 27 C2 26.34 2 25.68 2 25 C-0.00032373 23.99983813 -1.83125748 23.50603992 -4 23 C-4 22.34 -4 21.68 -4 21 C-5.32 20.67 -6.64 20.34 -8 20 C-7.67 18.68 -7.34 17.36 -7 16 C-6.1028125 16.99 -6.1028125 16.99 -5.1875 18 C-3.12498166 20.3373846 -3.12498166 20.3373846 0 20 C0 13.4 0 6.8 0 0 Z " fill="#C73338" transform="translate(263,172)"/>
<path d="M0 0 C9.24 0 18.48 0 28 0 C28.04898438 3.70734375 28.09796875 7.4146875 28.1484375 11.234375 C28.20243547 14.82198145 28.2597477 18.40952068 28.31738281 21.99707031 C28.35568354 24.49181112 28.39053446 26.98660736 28.421875 29.48144531 C28.46750124 33.06595685 28.5255006 36.6500864 28.5859375 40.234375 C28.59748871 41.35116638 28.60903992 42.46795776 28.62094116 43.61859131 C28.64081085 44.65936829 28.66068054 45.70014526 28.68115234 46.77246094 C28.69447601 47.68735291 28.70779968 48.60224487 28.7215271 49.54486084 C29.01782231 52.1571293 29.57656071 53.79841494 31 56 C33.17208588 56.91160093 33.17208588 56.91160093 35.625 57.25 C36.44226563 57.39953125 37.25953125 57.5490625 38.1015625 57.703125 C38.72804688 57.80109375 39.35453125 57.8990625 40 58 C39.34 58.66 38.68 59.32 38 60 C35.8359375 59.9765625 35.8359375 59.9765625 33.375 59.625 C32.55773437 59.51414063 31.74046875 59.40328125 30.8984375 59.2890625 C30.27195312 59.19367188 29.64546875 59.09828125 29 59 C25.61833446 52.7008191 25.60579279 47.21784348 25.70703125 40.16015625 C25.71127609 39.03806259 25.71552094 37.91596893 25.71989441 36.75987244 C25.73661903 33.19383233 25.77426078 29.62836785 25.8125 26.0625 C25.82755483 23.63737798 25.84124183 21.21224706 25.85351562 18.78710938 C25.88394378 12.85767545 25.94267959 6.92947823 26 1 C17.75 1 9.5 1 1 1 C1 2.98 1 4.96 1 7 C0.67 7 0.34 7 0 7 C0 4.69 0 2.38 0 0 Z " fill="#D2585B" transform="translate(526,140)"/>
<path d="M0 0 C3.96 0 7.92 0 12 0 C9.67935928 4.64128144 8.78034825 6.37822009 3.890625 8.0859375 C2.45976562 8.53839844 2.45976562 8.53839844 1 9 C1.28875 9.98742187 1.5775 10.97484375 1.875 11.9921875 C2.25013927 13.28641797 2.62513165 14.58069103 3 15.875 C3.19078125 16.52597656 3.3815625 17.17695313 3.578125 17.84765625 C5 22.7734375 5 22.7734375 5 25 C1.9803787 23.96470127 0.02734579 23.02446729 -2.375 20.875 C-5.74437086 18.46830653 -7.95168575 18.68248516 -12 19 C-11.34 17.68 -10.68 16.36 -10 15 C-7.03 15.495 -7.03 15.495 -4 16 C-4 16.66 -4 17.32 -4 18 C-1.50494038 15.50494038 -1.64051624 14.32671112 -1.375 10.875 C-1.30023438 9.96492187 -1.22546875 9.05484375 -1.1484375 8.1171875 C-1.09945313 7.41851562 -1.05046875 6.71984375 -1 6 C0.65 5.67 2.3 5.34 4 5 C4 4.34 4 3.68 4 3 C1.69 3 -0.62 3 -3 3 C-2.67 2.34 -2.34 1.68 -2 1 C-1.34 1.33 -0.68 1.66 0 2 C0 1.34 0 0.68 0 0 Z " fill="#CC333A" transform="translate(356,240)"/>
<path d="M0 0 C3.90402805 3.7342877 3.90402805 3.7342877 4.15148926 6.99789429 C4.16401733 7.8163382 4.17654541 8.6347821 4.18945312 9.47802734 C4.20617065 10.40594086 4.22288818 11.33385437 4.2401123 12.28988647 C4.25368774 13.29508331 4.26726318 14.30028015 4.28125 15.3359375 C4.29965942 16.36683502 4.31806885 17.39773254 4.33703613 18.45986938 C4.39590918 21.76485374 4.44865756 25.06989058 4.5 28.375 C4.56765428 32.71625527 4.64137186 37.05734592 4.71875 41.3984375 C4.73232544 42.39958588 4.74590088 43.40073425 4.7598877 44.43222046 C4.77660522 45.36643829 4.79332275 46.30065613 4.81054688 47.26318359 C4.82307495 48.08321869 4.83560303 48.90325378 4.84851074 49.74813843 C4.99639337 51.94638802 5.39442917 53.8862186 6 56 C5.01 55.67 4.02 55.34 3 55 C1.48278682 47.71745334 0.6807352 40.73339176 0.5859375 33.30078125 C0.56657135 32.3397197 0.5472052 31.37865814 0.5272522 30.38847351 C0.46817701 27.3632351 0.42136346 24.33795712 0.375 21.3125 C0.33675368 19.2428233 0.29769826 17.17316138 0.2578125 15.10351562 C0.16253618 10.06913261 0.07824437 5.03467535 0 0 Z " fill="#D54448" transform="translate(514,143)"/>
<path d="M0 0 C2 3.75 2 3.75 2 6 C1.34 6 0.68 6 0 6 C-0.33 6.99 -0.66 7.98 -1 9 C-4.5625 10.1875 -4.5625 10.1875 -8 11 C-8 11.99 -8 12.98 -8 14 C-6.68 14.66 -5.36 15.32 -4 16 C-4 18.31 -4 20.62 -4 23 C-4.66 23 -5.32 23 -6 23 C-5.67 23.99 -5.34 24.98 -5 26 C-2.11785113 25.11785113 -2.11785113 25.11785113 0 24 C2.00800456 24.28112064 4.01014051 24.61067967 6 25 C6 25.33 6 25.66 6 26 C4.453125 26.3403125 4.453125 26.3403125 2.875 26.6875 C-0.08690356 27.5089186 -1.95392293 28.58852963 -4.25 30.625 C-7 33 -7 33 -10 33 C-8.68 27.72 -7.36 22.44 -6 17 C-8.475 16.01 -8.475 16.01 -11 15 C-13.23308016 13.4886746 -15.00994096 11.85121771 -17 10 C-17 9.34 -17 8.68 -17 8 C-12.05 7.67 -7.1 7.34 -2 7 C-1.34 4.69 -0.68 2.38 0 0 Z " fill="#C71F26" transform="translate(405,232)"/>
<path d="M0 0 C0.33 0 0.66 0 1 0 C1.05785647 3.95827235 1.09354717 7.9164367 1.125 11.875 C1.14175781 13.00292969 1.15851563 14.13085938 1.17578125 15.29296875 C1.18222656 16.36933594 1.18867188 17.44570312 1.1953125 18.5546875 C1.20578613 19.54968262 1.21625977 20.54467773 1.22705078 21.56982422 C1 24 1 24 -1 26 C-1 26.99 -1 27.98 -1 29 C0.32 29.66 1.64 30.32 3 31 C2.67 35.29 2.34 39.58 2 44 C3.32 44.33 4.64 44.66 6 45 C4.02 45 2.04 45 0 45 C-0.33 41.04 -0.66 37.08 -1 33 C-2.0828125 34.3921875 -2.0828125 34.3921875 -3.1875 35.8125 C-5.48430257 38.58834996 -7.76885405 40.3382678 -11 42 C-10.690625 41.443125 -10.38125 40.88625 -10.0625 40.3125 C-8.47860666 36.86520273 -8 33.7792414 -8 30 C-8.66 30 -9.32 30 -10 30 C-10 29.34 -10 28.68 -10 28 C-9.071875 27.731875 -8.14375 27.46375 -7.1875 27.1875 C-4.09429458 26.03512935 -2.93507587 25.55327926 -1 23 C-0.4959183 20.49126841 -0.4959183 20.49126841 -0.48828125 17.67578125 C-0.45283203 16.64775391 -0.41738281 15.61972656 -0.38085938 14.56054688 C-0.34702148 12.95276367 -0.34702148 12.95276367 -0.3125 11.3125 C-0.27833984 10.22904297 -0.24417969 9.14558594 -0.20898438 8.02929688 C-0.1264544 5.3529678 -0.05732063 2.67696841 0 0 Z " fill="#D74A4D" transform="translate(341,168)"/>
<path d="M0 0 C3 0 3 0 5.16992188 1.33398438 C8.06042936 5.54480905 7.43680349 9.67596226 7.28125 14.65625 C7.26412964 15.71606079 7.24700928 16.77587158 7.22937012 17.86779785 C7.17093373 21.24581778 7.08536958 24.6225658 7 28 C6.96126008 30.15490811 6.92476339 32.30985783 6.890625 34.46484375 C6.78550143 40.81052891 6.64508698 47.15512257 6.5 53.5 C6.45158336 55.70311975 6.40340542 57.90624476 6.35546875 60.109375 C6.23971202 65.40631338 6.12108128 70.70318078 6 76 C5.67 76 5.34 76 5 76 C4.99191315 75.19899872 4.98382629 74.39799744 4.97549438 73.57272339 C4.89743371 66.0103526 4.81010873 58.44817157 4.71247292 50.8860302 C4.66260601 46.99860044 4.61627547 43.1111966 4.578125 39.22363281 C4.54115037 35.46931562 4.49475809 31.7152204 4.44193649 27.9610939 C4.42345704 26.53147413 4.40832545 25.1018069 4.39665604 23.67211533 C4.37968349 21.66396419 4.34951738 19.65593787 4.31884766 17.64794922 C4.30552399 16.50655487 4.29220032 15.36516052 4.2784729 14.18917847 C3.83522231 9.11290264 1.92607115 4.67760135 0 0 Z " fill="#CD4547" transform="translate(140,134)"/>
<path d="M0 0 C2.2157192 1.16130499 4.00478032 2.46450836 6 4 C5.01 4.33 4.02 4.66 3 5 C2.34 4.67 1.68 4.34 1 4 C1 3.34 1 2.68 1 2 C-1.43922361 2.08700798 -3.87478414 2.19386002 -6.3125 2.3125 C-7.34793945 2.34633789 -7.34793945 2.34633789 -8.40429688 2.38085938 C-12.41708567 2.57448087 -12.41708567 2.57448087 -15.890625 4.41015625 C-16.74976807 5.64139298 -17.59627601 6.88145149 -18.4375 8.125 C-20.23414335 10.28097201 -21.27048977 10.62351583 -24 11 C-24.33 12.65 -24.66 14.3 -25 16 C-25.804375 15.979375 -26.60875 15.95875 -27.4375 15.9375 C-29.93354885 15.70366379 -29.93354885 15.70366379 -31 17 C-29.02 17.66 -27.04 18.32 -25 19 C-25.33 19.66 -25.66 20.32 -26 21 C-28.64 20.01 -31.28 19.02 -34 18 C-33.04882866 16.8274869 -32.08882991 15.66212985 -31.125 14.5 C-30.59132812 13.8503125 -30.05765625 13.200625 -29.5078125 12.53125 C-28.76144531 11.77328125 -28.76144531 11.77328125 -28 11 C-27.34 11 -26.68 11 -26 11 C-25.74605469 10.41734375 -25.49210938 9.8346875 -25.23046875 9.234375 C-19.89498725 -0.45418189 -10.17307862 -1.82421542 0 0 Z " fill="#C8454D" transform="translate(165,113)"/>
<path d="M0 0 C0.72380859 0.00580078 1.44761719 0.01160156 2.19335938 0.01757812 C7.51636905 0.14136905 7.51636905 0.14136905 9.8125 2.4375 C8.63171875 2.44007812 7.4509375 2.44265625 6.234375 2.4453125 C4.67704555 2.48283851 3.11975458 2.52198606 1.5625 2.5625 C0.39654297 2.55863281 0.39654297 2.55863281 -0.79296875 2.5546875 C-3.07230183 2.63261342 -5.00458614 2.76832217 -7.1875 3.4375 C-9.5782626 6.33771114 -9.5782626 6.33771114 -11.1875 9.4375 C-14.375 10.1875 -14.375 10.1875 -17.1875 10.4375 C-17.5175 11.0975 -17.8475 11.7575 -18.1875 12.4375 C-20.50906597 12.84479228 -22.8443787 13.18188677 -25.1875 13.4375 C-26.54189668 10.72870665 -26.25251451 8.42816732 -26.1875 5.4375 C-25.5275 5.4375 -24.8675 5.4375 -24.1875 5.4375 C-22.1875 8.4375 -22.1875 8.4375 -22.1875 11.4375 C-20.78671896 10.54942313 -19.39212363 9.65158741 -18 8.75 C-17.22269531 8.25113281 -16.44539062 7.75226563 -15.64453125 7.23828125 C-13.04350447 5.47631583 -13.04350447 5.47631583 -10.8984375 2.7578125 C-7.343295 -0.28506163 -4.45710502 -0.20571254 0 0 Z M-28.1875 12.4375 C-26.1875 13.4375 -26.1875 13.4375 -26.1875 13.4375 Z " fill="#C44044" transform="translate(197.1875,112.5625)"/>
<path d="M0 0 C0.33 0 0.66 0 1 0 C1 15.84 1 31.68 1 48 C3.475 47.505 3.475 47.505 6 47 C6 47.66 6 48.32 6 49 C7.10794922 48.89171875 7.10794922 48.89171875 8.23828125 48.78125 C15.18313352 48.14588867 22.02781245 47.87647699 29 48 C29 48.33 29 48.66 29 49 C18.83721347 50.3550382 9.52519335 50 -1 50 C-0.67 33.5 -0.34 17 0 0 Z " fill="#BF0F15" transform="translate(146,163)"/>
<path d="M0 0 C-1.48314794 3.9101173 -3.46250372 4.94331612 -7 7 C-8.299375 8.299375 -8.299375 8.299375 -9.625 9.625 C-12.66340481 12.66340481 -15.03777526 13.17295173 -19.1875 13.3125 C-24.10795113 13.27223444 -27.97391886 11.81414856 -32 9 C-32.33 8.34 -32.66 7.68 -33 7 C-30.69 7.66 -28.38 8.32 -26 9 C-26 9.66 -26 10.32 -26 11 C-24.08302063 10.85833643 -22.16642277 10.71150416 -20.25 10.5625 C-19.18265625 10.48128906 -18.1153125 10.40007812 -17.015625 10.31640625 C-14.56320038 10.05909227 -12.36078709 9.68187782 -10 9 C-10.020625 8.05125 -10.04125 7.1025 -10.0625 6.125 C-10 3 -10 3 -9 1 C-5.8035914 -0.06546953 -3.34252724 -0.07427838 0 0 Z " fill="#C93439" transform="translate(262,202)"/>
<path d="M0 0 C1.32 0 2.64 0 4 0 C2.79216249 3.62351253 1.70346858 4.15215236 -1.4375 6.1875 C-2.24058594 6.71730469 -3.04367187 7.24710938 -3.87109375 7.79296875 C-6 9 -6 9 -8 9 C-7.566875 10.22976562 -7.566875 10.22976562 -7.125 11.484375 C-6.75375 12.56203125 -6.3825 13.6396875 -6 14.75 C-5.62875 15.81734375 -5.2575 16.8846875 -4.875 17.984375 C-4 21 -4 21 -4 25 C-5.875 24.6875 -5.875 24.6875 -8 24 C-8.66 23.01 -9.32 22.02 -10 21 C-9.125 17.3125 -9.125 17.3125 -8 14 C-8.66 14 -9.32 14 -10 14 C-10 12.02 -10 10.04 -10 8 C-9.01 8 -8.02 8 -7 8 C-6.67 6.35 -6.34 4.7 -6 3 C-4.68 3 -3.36 3 -2 3 C-1.34 2.01 -0.68 1.02 0 0 Z " fill="#C32129" transform="translate(425,240)"/>
<path d="M0 0 C0.66 0.33 1.32 0.66 2 1 C-2.04179525 8.09778677 -6.92285837 13.77097635 -14 18 C-17.3125 18.71875 -17.3125 18.71875 -20 19 C-18.1875 17 -18.1875 17 -16 15 C-15.01 15 -14.02 15 -13 15 C-13 14.34 -13 13.68 -13 13 C-12.34 13 -11.68 13 -11 13 C-11 12.34 -11 11.68 -11 11 C-10.01 11 -9.02 11 -8 11 C-7.67 10.01 -7.34 9.02 -7 8 C-7.66 7.34 -8.32 6.68 -9 6 C-8.34 6 -7.68 6 -7 6 C-6.34 4.68 -5.68 3.36 -5 2 C-3.68 2 -2.36 2 -1 2 C-0.67 1.34 -0.34 0.68 0 0 Z " fill="#CA1C20" transform="translate(477,194)"/>
<path d="M0 0 C-0.99 0.33 -1.98 0.66 -3 1 C-3.33 2.65 -3.66 4.3 -4 6 C-5.32 6 -6.64 6 -8 6 C-8 6.99 -8 7.98 -8 9 C-12.75 10.125 -12.75 10.125 -15 9 C-15 9.66 -15 10.32 -15 11 C-15.99 11 -16.98 11 -18 11 C-18.103125 11.61875 -18.20625 12.2375 -18.3125 12.875 C-19 15 -19 15 -22 17 C-20.68326091 11.33802191 -18.59410737 9.25415939 -14 6 C-13.34 6 -12.68 6 -12 6 C-11.67 5.01 -11.34 4.02 -11 3 C-9.00390625 1.796875 -9.00390625 1.796875 -6.5625 0.75 C-5.75941406 0.39421875 -4.95632813 0.0384375 -4.12890625 -0.328125 C-2 -1 -2 -1 0 0 Z " fill="#D0060A" transform="translate(290,144)"/>
<path d="M0 0 C0.99 0.66 1.98 1.32 3 2 C3.27883269 4.95622617 3.3715381 7.67309509 3.3125 10.625 C3.31572266 11.40746094 3.31894531 12.18992188 3.32226562 12.99609375 C3.25401373 20.47898376 2.39783042 27.02298661 -2.5 33 C-3.1084375 33.763125 -3.716875 34.52625 -4.34375 35.3125 C-4.8903125 35.869375 -5.436875 36.42625 -6 37 C-6.66 37 -7.32 37 -8 37 C-6.5960192 33.25605121 -4.8841745 29.77591958 -3 26.2578125 C-0.28534995 20.12864169 0.27157676 14.64154153 0.125 8.0625 C0.11597656 7.28326172 0.10695313 6.50402344 0.09765625 5.70117188 C0.07433691 3.80064553 0.03847586 1.90027992 0 0 Z " fill="#DC4E55" transform="translate(455,163)"/>
<path d="M0 0 C2.1270011 0.25464098 4.25162215 0.52922942 6.375 0.8125 C8.15003906 1.03873047 8.15003906 1.03873047 9.9609375 1.26953125 C13 2 13 2 15 5 C15.33 5.99 15.66 6.98 16 8 C17.32 8 18.64 8 20 8 C20 8.99 20 9.98 20 11 C16.30581799 12.231394 13.7943739 11.64432764 10 11 C10 8 10 8 11 5 C5.06 4.01 5.06 4.01 -1 3 C-0.67 2.01 -0.34 1.02 0 0 Z " fill="#D1050B" transform="translate(464,147)"/>
<path d="M0 0 C2 2 2 2 2.23046875 5.15234375 C2.20919922 7.02599609 2.20919922 7.02599609 2.1875 8.9375 C2.17783203 10.80728516 2.17783203 10.80728516 2.16796875 12.71484375 C2 16 2 16 1 19 C2.32 19.33 3.64 19.66 5 20 C2.19195732 22.96404505 -0.18315774 25.44499019 -4 27 C-3.34 25.02 -2.68 23.04 -2 21 C-1.34 21 -0.68 21 0 21 C-0.33 20.34 -0.66 19.68 -1 19 C-3.31 19 -5.62 19 -8 19 C-7.505 17.515 -7.505 17.515 -7 16 C-4.69 16 -2.38 16 0 16 C0 10.72 0 5.44 0 0 Z " fill="#C52A2E" transform="translate(415,180)"/>
<path d="M0 0 C3.06359113 0.65114655 6.01909396 1.54425023 9 2.5 C9.77472656 2.73847656 10.54945313 2.97695312 11.34765625 3.22265625 C13.23487758 3.80513197 15.11790951 4.40115303 17 5 C17 5.33 17 5.66 17 6 C13.21367536 6.28397435 10.97983188 5.99150816 7.4375 4.5 C1.83717329 2.17471815 -4.04713307 2.75498871 -10 3 C-10.33 3.99 -10.66 4.98 -11 6 C-13.32952025 8.93346994 -14.55052329 9.8962746 -18.25 10.75 C-19.61125 10.87375 -19.61125 10.87375 -21 11 C-9.38371376 -0.94818014 -9.38371376 -0.94818014 0 0 Z " fill="#C53C42" transform="translate(445,138)"/>
<path d="M0 0 C0.33 0.99 0.66 1.98 1 3 C3.01508358 3.73323796 3.01508358 3.73323796 5 4 C3.948125 4.721875 2.89625 5.44375 1.8125 6.1875 C-1.45937617 8.5141675 -4.19756387 11.11971842 -7 14 C-10.08888522 16.05925681 -10.70935927 16.2390374 -14.1875 16.125 C-15.445625 16.08375 -16.70375 16.0425 -18 16 C-18 15.34 -18 14.68 -18 14 C-15.03 14 -12.06 14 -9 14 C-9 12.02 -9 10.04 -9 8 C-6.23735711 7.40267181 -3.83967231 7 -1 7 C-1.020625 6.030625 -1.04125 5.06125 -1.0625 4.0625 C-1 1 -1 1 0 0 Z " fill="#C21F26" transform="translate(523,199)"/>
<path d="M0 0 C1.54078615 2.98440561 2.86973276 6.01007758 4.125 9.125 C4.47820312 9.99382812 4.83140625 10.86265625 5.1953125 11.7578125 C6 14 6 14 6 16 C3.8125 15.9375 3.8125 15.9375 1 15 C-0.93157957 12.8282781 -2.48201687 10.47398953 -4 8 C-2.68 7.67 -1.36 7.34 0 7 C0 6.34 0 5.68 0 5 C-0.99 4.67 -1.98 4.34 -3 4 C-2.01 3.67 -1.02 3.34 0 3 C0 2.01 0 1.02 0 0 Z " fill="#C50D11" transform="translate(476,249)"/>
<path d="M0 0 C0.33 0 0.66 0 1 0 C1 1.98 1 3.96 1 6 C1.66 6 2.32 6 3 6 C3 6.66 3 7.32 3 8 C3.99 8 4.98 8 6 8 C6 8.66 6 9.32 6 10 C5.401875 10.2475 4.80375 10.495 4.1875 10.75 C1.86706787 11.87980389 1.86706787 11.87980389 0.4375 14.125 C-0.036875 14.74375 -0.51125 15.3625 -1 16 C-1.99 16 -2.98 16 -4 16 C-2.84941444 10.60204011 -1.57578241 5.29012667 0 0 Z " fill="#CD2027" transform="translate(219,249)"/>
<path d="M0 0 C1.32 0.33 2.64 0.66 4 1 C3.34 1 2.68 1 2 1 C2.28875 1.90363281 2.5775 2.80726563 2.875 3.73828125 C3.24625 4.91777344 3.6175 6.09726563 4 7.3125 C4.37125 8.48425781 4.7425 9.65601563 5.125 10.86328125 C6 14 6 14 6 17 C1.75177626 16.52797514 -0.19989709 14.03344482 -3 11 C-2.01 11 -1.02 11 0 11 C0 7.37 0 3.74 0 0 Z " fill="#CC2D35" transform="translate(295,248)"/>
<path d="M0 0 C0.33 0 0.66 0 1 0 C2.27364614 10.98519792 2.10085216 21.95901625 2 33 C-0.475 33.495 -0.475 33.495 -3 34 C-3.495 32.515 -3.495 32.515 -4 31 C-3.01 31.33 -2.02 31.66 -1 32 C-0.67 21.44 -0.34 10.88 0 0 Z " fill="#A41317" transform="translate(303,158)"/>
<path d="M0 0 C0.33 0 0.66 0 1 0 C1.33 8.25 1.66 16.5 2 25 C2.66 24.34 3.32 23.68 4 23 C4.99 23.33 5.98 23.66 7 24 C6.34 24.99 5.68 25.98 5 27 C4.83300768 30.12521833 4.83300768 30.12521833 5 33 C3.02 32.67 1.04 32.34 -1 32 C-0.75552124 31.21157715 -0.75552124 31.21157715 -0.50610352 30.40722656 C0.12901421 27.38635788 0.11169006 24.57181318 0.09765625 21.484375 C0.09443359 20.23398438 0.09121094 18.98359375 0.08789062 17.6953125 C0.07951172 16.39335937 0.07113281 15.09140625 0.0625 13.75 C0.05573242 11.77386719 0.05573242 11.77386719 0.04882812 9.7578125 C0.03704316 6.50516259 0.02059011 3.25260416 0 0 Z " fill="#E47D82" transform="translate(369,130)"/>
<path d="M0 0 C0.82810826 3.31243305 1.09278428 5.65976579 1 9 C3.88214887 8.11785113 3.88214887 8.11785113 6 7 C8.00800456 7.28112064 10.01014051 7.61067967 12 8 C12 8.33 12 8.66 12 9 C10.453125 9.3403125 10.453125 9.3403125 8.875 9.6875 C5.91309644 10.5089186 4.04607707 11.58852963 1.75 13.625 C-1 16 -1 16 -4 16 C-2.68 10.72 -1.36 5.44 0 0 Z " fill="#D7666A" transform="translate(399,249)"/>
<path d="M0 0 C0.66 0 1.32 0 2 0 C2.67057887 1.7902061 3.3363469 3.58221489 4 5.375 C4.556875 6.87160156 4.556875 6.87160156 5.125 8.3984375 C6 11 6 11 6 13 C1.08704646 12.5788897 -0.61566903 10.38433097 -4 7 C-6.67790896 6.12761142 -6.67790896 6.12761142 -9 6 C-9 5.67 -9 5.34 -9 5 C-5.7 5 -2.4 5 1 5 C0.67 3.35 0.34 1.7 0 0 Z " fill="#D1464F" transform="translate(235,252)"/>
<path d="M0 0 C4.62 0 9.24 0 14 0 C14 0.33 14 0.66 14 1 C12.02 1.33 10.04 1.66 8 2 C7.67 3.32 7.34 4.64 7 6 C7.66 6 8.32 6 9 6 C9 6.66 9 7.32 9 8 C9.66 8 10.32 8 11 8 C11 9.98 11 11.96 11 14 C10.67 14 10.34 14 10 14 C10 12.35 10 10.7 10 9 C8.9171875 8.62875 8.9171875 8.62875 7.8125 8.25 C4.70432462 6.86858872 2.47276852 5.33146746 0 3 C0 2.01 0 1.02 0 0 Z " fill="#C9353C" transform="translate(449,240)"/>
<path d="M0 0 C0.99 0 1.98 0 3 0 C3.52992692 1.45505358 4.0486789 2.91418127 4.5625 4.375 C4.85253906 5.18710938 5.14257812 5.99921875 5.44140625 6.8359375 C6 9 6 9 5 11 C4.34 10.67 3.68 10.34 3 10 C3 9.34 3 8.68 3 8 C2.34 8 1.68 8 1 8 C1 8.99 1 9.98 1 11 C0.01 11 -0.98 11 -2 11 C-2.33 11.99 -2.66 12.98 -3 14 C-3.33 13.34 -3.66 12.68 -4 12 C-3.27931168 10.26379633 -2.55252881 8.52932088 -1.76953125 6.8203125 C-0.82647752 4.58953565 -0.36199988 2.38919922 0 0 Z " fill="#D0666D" transform="translate(226,226)"/>
<path d="M0 0 C0.33 0.66 0.66 1.32 1 2 C-0.65 2 -2.3 2 -4 2 C-4 1.34 -4 0.68 -4 0 C-7.82067653 1.74659499 -9.43328409 3.52540705 -11.375 7.125 C-12.59765625 9.2578125 -12.59765625 9.2578125 -14 11 C-17.8125 12 -17.8125 12 -21 12 C-9.2472885 -2.55097614 -9.2472885 -2.55097614 0 0 Z " fill="#CD484F" transform="translate(398,139)"/>
<path d="M0 0 C3.96 0 7.92 0 12 0 C9.72382466 4.55235069 8.1643382 6.22377454 4 9 C3.01 8.67 2.02 8.34 1 8 C1 7.34 1 6.68 1 6 C2.32 6 3.64 6 5 6 C5 4.35 5 2.7 5 1 C3.35 1 1.7 1 0 1 C0 0.67 0 0.34 0 0 Z " fill="#CB2A31" transform="translate(476,240)"/>
<path d="M0 0 C3 1 3 1 4.25 3.375 C5 6 5 6 4 9 C2.35 9 0.7 9 -1 9 C-1 10.65 -1 12.3 -1 14 C-1.66 14 -2.32 14 -3 14 C-2.40380045 9.13103697 -1.43023178 4.67209049 0 0 Z " fill="#D05154" transform="translate(467,226)"/>
<path d="M0 0 C1.89772191 0.25726693 3.79315677 0.53143339 5.6875 0.8125 C6.74324219 0.96332031 7.79898437 1.11414063 8.88671875 1.26953125 C12.13657991 2.03204573 14.30577231 3.04766109 17 5 C17.8125 7.1875 17.8125 7.1875 18 9 C17.01 9 16.02 9 15 9 C15 7.68 15 6.36 15 5 C14.12988281 5.03480469 14.12988281 5.03480469 13.2421875 5.0703125 C8.38588834 5.18250423 4.57067605 4.87514915 0 3 C0 2.01 0 1.02 0 0 Z " fill="#CF393E" transform="translate(462,144)"/>
<path d="M0 0 C2 2 2 2 2 5 C1.34 5 0.68 5 0 5 C0 6.32 0 7.64 0 9 C1.65 9 3.3 9 5 9 C0.375 13.875 0.375 13.875 -3 15 C-2.88529863 13.24929483 -2.75780972 11.49942464 -2.625 9.75 C-2.55539062 8.77546875 -2.48578125 7.8009375 -2.4140625 6.796875 C-2.01534751 4.10366811 -1.36492937 2.33036721 0 0 Z " fill="#C63E3F" transform="translate(339,250)"/>
<path d="M0 0 C-2.31904936 1.24871889 -4.29448594 2.07042055 -6.875 2.6875 C-10.67349785 4.2828691 -12.25422418 6.31335981 -14.703125 9.5390625 C-15.13109375 10.02117187 -15.5590625 10.50328125 -16 11 C-16.66 11 -17.32 11 -18 11 C-18 11.66 -18 12.32 -18 13 C-19.32 12.67 -20.64 12.34 -22 12 C-9.80685213 -0.86025019 -9.80685213 -0.86025019 0 0 Z " fill="#CD464B" transform="translate(355,108)"/>
<path d="M0 0 C2.31 0 4.62 0 7 0 C5.83332679 1.16667321 4.66485496 2.33159329 3.48828125 3.48828125 C2.47471285 4.51781136 1.49342969 5.57990756 0.54296875 6.66796875 C-3.28541056 10.92060117 -3.28541056 10.92060117 -7.375 11.375 C-8.24125 11.25125 -9.1075 11.1275 -10 11 C-8.68 10.67 -7.36 10.34 -6 10 C-6 9.01 -6 8.02 -6 7 C-4.02 6.34 -2.04 5.68 0 5 C0 3.35 0 1.7 0 0 Z " fill="#CE3640" transform="translate(555,203)"/>
<path d="M0 0 C3.96 0 7.92 0 12 0 C11.34 1.32 10.68 2.64 10 4 C7.375 4.75 7.375 4.75 5 5 C4.67 4.34 4.34 3.68 4 3 C1.69 3 -0.62 3 -3 3 C-2.67 2.34 -2.34 1.68 -2 1 C-1.34 1.33 -0.68 1.66 0 2 C0 1.34 0 0.68 0 0 Z " fill="#CF060C" transform="translate(356,240)"/>
<path d="M0 0 C2.64 0 5.28 0 8 0 C7.67 1.32 7.34 2.64 7 4 C7.66 4.45375 8.32 4.9075 9 5.375 C9.66 5.91125 10.32 6.4475 11 7 C11 7.66 11 8.32 11 9 C6.02639643 7.72768281 3.32703078 5.91415386 0 2 C0 1.34 0 0.68 0 0 Z " fill="#C92931" transform="translate(208,240)"/>
<path d="M0 0 C4.875 4.625 4.875 4.625 6 8 C7.65 6.35 9.3 4.7 11 3 C11.33 3.66 11.66 4.32 12 5 C11.67 5.66 11.34 6.32 11 7 C10.34 7 9.68 7 9 7 C9 7.99 9 8.98 9 10 C6.69 9.67 4.38 9.34 2 9 C0.50178941 5.62902617 0 3.79557881 0 0 Z " fill="#D13B42" transform="translate(210,117)"/>
<path d="M0 0 C6.875 0.875 6.875 0.875 8 2 C9.68183948 2.23287008 11.3712416 2.41264166 13.0625 2.5625 C14.44115234 2.68818359 14.44115234 2.68818359 15.84765625 2.81640625 C16.91306641 2.90728516 16.91306641 2.90728516 18 3 C18 2.34 18 1.68 18 1 C19.32 1.33 20.64 1.66 22 2 C20.43283651 3.8521023 19.49174097 4.88837782 17.08984375 5.43359375 C10.71517578 5.44516302 5.74302624 3.68567407 0 1 C0 0.67 0 0.34 0 0 Z " fill="#C3373E" transform="translate(385,210)"/>
<path d="M0 0 C1.90318884 2.85478326 2.4619099 4.41941308 3.125 7.6875 C3.29257812 8.49574219 3.46015625 9.30398438 3.6328125 10.13671875 C3.75398438 10.75160156 3.87515625 11.36648438 4 12 C0.08597051 10.73058503 -1.79072873 9.48832306 -4 6 C-3.34 5.67 -2.68 5.34 -2 5 C-1.27840576 3.35636866 -0.60648579 1.68949614 0 0 Z " fill="#C83D43" transform="translate(357,253)"/>
<path d="M0 0 C2.31 0.33 4.62 0.66 7 1 C5 4 5 4 2.828125 4.6171875 C-2.69225123 5.16922512 -6.17489295 5.17441253 -11 2 C-6.99799622 0.39919849 -3.95443764 1.70720308 0 3 C0 2.01 0 1.02 0 0 Z " fill="#C2212A" transform="translate(322,210)"/>
<path d="M0 0 C0.433125 0.9590625 0.433125 0.9590625 0.875 1.9375 C1.82823451 4.15206079 1.82823451 4.15206079 4 5 C4.33 4.34 4.66 3.68 5 3 C5.99 3.66 6.98 4.32 8 5 C4.25 8 4.25 8 2 8 C1.67 8.99 1.34 9.98 1 11 C0.01 11 -0.98 11 -2 11 C-1 3.57142857 -1 3.57142857 0 0 Z " fill="#D36569" transform="translate(458,254)"/>
<path d="M0 0 C0.66 0.33 1.32 0.66 2 1 C1.505 1.763125 1.01 2.52625 0.5 3.3125 C-1.24368308 5.92363751 -1.24368308 5.92363751 -1 9 C-1.804375 8.979375 -2.60875 8.95875 -3.4375 8.9375 C-5.93354885 8.70366379 -5.93354885 8.70366379 -7 10 C-5.02 10.66 -3.04 11.32 -1 12 C-1.33 12.66 -1.66 13.32 -2 14 C-4.64 13.01 -7.28 12.02 -10 11 C-9.04882866 9.8274869 -8.08882991 8.66212985 -7.125 7.5 C-6.32449219 6.52546875 -6.32449219 6.52546875 -5.5078125 5.53125 C-5.01023438 5.0259375 -4.51265625 4.520625 -4 4 C-3.34 4 -2.68 4 -2 4 C-1.34 2.68 -0.68 1.36 0 0 Z " fill="#CE484A" transform="translate(141,120)"/>
<path d="M0 0 C2.64 0 5.28 0 8 0 C8.33 0.66 8.66 1.32 9 2 C10.32 1.67 11.64 1.34 13 1 C12.67 2.32 12.34 3.64 12 5 C9.44345185 5.95582656 8.39658231 6.17802782 5.859375 5.0390625 C5.16328125 4.57242188 4.4671875 4.10578125 3.75 3.625 C3.04359375 3.16351563 2.3371875 2.70203125 1.609375 2.2265625 C1.07828125 1.82179687 0.5471875 1.41703125 0 1 C0 0.67 0 0.34 0 0 Z " fill="#D7040D" transform="translate(270,241)"/>
<path d="M0 0 C0.99 0.33 1.98 0.66 3 1 C1.5625 3.0625 1.5625 3.0625 -1 5 C-5.77495579 5.25408022 -9.82589239 4.29575919 -14 2 C-12.04235617 1.80543295 -10.08384679 1.61955753 -8.125 1.4375 C-6.48917969 1.28087891 -6.48917969 1.28087891 -4.8203125 1.12109375 C-2 1 -2 1 0 2 C0 1.34 0 0.68 0 0 Z " fill="#CC3239" transform="translate(295,209)"/>
<path d="M0 0 C0.66 0 1.32 0 2 0 C2.86355778 1.95421035 3.71559934 3.91351347 4.5625 5.875 C5.03816406 6.96554688 5.51382812 8.05609375 6.00390625 9.1796875 C6.33261719 10.11039063 6.66132813 11.04109375 7 12 C6.67 12.66 6.34 13.32 6 14 C4.07240008 12.32382616 3.09465377 11.40227852 2.5 8.875 C2.335 8.25625 2.17 7.6375 2 7 C1.01 6.67 0.02 6.34 -1 6 C-1.042721 4.33388095 -1.04063832 2.66617115 -1 1 C-0.67 0.67 -0.34 0.34 0 0 Z " fill="#CC5B60" transform="translate(407,226)"/>
<path d="M0 0 C2.475 0.99 2.475 0.99 5 2 C4.67 12.23 4.34 22.46 4 33 C3.67 33 3.34 33 3 33 C2.98018066 32.14245117 2.96036133 31.28490234 2.93994141 30.40136719 C2.86170479 27.21052358 2.77500657 24.0200526 2.68261719 20.82958984 C2.64440662 19.45044757 2.60953998 18.07120833 2.578125 16.69189453 C2.53230376 14.70583033 2.47333737 12.72008321 2.4140625 10.734375 C2.3826416 9.54038086 2.3512207 8.34638672 2.31884766 7.11621094 C2.0196713 4.19225461 1.52538162 2.47272389 0 0 Z " fill="#C85153" transform="translate(376,167)"/>
<path d="M0 0 C1.65 0.33 3.3 0.66 5 1 C3.19587357 4.26460973 2.16605307 5.88929795 -1 8 C-2.21284876 11.05429073 -2.21284876 11.05429073 -3 14 C-3.33 14 -3.66 14 -4 14 C-4 10.7 -4 7.4 -4 4 C-2.68 4 -1.36 4 0 4 C0 2.68 0 1.36 0 0 Z " fill="#C62227" transform="translate(294,158)"/>
<path d="M0 0 C1.98 0 3.96 0 6 0 C5.67 1.32 5.34 2.64 5 4 C2.36 4.66 -0.28 5.32 -3 6 C-3.33 5.01 -3.66 4.02 -4 3 C-3.01 3 -2.02 3 -1 3 C-0.67 2.01 -0.34 1.02 0 0 Z " fill="#D7030A" transform="translate(237,241)"/>
<path d="M0 0 C0.99 0.33 1.98 0.66 3 1 C-0.66575222 4.99900242 -4.08927402 7.63557638 -9 10 C-9.99 9.67 -10.98 9.34 -12 9 C-8.375 6 -8.375 6 -5 6 C-5 5.34 -5 4.68 -5 4 C-4.34 4 -3.68 4 -3 4 C-3 3.34 -3 2.68 -3 2 C-2.01 2 -1.02 2 0 2 C0 1.34 0 0.68 0 0 Z " fill="#CA343C" transform="translate(469,203)"/>
<path d="M0 0 C3.63 0 7.26 0 11 0 C10.34 1.32 9.68 2.64 9 4 C6.36 4 3.72 4 1 4 C0.67 2.68 0.34 1.36 0 0 Z " fill="#D00F13" transform="translate(414,240)"/>
<path d="M0 0 C2.78633115 4.17949673 4 6.93375326 4 12 C2.125 11.6875 2.125 11.6875 0 11 C-0.66 10.01 -1.32 9.02 -2 8 C-1.67 7.67 -1.34 7.34 -1 7 C-0.63239269 4.67182036 -0.29758419 2.3381615 0 0 Z " fill="#C74D53" transform="translate(417,253)"/>
<path d="M0 0 C0.33 0.99 0.66 1.98 1 3 C3.01508358 3.73323796 3.01508358 3.73323796 5 4 C4.52949219 4.31453125 4.05898438 4.6290625 3.57421875 4.953125 C0.11997567 7.32747014 -2.72778504 9.39118801 -5 13 C-5.66 12.67 -6.32 12.34 -7 12 C-5.6875 9.5 -5.6875 9.5 -4 7 C-3.01 7 -2.02 7 -1 7 C-1.020625 6.030625 -1.04125 5.06125 -1.0625 4.0625 C-1 1 -1 1 0 0 Z " fill="#DB5658" transform="translate(523,199)"/>
<path d="M0 0 C4.51617599 -0.07654536 8.59085217 -0.10228696 13 1 C13 1.33 13 1.66 13 2 C10.69 2 8.38 2 6 2 C6 3.32 6 4.64 6 6 C3.37812506 4.95125002 2.20628639 4.35068687 0.75 1.875 C0.5025 1.25625 0.255 0.6375 0 0 Z " fill="#C6383E" transform="translate(328,240)"/>
<path d="M0 0 C-0.99 0.33 -1.98 0.66 -3 1 C-3.33 2.65 -3.66 4.3 -4 6 C-6.64 6 -9.28 6 -12 6 C-11 3 -11 3 -9.00390625 1.796875 C-8.19824219 1.45140625 -7.39257812 1.1059375 -6.5625 0.75 C-5.75941406 0.39421875 -4.95632813 0.0384375 -4.12890625 -0.328125 C-2 -1 -2 -1 0 0 Z " fill="#D13A3F" transform="translate(290,144)"/>
<path d="M0 0 C0 0.33 0 0.66 0 1 C-0.99902344 1.04898438 -1.99804688 1.09796875 -3.02734375 1.1484375 C-4.31769531 1.22320312 -5.60804688 1.29796875 -6.9375 1.375 C-8.22527344 1.44460937 -9.51304687 1.51421875 -10.83984375 1.5859375 C-11.88269531 1.72257812 -12.92554688 1.85921875 -14 2 C-14.33 2.66 -14.66 3.32 -15 4 C-15.66 4 -16.32 4 -17 4 C-17.33 4.99 -17.66 5.98 -18 7 C-19.32 6.67 -20.64 6.34 -22 6 C-15.6755412 -1.40424444 -9.01396257 -0.626453 0 0 Z " fill="#CC585B" transform="translate(244,113)"/>
<path d="M0 0 C1.65 0 3.3 0 5 0 C5 2.64 5 5.28 5 8 C4.34 8 3.68 8 3 8 C3 7.34 3 6.68 3 6 C0.525 5.01 0.525 5.01 -2 4 C-1.34 2.68 -0.68 1.36 0 0 Z " fill="#D3050A" transform="translate(216,241)"/>
<path d="M0 0 C0.33 0 0.66 0 1 0 C1 6.93 1 13.86 1 21 C-0.65 21.33 -2.3 21.66 -4 22 C-4.33 21.01 -4.66 20.02 -5 19 C-3.68 19.33 -2.36 19.66 -1 20 C-0.67 13.4 -0.34 6.8 0 0 Z " fill="#C7141B" transform="translate(304,170)"/>
<path d="M0 0 C2.31 0 4.62 0 7 0 C7.33 0.99 7.66 1.98 8 3 C8.66 3 9.32 3 10 3 C10.33 4.32 10.66 5.64 11 7 C8.72316722 5.94289907 6.89022008 4.91018007 4.9375 3.3125 C4.298125 2.879375 3.65875 2.44625 3 2 C2.01 2.33 1.02 2.66 0 3 C0 2.01 0 1.02 0 0 Z " fill="#D2565B" transform="translate(300,204)"/>
<path d="M0 0 C0.66 0 1.32 0 2 0 C4 3 4 3 4 6 C5.32 5.34 6.64 4.68 8 4 C7.34 5.32 6.68 6.64 6 8 C4.35 8 2.7 8 1 8 C-0.35439668 5.29120665 -0.06501451 2.99066732 0 0 Z M-2 7 C0 8 0 8 0 8 Z " fill="#D74549" transform="translate(171,118)"/>
<path d="M0 0 C0 2 0 2 -1.3125 3.375 C-1.869375 3.91125 -2.42625 4.4475 -3 5 C-4.01800576 6.31963709 -5.02248365 7.65009646 -6 9 C-7.32 8.67 -8.64 8.34 -10 8 C-3.94594595 0 -3.94594595 0 0 0 Z " fill="#C42A2F" transform="translate(151,114)"/>
<path d="M0 0 C0.66 0 1.32 0 2 0 C2.69670416 1.78810766 3.38211189 3.58062052 4.0625 5.375 C4.63677734 6.87160156 4.63677734 6.87160156 5.22265625 8.3984375 C6 11 6 11 5 13 C2.10067643 10.60490662 1.49831724 8.68754757 1 5 C0.34 5.66 -0.32 6.32 -1 7 C-0.67 4.69 -0.34 2.38 0 0 Z " fill="#C34046" transform="translate(347,226)"/>
<path d="M0 0 C0.66 0 1.32 0 2 0 C2 0.99 2 1.98 2 3 C2.66 3.33 3.32 3.66 4 4 C2.6875 6 2.6875 6 1 8 C0.01 8 -0.98 8 -2 8 C-1.125 2.25 -1.125 2.25 0 0 Z " fill="#C9444A" transform="translate(217,257)"/>
<path d="M0 0 C0.66 0 1.32 0 2 0 C2.33 1.98 2.66 3.96 3 6 C3.66 6 4.32 6 5 6 C5 7.98 5 9.96 5 12 C2 10 2 10 1.26953125 7.6171875 C1.11871094 6.71226562 0.96789062 5.80734375 0.8125 4.875 C0.65394531 3.96492187 0.49539063 3.05484375 0.33203125 2.1171875 C0.22246094 1.41851562 0.11289062 0.71984375 0 0 Z " fill="#D14A4F" transform="translate(490,197)"/>
<path d="M0 0 C0.309375 0.61875 0.61875 1.2375 0.9375 1.875 C4.04517188 5.07684376 7.70403806 5.31552808 12 6 C11.34 6.66 10.68 7.32 10 8 C7.8359375 7.9765625 7.8359375 7.9765625 5.375 7.625 C4.55773437 7.51414063 3.74046875 7.40328125 2.8984375 7.2890625 C2.27195312 7.19367188 1.64546875 7.09828125 1 7 C0.34 5.02 -0.32 3.04 -1 1 C-0.67 0.67 -0.34 0.34 0 0 Z " fill="#C84746" transform="translate(554,192)"/>
<path d="M0 0 C3.19100606 2.12733738 3.76030456 3.05233386 5.25 6.4375 C5.78367187 7.61119141 5.78367187 7.61119141 6.328125 8.80859375 C7 11 7 11 6 14 C2 8.5 2 8.5 2 4 C1.34 4 0.68 4 0 4 C0 2.68 0 1.36 0 0 Z " fill="#D65860" transform="translate(362,113)"/>
<path d="M0 0 C1.98 0 3.96 0 6 0 C4.49776416 4.20626034 1.71449966 5.73900021 -2 8 C-2 7.01 -2 6.02 -2 5 C-1.01 5 -0.02 5 1 5 C0.67 3.35 0.34 1.7 0 0 Z " fill="#CA5054" transform="translate(302,240)"/>
<path d="M0 0 C3.96 0 7.92 0 12 0 C12 0.33 12 0.66 12 1 C9.36 1.33 6.72 1.66 4 2 C4.66 3.65 5.32 5.3 6 7 C3.5625 5.75 3.5625 5.75 1 4 C0.67 2.68 0.34 1.36 0 0 Z " fill="#CB595D" transform="translate(268,240)"/>
<path d="M0 0 C0.66 0 1.32 0 2 0 C2.33 2.31 2.66 4.62 3 7 C1.35 7.66 -0.3 8.32 -2 9 C-1.125 1.125 -1.125 1.125 0 0 Z " fill="#C43F48" transform="translate(287,226)"/>
<path d="M0 0 C2.3125 -0.25 2.3125 -0.25 5 0 C6.625 1.875 6.625 1.875 8 4 C8.99 4.66 9.98 5.32 11 6 C9.68 6.33 8.36 6.66 7 7 C6.67 6.01 6.34 5.02 6 4 C4.34795544 3.29788106 2.68076231 2.63028587 1 2 C0.67 1.34 0.34 0.68 0 0 Z " fill="#CE4346" transform="translate(272,204)"/>
<path d="M0 0 C2.64120209 0.18426991 5.10872909 0.59806665 7.6875 1.1875 C7.3575 2.5075 7.0275 3.8275 6.6875 5.1875 C3.0575 4.1975 -0.5725 3.2075 -4.3125 2.1875 C-2.3125 0.1875 -2.3125 0.1875 0 0 Z " fill="#CB1820" transform="translate(373.3125,163.8125)"/>
<path d="M0 0 C3.625 0.375 3.625 0.375 7 1 C7.33 1.99 7.66 2.98 8 4 C6.88625 3.95875 5.7725 3.9175 4.625 3.875 C0.95633975 3.58878141 0.95633975 3.58878141 -1 6 C-1.625 4.125 -1.625 4.125 -2 2 C-1.34 1.34 -0.68 0.68 0 0 Z " fill="#C80A11" transform="translate(482,158)"/>
<path d="M0 0 C3.63 0.66 7.26 1.32 11 2 C11 2.99 11 3.98 11 5 C5.06 4.01 5.06 4.01 -1 3 C-0.67 2.01 -0.34 1.02 0 0 Z " fill="#DA0305" transform="translate(464,147)"/>
<path d="M0 0 C0.556875 0.226875 1.11375 0.45375 1.6875 0.6875 C-0.0625 2.6875 -0.0625 2.6875 -2.3125 4.6875 C-3.6325 4.6875 -4.9525 4.6875 -6.3125 4.6875 C-6.6425 5.3475 -6.9725 6.0075 -7.3125 6.6875 C-7.3125 5.3675 -7.3125 4.0475 -7.3125 2.6875 C-4.7516601 0.62460119 -3.3245861 -0.44926839 0 0 Z " fill="#CA242A" transform="translate(186.3125,118.3125)"/>
<path d="M0 0 C1.32 0 2.64 0 4 0 C4 0.66 4 1.32 4 2 C4.99 2 5.98 2 7 2 C7.33 1.34 7.66 0.68 8 0 C8.33 1.98 8.66 3.96 9 6 C4.75177626 5.52797514 2.80010291 3.03344482 0 0 Z " fill="#D36769" transform="translate(292,259)"/>
<path d="M0 0 C1.9451 2.91765 2.45276317 4.62537285 3 8 C0.625 7.6875 0.625 7.6875 -2 7 C-2.66 6.01 -3.32 5.02 -4 4 C-2.68 4 -1.36 4 0 4 C0 2.68 0 1.36 0 0 Z " fill="#D2676B" transform="translate(238,257)"/>
<path d="M0 0 C-0.33 0.99 -0.66 1.98 -1 3 C-1.66 3 -2.32 3 -3 3 C-3.33 3.99 -3.66 4.98 -4 6 C-6.0625 6.6875 -6.0625 6.6875 -8 7 C-8 5 -8 5 -6 3 C-5.525625 2.46375 -5.05125 1.9275 -4.5625 1.375 C-3 0 -3 0 0 0 Z " fill="#CA474E" transform="translate(248,240)"/>
<path d="M0 0 C2.475 0.99 2.475 0.99 5 2 C5 2.66 5 3.32 5 4 C6.98 4.66 8.96 5.32 11 6 C9.02 6.99 9.02 6.99 7 8 C5.8274869 7.04882866 4.66212985 6.08882991 3.5 5.125 C2.8503125 4.59132812 2.200625 4.05765625 1.53125 3.5078125 C1.0259375 3.01023438 0.520625 2.51265625 0 2 C0 1.34 0 0.68 0 0 Z " fill="#D24A4F" transform="translate(528,203)"/>
<path d="M0 0 C-0.33 0.99 -0.66 1.98 -1 3 C-1.99 3 -2.98 3 -4 3 C-4 3.99 -4 4.98 -4 6 C-4.99 5.67 -5.98 5.34 -7 5 C-6.625 3.0625 -6.625 3.0625 -6 1 C-4 0 -4 0 0 0 Z " fill="#C91D25" transform="translate(240,246)"/>
<path d="M0 0 C6.75 1.875 6.75 1.875 9 3 C8.34 4.98 7.68 6.96 7 9 C6.938125 8.38125 6.87625 7.7625 6.8125 7.125 C6.544375 6.42375 6.27625 5.7225 6 5 C4.34795544 4.29788106 2.68076231 3.63028587 1 3 C0.67 2.01 0.34 1.02 0 0 Z " fill="#BD151C" transform="translate(273,244)"/>
<path d="M0 0 C3.96 0 7.92 0 12 0 C10 4 10 4 8 5 C7.67 4.01 7.34 3.02 7 2 C4.69 1.67 2.38 1.34 0 1 C0 0.67 0 0.34 0 0 Z " fill="#BD3538" transform="translate(356,240)"/>
<path d="M0 0 C0.99 0.33 1.98 0.66 3 1 C3 1.66 3 2.32 3 3 C4.32 3 5.64 3 7 3 C7.66 4.32 8.32 5.64 9 7 C8.01 7.495 8.01 7.495 7 8 C3.75700849 5.61042731 1.49097658 3.7952131 0 0 Z " fill="#CD343A" transform="translate(420,200)"/>
<path d="M0 0 C1.57554035 2.88628401 2.46276373 5.53342384 3.125 8.75 C3.29257812 9.54921875 3.46015625 10.3484375 3.6328125 11.171875 C3.81457031 12.07679688 3.81457031 12.07679688 4 13 C3.34 13 2.68 13 2 13 C0.21590198 9.93753253 -0.22880021 7.77920727 -0.125 4.25 C-0.10695313 3.45078125 -0.08890625 2.6515625 -0.0703125 1.828125 C-0.04710937 1.22484375 -0.02390625 0.6215625 0 0 Z " fill="#CA3B41" transform="translate(442,188)"/>
<path d="M0 0 C0.33 0.66 0.66 1.32 1 2 C-0.0625 4.5625 -0.0625 4.5625 -2 7 C-5.1875 7.8125 -5.1875 7.8125 -8 8 C-5.33333333 5.33333333 -2.66666667 2.66666667 0 0 Z " fill="#D54C4F" transform="translate(432,141)"/>
<path d="M0 0 C2.1875 -0.3125 2.1875 -0.3125 5 0 C7.8125 2.5 7.8125 2.5 10 5 C8.02 5.33 6.04 5.66 4 6 C4 4.35 4 2.7 4 1 C2.68 0.67 1.36 0.34 0 0 Z " fill="#CA3035" transform="translate(504,138)"/>
<path d="M0 0 C0.66 0.33 1.32 0.66 2 1 C1.67 1.99 1.34 2.98 1 4 C-0.65 4.33 -2.3 4.66 -4 5 C-4 5.99 -4 6.98 -4 8 C-5.32 7.67 -6.64 7.34 -8 7 C-5.36 4.69 -2.72 2.38 0 0 Z " fill="#C84E53" transform="translate(501,137)"/>
<path d="M0 0 C0.99 0 1.98 0 3 0 C5.67927341 4.01891012 5.15601248 6.24161923 5 11 C4.67 11 4.34 11 4 11 C3.71125 10.113125 3.4225 9.22625 3.125 8.3125 C2.16851252 5.49617576 1.13201054 2.74916844 0 0 Z " fill="#D75B5E" transform="translate(140,134)"/>
<path d="M0 0 C0 0.66 0 1.32 0 2 C-0.66 2 -1.32 2 -2 2 C-2 3.65 -2 5.3 -2 7 C-3.32 7 -4.64 7 -6 7 C-5.37162381 3.35541809 -4.14650034 0 0 0 Z " fill="#CD666A" transform="translate(333,121)"/>
<path d="M0 0 C0.66 0 1.32 0 2 0 C2.625 1.8125 2.625 1.8125 3 4 C2.01 5.485 2.01 5.485 1 7 C0.01 7 -0.98 7 -2 7 C-1.34 4.69 -0.68 2.38 0 0 Z " fill="#BC3336" transform="translate(277,258)"/>
<path d="M0 0 C2.875 -0.125 2.875 -0.125 6 0 C6.66 0.66 7.32 1.32 8 2 C4.12315913 3.19287411 1.08378077 4 -3 4 C-2.67 3.01 -2.34 2.02 -2 1 C-1.34 1 -0.68 1 0 1 C0 0.67 0 0.34 0 0 Z " fill="#D9585B" transform="translate(403,256)"/>
<path d="M0 0 C2.475 0.99 2.475 0.99 5 2 C4.67 2.99 4.34 3.98 4 5 C4.66 5.33 5.32 5.66 6 6 C3.03 5.505 3.03 5.505 0 5 C0 3.35 0 1.7 0 0 Z " fill="#D50307" transform="translate(456,241)"/>
<path d="M0 0 C2.64 0 5.28 0 8 0 C8 0.33 8 0.66 8 1 C6.35 1 4.7 1 3 1 C3.680625 1.680625 3.680625 1.680625 4.375 2.375 C5.58333333 3.58333333 6.79166667 4.79166667 8 6 C4.06830895 6 2.83572772 4.60580385 0 2 C0 1.34 0 0.68 0 0 Z " fill="#CE5E62" transform="translate(388,240)"/>
<path d="M0 0 C0.99 0.33 1.98 0.66 3 1 C0.35039045 4.63094642 -2.01824456 6.89851796 -6 9 C-5.690625 8.401875 -5.38125 7.80375 -5.0625 7.1875 C-3.89790296 4.91043228 -3.89790296 4.91043228 -3 2 C-2.01 2 -1.02 2 0 2 C0 1.34 0 0.68 0 0 Z " fill="#D35A60" transform="translate(336,201)"/>
<path d="M0 0 C0.33 0.66 0.66 1.32 1 2 C0.67 2.66 0.34 3.32 0 4 C-0.99 4 -1.98 4 -3 4 C-3.103125 4.61875 -3.20625 5.2375 -3.3125 5.875 C-4 8 -4 8 -7 10 C-5.76075855 5.04303419 -4.21422242 2.88341534 0 0 Z " fill="#CF565A" transform="translate(275,151)"/>
<path d="M0 0 C2.35953094 2.35953094 2.49141413 3.77895617 3 7 C0.625 6.6875 0.625 6.6875 -2 6 C-2.66 5.01 -3.32 4.02 -4 3 C-2.68 3.33 -1.36 3.66 0 4 C0 2.68 0 1.36 0 0 Z " fill="#CE7D7D" transform="translate(479,258)"/>
<path d="M0 0 C0.66 0 1.32 0 2 0 C2 2.31 2 4.62 2 7 C0.68 7.33 -0.64 7.66 -2 8 C-1.47731534 5.23723823 -0.89130413 2.6739124 0 0 Z " fill="#C72A2E" transform="translate(345,233)"/>
<path d="M0 0 C0 0.99 0 1.98 0 3 C-3.28696233 3.79953138 -4.71023192 4.09658936 -8 3 C-8 2.34 -8 1.68 -8 1 C-5.23735711 0.40267181 -2.83967231 0 0 0 Z " fill="#CB1C24" transform="translate(339,195)"/>
<path d="M0 0 C0.33 0 0.66 0 1 0 C1.99 4.62 2.98 9.24 4 14 C3.01 13.67 2.02 13.34 1 13 C0.67 8.71 0.34 4.42 0 0 Z " fill="#C12D31" transform="translate(516,185)"/>
<path d="M0 0 C-0.33 1.65 -0.66 3.3 -1 5 C-3.475 4.01 -3.475 4.01 -6 3 C-6 2.34 -6 1.68 -6 1 C-3 0 -3 0 0 0 Z " fill="#CC1B20" transform="translate(417,256)"/>
<path d="M0 0 C1.64826111 2.96687001 2.44271087 5.65626525 3 9 C2.01 8.67 1.02 8.34 0 8 C0 7.01 0 6.02 0 5 C-0.99 4.67 -1.98 4.34 -3 4 C-2.01 3.67 -1.02 3.34 0 3 C0 2.01 0 1.02 0 0 Z " fill="#CA2A31" transform="translate(476,249)"/>
<path d="M0 0 C0.99 0 1.98 0 3 0 C2.01 3.96 1.02 7.92 0 12 C-0.33 12 -0.66 12 -1 12 C-0.67 8.04 -0.34 4.08 0 0 Z " fill="#CB494E" transform="translate(443,165)"/>
<path d="M0 0 C2 2 2 2 2 5 C1.34 5 0.68 5 0 5 C0 5.99 0 6.98 0 8 C-0.66 8 -1.32 8 -2 8 C-1.125 1.125 -1.125 1.125 0 0 Z " fill="#DC6570" transform="translate(339,250)"/>
<path d="M0 0 C1.32 0 2.64 0 4 0 C2.75453595 3.73639216 1.36595047 4.18756513 -2 6 C-1.125 1.125 -1.125 1.125 0 0 Z " fill="#D15B61" transform="translate(425,240)"/>
<path d="M0 0 C2.475 0.495 2.475 0.495 5 1 C5 2.65 5 4.3 5 6 C2.525 5.01 2.525 5.01 0 4 C0 2.68 0 1.36 0 0 Z " fill="#D0050F" transform="translate(333,241)"/>
<path d="M0 0 C0.66 0.33 1.32 0.66 2 1 C2.625 4.0625 2.625 4.0625 3 7 C2.01 7 1.02 7 0 7 C-0.38133299 5.0085944 -0.71325582 3.00720923 -1 1 C-0.67 0.67 -0.34 0.34 0 0 Z " fill="#D3040D" transform="translate(288,232)"/>
<path d="M0 0 C0.66 0.99 1.32 1.98 2 3 C1.34 3 0.68 3 0 3 C0 3.99 0 4.98 0 6 C-0.99 6 -1.98 6 -3 6 C-3.33 6.99 -3.66 7.98 -4 9 C-4.33 8.34 -4.66 7.68 -5 7 C-3.85813411 4.05017979 -2.32718447 2.11562225 0 0 Z " fill="#DB5056" transform="translate(227,231)"/>
<path d="M0 0 C1.65 0 3.3 0 5 0 C5 0.66 5 1.32 5 2 C5.99 2.33 6.98 2.66 8 3 C8 3.66 8 4.32 8 5 C4.62496331 3.8141763 2.35277269 2.72426311 0 0 Z " fill="#C63E44" transform="translate(495,209)"/>
<path d="M0 0 C-0.56371414 3.26954202 -1.49962266 4.82575883 -4 7 C-4.66 6.67 -5.32 6.34 -6 6 C-3.84615385 0 -3.84615385 0 0 0 Z " fill="#CD424B" transform="translate(417,200)"/>
<path d="M0 0 C1.98 0 3.96 0 6 0 C5.34 1.32 4.68 2.64 4 4 C2.68 3.67 1.36 3.34 0 3 C0 2.01 0 1.02 0 0 Z " fill="#C91319" transform="translate(558,199)"/>
<path d="M0 0 C0.66 0 1.32 0 2 0 C1.25 3.375 1.25 3.375 0 7 C-1.98 7.99 -1.98 7.99 -4 9 C-2.68 6.03 -1.36 3.06 0 0 Z " fill="#CD4B50" transform="translate(456,181)"/>
<path d="M0 0 C3.96 0 7.92 0 12 0 C11.34 1.32 10.68 2.64 10 4 C9.67 3.01 9.34 2.02 9 1 C6.03 1 3.06 1 0 1 C0 0.67 0 0.34 0 0 Z " fill="#B8292C" transform="translate(476,240)"/>
<path d="M0 0 C2.475 0.495 2.475 0.495 5 1 C3.625 3.5 3.625 3.5 2 6 C1.34 6 0.68 6 0 6 C0 4.02 0 2.04 0 0 Z " fill="#D7424C" transform="translate(294,158)"/>
<path d="M0 0 C0.33 0.66 0.66 1.32 1 2 C2.32 1.34 3.64 0.68 5 0 C4.4375 1.9375 4.4375 1.9375 3 4 C-0.625 4.75 -0.625 4.75 -4 5 C-2.68 3.35 -1.36 1.7 0 0 Z " fill="#D33338" transform="translate(381,146)"/>
<path d="M0 0 C1.32 0.66 2.64 1.32 4 2 C2.1875 3.5625 2.1875 3.5625 0 5 C-0.99 4.67 -1.98 4.34 -3 4 C-2.67 3.01 -2.34 2.02 -2 1 C-1.34 1.33 -0.68 1.66 0 2 C0 1.34 0 0.68 0 0 Z " fill="#CF3D3F" transform="translate(462,257)"/>
<path d="M0 0 C1.65 0 3.3 0 5 0 C5.33 1.32 5.66 2.64 6 4 C3.03 3.505 3.03 3.505 0 3 C0 2.01 0 1.02 0 0 Z " fill="#D64E57" transform="translate(286,255)"/>
<path d="M0 0 C0.99 0 1.98 0 3 0 C2.67 0.99 2.34 1.98 2 3 C1.34 2.67 0.68 2.34 0 2 C0 1.34 0 0.68 0 0 Z M0 3 C0.33 3 0.66 3 1 3 C1 4.98 1 6.96 1 9 C0.34 9 -0.32 9 -1 9 C-0.67 7.02 -0.34 5.04 0 3 Z " fill="#CC0908" transform="translate(343,250)"/>
<path d="M0 0 C0.33 0.66 0.66 1.32 1 2 C1.99 2 2.98 2 4 2 C4.33 3.65 4.66 5.3 5 7 C4.67 6.34 4.34 5.68 4 5 C2.67532254 4.3162955 1.34136367 3.65035814 0 3 C-0.66 2.34 -1.32 1.68 -2 1 C-1.34 0.67 -0.68 0.34 0 0 Z " fill="#CB3842" transform="translate(336,245)"/>
<path d="M0 0 C0.33 1.32 0.66 2.64 1 4 C0.01 4 -0.98 4 -2 4 C-2 4.99 -2 5.98 -2 7 C-2.99 6.67 -3.98 6.34 -5 6 C-2.25 1.125 -2.25 1.125 0 0 Z " fill="#CC0811" transform="translate(302,241)"/>
<path d="M0 0 C2.64 0 5.28 0 8 0 C6.02 0.99 6.02 0.99 4 2 C4 2.99 4 3.98 4 5 C3.01 4.67 2.02 4.34 1 4 C0.3125 1.9375 0.3125 1.9375 0 0 Z " fill="#D2565A" transform="translate(208,240)"/>
<path d="M0 0 C-0.33 1.65 -0.66 3.3 -1 5 C-1.99 5 -2.98 5 -4 5 C-4 3.68 -4 2.36 -4 1 C-2 0 -2 0 0 0 Z " fill="#D50309" transform="translate(471,234)"/>
<path d="M0 0 C2.31 0.33 4.62 0.66 7 1 C7.33 1.99 7.66 2.98 8 4 C4.31245243 3.50168276 2.39509338 2.89932357 0 0 Z " fill="#D14B51" transform="translate(428,208)"/>
<path d="M0 0 C2.475 0.495 2.475 0.495 5 1 C5.33 2.98 5.66 4.96 6 7 C4.5 5.625 4.5 5.625 3 4 C3 3.34 3 2.68 3 2 C2.01 2 1.02 2 0 2 C0 1.34 0 0.68 0 0 Z " fill="#D55456" transform="translate(266,197)"/>
<path d="M0 0 C2.31 1.65 4.62 3.3 7 5 C6.01 5.66 5.02 6.32 4 7 C4 6.34 4 5.68 4 5 C2.68 4.67 1.36 4.34 0 4 C0 2.68 0 1.36 0 0 Z " fill="#D5575F" transform="translate(255,188)"/>
<path d="M0 0 C1.37562854 1.28965176 2.70766393 2.62689293 4 4 C4 4.66 4 5.32 4 6 C4.66 6.33 5.32 6.66 6 7 C4.68 7.33 3.36 7.66 2 8 C2 6.68 2 5.36 2 4 C1.34 4 0.68 4 0 4 C0 2.68 0 1.36 0 0 Z " fill="#D4454D" transform="translate(292,182)"/>
</svg>
