<?xml version="1.0" encoding="UTF-8"?>
<svg version="1.1" xmlns="http://www.w3.org/2000/svg" width="225" height="225">
<path d="M0 0 C3.39382836 0.0315201 6.78719112 0.0410225 10.18115234 0.046875 C12.35954341 0.05603404 14.53792979 0.06640627 16.71630859 0.078125 C17.72053864 0.08237488 18.72476868 0.08662476 19.75942993 0.09100342 C24.85349346 0.14275835 29.71824886 0.41075248 34.73974609 1.28125 C36.88793337 7.4813027 37.16815738 13.37786647 37.36474609 19.90625 C37.40341797 20.91042969 37.44208984 21.91460937 37.48193359 22.94921875 C38.28252361 45.33714675 37.43557973 67.73879722 35.30224609 90.03125 C35.18002686 91.33304199 35.05780762 92.63483398 34.93188477 93.97607422 C34.2991193 100.25274579 33.49918816 106.21841067 31.73974609 112.28125 C10.51327825 113.30971951 -10.56451197 108.14751335 -26.83447266 93.75390625 C-46.23637304 73.97708991 -51.61260142 48.56890799 -51.38525391 21.84375 C-51.36679277 20.43512099 -51.34696268 19.02650918 -51.32568359 17.61791992 C-51.30666992 16.31185791 -51.28765625 15.0057959 -51.26806641 13.66015625 C-51.24373535 12.4801001 -51.2194043 11.30004395 -51.19433594 10.08422852 C-51.06003635 7.32663391 -51.06003635 7.32663391 -52.26025391 5.28125 C-51.1484375 5.11689453 -51.1484375 5.11689453 -50.01416016 4.94921875 C-48.96099609 4.79066406 -47.90783203 4.63210937 -46.82275391 4.46875 C-45.08034424 4.20819824 -45.08034424 4.20819824 -43.30273438 3.94238281 C-40.74027761 3.54163522 -38.24417375 3.0631349 -35.70385742 2.51782227 C-23.7859281 0.03355373 -12.14417535 -0.11381274 0 0 Z M2.73974609 15.28125 C1.74974609 15.28125 0.75974609 15.28125 -0.26025391 15.28125 C-0.26025391 16.27125 -0.26025391 17.26125 -0.26025391 18.28125 C-1.93087891 18.6834375 -1.93087891 18.6834375 -3.63525391 19.09375 C-7.47866342 19.93934019 -7.47866342 19.93934019 -9.26025391 23.28125 C-8.27025391 24.76625 -8.27025391 24.76625 -7.26025391 26.28125 C-4.67645213 26.53155977 -4.67645213 26.53155977 -2.26025391 26.28125 C-2.75525391 26.735 -3.25025391 27.18875 -3.76025391 27.65625 C-5.48634727 29.15760519 -5.48634727 29.15760519 -5.26025391 31.28125 C-2.62025391 31.28125 0.01974609 31.28125 2.73974609 31.28125 C2.73974609 31.94125 2.73974609 32.60125 2.73974609 33.28125 C1.56412109 33.405 0.38849609 33.52875 -0.82275391 33.65625 C-8.00328009 34.50519943 -8.00328009 34.50519943 -14.19775391 37.90625 C-14.72369141 38.586875 -14.72369141 38.586875 -15.26025391 39.28125 C-14.86837891 38.394375 -14.47650391 37.5075 -14.07275391 36.59375 C-12.880837 33.33363508 -12.880837 33.33363508 -14.57275391 30.84375 C-15.12962891 29.998125 -15.68650391 29.1525 -16.26025391 28.28125 C-16.94775391 24.46875 -16.94775391 24.46875 -17.26025391 21.28125 C-18.91025391 20.95125 -20.56025391 20.62125 -22.26025391 20.28125 C-23.58025391 21.93125 -24.90025391 23.58125 -26.26025391 25.28125 C-24.64756699 27.99349618 -23.01123516 30.65477812 -21.26025391 33.28125 C-20.86637603 35.60512947 -20.52539306 37.93918749 -20.26025391 40.28125 C-22.53318332 39.26235061 -24.09049951 38.47222369 -25.76025391 36.59375 C-26.50275391 35.9440625 -26.50275391 35.9440625 -27.26025391 35.28125 C-29.39771312 35.53271579 -30.7195117 35.74050779 -32.26025391 37.28125 C-32.30106174 39.28083364 -32.30279747 41.28170254 -32.26025391 43.28125 C-30.05476209 44.29087514 -27.84414352 45.28281974 -25.61962891 46.25 C-23.86004471 47.01908978 -22.11764188 47.82771662 -20.38525391 48.65625 C-15.51229765 49.63084125 -11.04760771 48.38864501 -6.26025391 47.28125 C-8.57025391 48.60125 -10.88025391 49.92125 -13.26025391 51.28125 C-11.00467655 54.66461604 -9.89836859 54.88197512 -6.26025391 56.28125 C-5.93025391 56.94125 -5.60025391 57.60125 -5.26025391 58.28125 C-6.40494141 58.4359375 -6.40494141 58.4359375 -7.57275391 58.59375 C-10.54360002 59.35373389 -11.53438433 59.77873912 -13.26025391 62.28125 C-13.98717651 65.38964021 -13.98717651 65.38964021 -14.26025391 68.28125 C-18.66940174 69.38353696 -22.74407792 69.35779536 -27.26025391 69.28125 C-27.26025391 71.59125 -27.26025391 73.90125 -27.26025391 76.28125 C-25.73864282 77.59313497 -25.73864282 77.59313497 -23.26025391 78.28125 C-20.28595864 77.87971246 -17.49286813 76.99274776 -14.63525391 76.09375 C-13.85923828 75.87138672 -13.08322266 75.64902344 -12.28369141 75.41992188 C-7.46979238 74.0807487 -7.46979238 74.0807487 -4.26025391 70.28125 C-3.93025391 69.62125 -3.60025391 68.96125 -3.26025391 68.28125 C-2.27025391 68.28125 -1.28025391 68.28125 -0.26025391 68.28125 C0.39974609 66.30125 1.05974609 64.32125 1.73974609 62.28125 C1.71912109 62.87292969 1.69849609 63.46460938 1.67724609 64.07421875 C1.74533319 66.68280555 1.93110518 68.79247953 2.73974609 71.28125 C4.73715696 72.9788381 6.6468068 74.02245008 9.02490234 75.11328125 C9.59080078 75.49871094 10.15669922 75.88414062 10.73974609 76.28125 C10.73974609 77.60125 10.73974609 78.92125 10.73974609 80.28125 C5.78974609 81.27125 5.78974609 81.27125 0.73974609 82.28125 C0.24474609 84.26125 0.24474609 84.26125 -0.26025391 86.28125 C1.32307943 88.69791667 1.32307943 88.69791667 3.73974609 90.28125 C7.37572706 89.90753033 9.91811144 88.02259833 12.86474609 85.96875 C13.73357422 85.37449219 14.60240234 84.78023438 15.49755859 84.16796875 C17.75285339 82.27022069 18.75982289 81.03171627 19.73974609 78.28125 C19.73818385 75.69007687 19.73818385 75.69007687 18.73974609 73.28125 C16.78291729 71.45787247 16.78291729 71.45787247 14.73974609 70.28125 C15.68849609 70.1575 16.63724609 70.03375 17.61474609 69.90625 C20.826418 69.56437823 20.826418 69.56437823 22.73974609 67.28125 C23.63997301 60.85105776 21.3759602 57.2810444 17.73974609 52.28125 C18.06974609 51.95125 18.39974609 51.62125 18.73974609 51.28125 C19.17287109 52.085625 19.60599609 52.89 20.05224609 53.71875 C21.54448612 56.55971354 21.54448612 56.55971354 24.73974609 57.28125 C25.21076124 51.34782596 25.21076124 51.34782596 22.73974609 46.28125 C18.12076257 44.96594505 18.12076257 44.96594505 13.73974609 46.40625 C12.32896098 49.05147209 12.96771973 50.42266588 13.73974609 53.28125 C14.90292627 55.68544194 14.90292627 55.68544194 16.30224609 57.96875 C18.73974609 62.07728399 18.73974609 62.07728399 18.73974609 64.28125 C17.74974609 64.61125 16.75974609 64.94125 15.73974609 65.28125 C15.55412109 64.25 15.36849609 63.21875 15.17724609 62.15625 C14.02952526 57.96200548 11.63790034 56.34302951 8.29443359 53.76953125 C5.98085781 51.55477655 5.81377875 49.39062162 5.73974609 46.28125 C7.05974609 46.28125 8.37974609 46.28125 9.73974609 46.28125 C11.80768586 41.28372889 12.9939854 37.74739506 12.73974609 32.28125 C13.23474609 30.79625 13.23474609 30.79625 13.73974609 29.28125 C13.64470613 27.08815708 13.64470613 27.08815708 13.30224609 24.78125 C12.96515708 22.22108027 12.73974609 19.87225302 12.73974609 17.28125 C11.41974609 17.28125 10.09974609 17.28125 8.73974609 17.28125 C8.24474609 15.79625 8.24474609 15.79625 7.73974609 14.28125 C5.52892758 14.17584074 5.52892758 14.17584074 2.73974609 15.28125 Z " fill="#DF051C" transform="translate(68.26025390625,66.71875)"/>
<path d="M0 0 C24.42 0 48.84 0 74 0 C74 24.72495088 74 24.72495088 67 32 C65.84773409 33.58469523 64.72309063 35.18979465 63.625 36.8125 C63.0371875 37.65296875 62.449375 38.4934375 61.84375 39.359375 C61.2353125 40.23078125 60.626875 41.1021875 60 42 C59.08734375 43.30710937 59.08734375 43.30710937 58.15625 44.640625 C54.37965894 50.07310599 50.6381167 55.52734291 46.92578125 61.00390625 C45.82049072 62.63380493 45.82049072 62.63380493 44.69287109 64.29663086 C43.22352279 66.4639295 41.75685088 68.63296469 40.29150391 70.80297852 C35.6612234 77.63685209 30.89872086 84.35590925 26 91 C29.03126985 91.07838317 29.03126985 91.07838317 32.11157227 90.50610352 C36.51968421 89.93235981 40.77730798 89.87430846 45.21484375 89.90234375 C46.49845543 89.90446617 46.49845543 89.90446617 47.80799866 89.90663147 C50.51786931 89.9121901 53.22765468 89.92473475 55.9375 89.9375 C57.78450401 89.94252035 59.63150932 89.94708232 61.47851562 89.95117188 C65.98573568 89.96129136 70.49277335 89.98087457 75 90 C75 96.93 75 103.86 75 111 C58.23482105 112.02561548 41.54283049 112.11735824 24.75 112.0625 C22.04687646 112.05688984 19.34375132 112.05284136 16.640625 112.04882812 C10.09372969 112.03793867 3.54686927 112.02131004 -3 112 C-3.00807935 110.57846003 -3.01380247 109.15690655 -3.01855469 107.73535156 C-3.0219989 106.9437262 -3.02544312 106.15210083 -3.0289917 105.33648682 C-2.98887885 102.10372915 -2.66675794 98.95472481 -2.25 95.75 C-2.11078125 94.58984375 -1.9715625 93.4296875 -1.828125 92.234375 C-0.89043996 88.57209568 0.50792651 86.79529156 3 84 C3.74190428 82.81198334 4.45626781 81.60569201 5.125 80.375 C7 77 7 77 9 74 C9.66 74 10.32 74 11 74 C11.23332031 73.32324219 11.46664062 72.64648438 11.70703125 71.94921875 C13.320807 68.26824989 15.42770846 65.124365 17.6875 61.8125 C18.13448242 61.15048584 18.58146484 60.48847168 19.04199219 59.80639648 C23.63815892 53.01690467 28.2534753 46.25282994 33.25 39.75 C35.59523558 36.66482378 37.403964 33.54674667 39 30 C39.66 30 40.32 30 41 30 C41.28875 29.030625 41.5775 28.06125 41.875 27.0625 C43 24 43 24 45 23 C45.495 21.515 45.495 21.515 46 20 C45.25008789 20.14219971 44.50017578 20.28439941 43.72753906 20.4309082 C35.38646077 21.87836045 27.26499804 22.28289652 18.82958984 22.20581055 C16.71049375 22.18715215 14.59182721 22.18530435 12.47265625 22.18554688 C2.14805925 22.14805925 2.14805925 22.14805925 1 21 C0.67 14.07 0.34 7.14 0 0 Z " fill="#232126" transform="translate(119,68)"/>
<path d="M0 0 C2 0 4 0 6 0 C6 1.32 6 2.64 6 4 C6.66 4 7.32 4 8 4 C8 4.66 8 5.32 8 6 C8.66 6 9.32 6 10 6 C10.2475 6.598125 10.495 7.19625 10.75 7.8125 C11.87980389 10.13293213 11.87980389 10.13293213 14.125 11.5625 C14.74375 12.036875 15.3625 12.51125 16 13 C16 13.99 16 14.98 16 16 C16.66 16 17.32 16 18 16 C19.485 20.455 19.485 20.455 21 25 C19.02 24.67 17.04 24.34 15 24 C14.67 24.66 14.34 25.32 14 26 C13.34 25.67 12.68 25.34 12 25 C11.00157149 28.10622202 11.06052448 29.89973077 12 33 C12.34060811 34.66519519 12.67558396 36.33157466 13 38 C14.175625 37.938125 15.35125 37.87625 16.5625 37.8125 C19.89712704 37.78345273 21.085399 38.04353675 24.1875 39.625 C29.43647473 42.26175132 35.52782744 40.1438075 41 39 C38.80271391 41.24765368 36.54836445 43.15463264 34 45 C36.31 46.32 38.62 47.64 41 49 C41 49.66 41 50.32 41 51 C39.6078125 51.495 39.6078125 51.495 38.1875 52 C34.75363621 54.1545812 34.54997699 54.51591769 33.4375 58.125 C32.7578125 60.25390625 32.7578125 60.25390625 32 62 C27.9890422 63.9481795 23.28526677 62.65368476 19 62 C19 64.31 19 66.62 19 69 C23.65949211 70.46984258 27.0628412 69.20690542 31.625 67.875 C32.78902344 67.57335937 32.78902344 67.57335937 33.9765625 67.265625 C38.63709025 66.01154408 38.63709025 66.01154408 41.5234375 62.3203125 C41.75933594 61.17175781 41.75933594 61.17175781 42 60 C43.32 60.33 44.64 60.66 46 61 C46.185625 59.5459375 46.185625 59.5459375 46.375 58.0625 C46.58125 57.051875 46.7875 56.04125 47 55 C47.66 54.67 48.32 54.34 49 54 C48.979375 55.093125 48.95875 56.18625 48.9375 57.3125 C48.81455548 60.94384191 48.81455548 60.94384191 50 64 C51.85804317 65.44870619 51.85804317 65.44870619 54.0625 66.6875 C54.79597656 67.12449219 55.52945313 67.56148438 56.28515625 68.01171875 C56.85105469 68.33785156 57.41695312 68.66398437 58 69 C57.67 70.65 57.34 72.3 57 74 C52.05 74.99 52.05 74.99 47 76 C47.33 77.98 47.66 79.96 48 82 C54.74064712 82.26747975 54.74064712 82.26747975 61 80 C61.515625 79.46375 62.03125 78.9275 62.5625 78.375 C64 77 64 77 68 77 C67.979375 76.05125 67.95875 75.1025 67.9375 74.125 C68 71 68 71 69 69 C70.98 69.33 72.96 69.66 75 70 C75.12375 70.9075 75.2475 71.815 75.375 72.75 C75.92109677 75.58970323 76.57263803 77.52590591 78 80 C77.67 80.33 77.34 80.66 77 81 C76.85518713 82.54815405 76.77297155 84.10228354 76.71875 85.65625 C76.68136719 86.59597656 76.64398438 87.53570312 76.60546875 88.50390625 C76.57066406 89.49261719 76.53585938 90.48132813 76.5 91.5 C76.43142372 93.4480743 76.35873213 95.39600959 76.28125 97.34375 C76.25095703 98.21193359 76.22066406 99.08011719 76.18945312 99.97460938 C76 102 76 102 75 103 C65.32523631 103.53063117 55.76170044 103.62369114 47 99 C47 98.34 47 97.68 47 97 C46.39671875 96.96261719 45.7934375 96.92523438 45.171875 96.88671875 C40.38117777 96.49264527 37.80988604 96.02163376 34 93 C32.62328125 93.07154297 32.62328125 93.07154297 31.21875 93.14453125 C25.11283737 92.87035799 21.19056608 88.10326262 17 84 C10.61364234 76.72553948 5.90929412 68.83115951 2 60 C1.658479 59.24235352 1.31695801 58.48470703 0.96508789 57.70410156 C-0.09426336 54.73588136 -0.40736546 52.18312392 -0.6328125 49.04296875 C-0.71660156 47.93115234 -0.80039062 46.81933594 -0.88671875 45.67382812 C-1.00466797 43.9480957 -1.00466797 43.9480957 -1.125 42.1875 C-1.21136719 41.01767578 -1.29773438 39.84785156 -1.38671875 38.64257812 C-1.59834123 35.76216103 -1.802508 32.8814147 -2 30 C-2.66 30 -3.32 30 -4 30 C-4 20.43 -4 10.86 -4 1 C-2.68 1.33 -1.36 1.66 0 2 C0 1.34 0 0.68 0 0 Z " fill="#E2031A" transform="translate(22,74)"/>
<path d="M0 0 C5.64913063 1.65707832 10.26300637 3.47762012 15 7 C14.67 8.65 14.34 10.3 14 12 C10.7 12.66 7.4 13.32 4 14 C4.33 15.98 4.66 17.96 5 20 C11.74064712 20.26747975 11.74064712 20.26747975 18 18 C18.515625 17.46375 19.03125 16.9275 19.5625 16.375 C21 15 21 15 25 15 C24.979375 14.05125 24.95875 13.1025 24.9375 12.125 C25 9 25 9 26 7 C27.98 7.33 29.96 7.66 32 8 C32.12375 8.9075 32.2475 9.815 32.375 10.75 C32.92109677 13.58970323 33.57263803 15.52590591 35 18 C34.505 18.495 34.505 18.495 34 19 C33.85518713 20.54815405 33.77297155 22.10228354 33.71875 23.65625 C33.68136719 24.59597656 33.64398438 25.53570312 33.60546875 26.50390625 C33.57066406 27.49261719 33.53585938 28.48132813 33.5 29.5 C33.43142372 31.4480743 33.35873213 33.39600959 33.28125 35.34375 C33.25095703 36.21193359 33.22066406 37.08011719 33.18945312 37.97460938 C33 40 33 40 32 41 C22.32523631 41.53063117 12.76170044 41.62369114 4 37 C4 36.34 4 35.68 4 35 C3.39671875 34.96261719 2.7934375 34.92523438 2.171875 34.88671875 C-2.53493631 34.49954556 -5.33340776 34.14279335 -9 31 C-9.845625 30.835 -10.69125 30.67 -11.5625 30.5 C-14.42840608 29.91212183 -15.26144866 29.31806845 -17 27 C-17.309375 26.13375 -17.61875 25.2675 -17.9375 24.375 C-18.4634375 23.199375 -18.4634375 23.199375 -19 22 C-20.96128755 21.1762044 -20.96128755 21.1762044 -23 21 C-23.66 20.67 -24.32 20.34 -25 20 C-25 19.34 -25 18.68 -25 18 C-24.01 17.67 -23.02 17.34 -22 17 C-22.66 16.67 -23.32 16.34 -24 16 C-24 15.34 -24 14.68 -24 14 C-21 13 -21 13 -18.875 12.625 C-18.25625 12.41875 -17.6375 12.2125 -17 12 C-16.67 11.01 -16.34 10.02 -16 9 C-12.37 9 -8.74 9 -5 9 C-5 8.34 -5 7.68 -5 7 C-4.0409375 6.6596875 -4.0409375 6.6596875 -3.0625 6.3125 C-0.72806339 5.14749104 -0.72806339 5.14749104 -0.25 2.375 C-0.1675 1.59125 -0.085 0.8075 0 0 Z " fill="#E2031B" transform="translate(65,136)"/>
<path d="M0 0 C0.66 0 1.32 0 2 0 C3 2 4 4 5 6 C5.53625 7.051875 6.0725 8.10375 6.625 9.1875 C8 12 8 12 9 15 C10.72226496 18.24849977 10.72226496 18.24849977 14 19 C13.67 16.03 13.34 13.06 13 10 C14.98 10 16.96 10 19 10 C19 12.31 19 14.62 19 17 C23.65949211 18.46984258 27.0628412 17.20690542 31.625 15.875 C32.78902344 15.57335937 32.78902344 15.57335937 33.9765625 15.265625 C38.63709025 14.01154408 38.63709025 14.01154408 41.5234375 10.3203125 C41.75933594 9.17175781 41.75933594 9.17175781 42 8 C43.32 8.33 44.64 8.66 46 9 C46.185625 7.5459375 46.185625 7.5459375 46.375 6.0625 C46.58125 5.051875 46.7875 4.04125 47 3 C47.66 2.67 48.32 2.34 49 2 C49 5.3 49 8.6 49 12 C47.02 11.34 45.04 10.68 43 10 C43 11.65 43 13.3 43 15 C41.35 15.66 39.7 16.32 38 17 C38 17.66 38 18.32 38 19 C37.24074219 19.02578125 36.48148438 19.0515625 35.69921875 19.078125 C34.70535156 19.13484375 33.71148437 19.1915625 32.6875 19.25 C31.70136719 19.29640625 30.71523438 19.3428125 29.69921875 19.390625 C26.36092172 20.14427816 25.83533848 21.22277227 24 24 C23.01 24.33 22.02 24.66 21 25 C20.34 24.67 19.68 24.34 19 24 C19 24.66 19 25.32 19 26 C20.32 26.33 21.64 26.66 23 27 C21.35 27.33 19.7 27.66 18 28 C18 28.66 18 29.32 18 30 C20.31 30.66 22.62 31.32 25 32 C25.33 33.65 25.66 35.3 26 37 C27.485 37.495 27.485 37.495 29 38 C29.33 38.99 29.66 39.98 30 41 C19.08119373 37.92908574 11.38770197 26.03863294 6.16796875 16.734375 C0 4.54850973 0 4.54850973 0 0 Z " fill="#E3081D" transform="translate(22,126)"/>
<path d="M0 0 C1.98 0 3.96 0 6 0 C6.0272367 2.52090778 6.04695207 5.04151457 6.0625 7.5625 C6.07087891 8.26697266 6.07925781 8.97144531 6.08789062 9.69726562 C6.11371184 15.30046867 5.78629448 20.64111656 4 26 C6.31 26 8.62 26 11 26 C11 26.66 11 27.32 11 28 C12.98 27.67 14.96 27.34 17 27 C17.495 34.92 17.495 34.92 18 43 C17.01 43 16.02 43 15 43 C15 45.31 15 47.62 15 50 C14.67 50 14.34 50 14 50 C13.7525 48.80375 13.505 47.6075 13.25 46.375 C12.26016814 42.29284671 10.34602042 39.478582 8 36 C8.33 35.01 8.66 34.02 9 33 C9.61875 33.969375 10.2375 34.93875 10.875 35.9375 C12.65678846 39.02835362 12.65678846 39.02835362 15 40 C14.67 37.03 14.34 34.06 14 31 C10.59679066 30.32326553 10.59679066 30.32326553 7 30 C6.34 30.66 5.68 31.32 5 32 C5.42409284 36.69643548 7.6134219 39.98747303 10.0390625 43.9140625 C11 46 11 46 10 49 C9.01 49 8.02 49 7 49 C6.649375 47.96875 6.29875 46.9375 5.9375 45.875 C4.60197627 42.65288692 3.0727009 41.04396911 0.3125 38.9375 C-2.94870872 36.39567555 -2.94870872 36.39567555 -3.4375 32.625 C-3.293125 31.75875 -3.14875 30.8925 -3 30 C-1.68 30 -0.36 30 1 30 C1.144375 28.865625 1.28875 27.73125 1.4375 26.5625 C2 23 2 23 3 22 C3 21.05125 3 20.1025 3 19.125 C3 16 3 16 4 13 C3.86750298 10.80648177 3.86750298 10.80648177 3.5 8.5 C3.0401851 5.3648984 2.96912558 4.09262325 4 1 C2.68 0.67 1.36 0.34 0 0 Z " fill="#D35A65" transform="translate(77,83)"/>
<path d="M0 0 C2.33137149 0.01508506 4.66275251 0.02876665 6.99414062 0.04101562 C12.64213881 0.07369264 18.28977333 0.12358425 23.9375 0.1875 C23.9375 0.5175 23.9375 0.8475 23.9375 1.1875 C8.0975 1.1875 -7.7425 1.1875 -24.0625 1.1875 C-24.0625 2.1775 -24.0625 3.1675 -24.0625 4.1875 C-25.06152344 4.32027344 -26.06054688 4.45304687 -27.08984375 4.58984375 C-28.38019531 4.76644531 -29.67054687 4.94304687 -31 5.125 C-32.28777344 5.29902344 -33.57554688 5.47304687 -34.90234375 5.65234375 C-37.91716313 5.84912423 -37.91716313 5.84912423 -39.0625 7.1875 C-41.0904979 7.4128331 -43.11924874 7.63517185 -45.15234375 7.80859375 C-47.2953948 8.04972227 -47.2953948 8.04972227 -49.0625 10.1875 C-50.3825 9.8575 -51.7025 9.5275 -53.0625 9.1875 C-53.3925 18.4275 -53.7225 27.6675 -54.0625 37.1875 C-53.4025 37.1875 -52.7425 37.1875 -52.0625 37.1875 C-51.17610611 39.84668166 -50.88260975 41.66814641 -50.74609375 44.41796875 C-50.70419922 45.22041016 -50.66230469 46.02285156 -50.61914062 46.84960938 C-50.57982422 47.68298828 -50.54050781 48.51636719 -50.5 49.375 C-50.45681641 50.21998047 -50.41363281 51.06496094 -50.36914062 51.93554688 C-50.26318482 54.01934433 -50.1623498 56.10340103 -50.0625 58.1875 C-57.39137704 47.19418444 -55.31918323 30.24511809 -55.12744141 17.52636719 C-55.10858887 16.21958008 -55.08973633 14.91279297 -55.0703125 13.56640625 C-55.04598145 12.3863501 -55.02165039 11.20629395 -54.99658203 9.99047852 C-54.86228244 7.23288391 -54.86228244 7.23288391 -56.0625 5.1875 C-54.95068359 5.02314453 -54.95068359 5.02314453 -53.81640625 4.85546875 C-52.76324219 4.69691406 -51.71007812 4.53835937 -50.625 4.375 C-49.46282959 4.20137939 -48.30065918 4.02775879 -47.10327148 3.84887695 C-44.5453636 3.44892175 -42.05665885 2.97002083 -39.52148438 2.421875 C-26.36097433 -0.33595145 -13.396941 -0.15216184 0 0 Z " fill="#D04957" transform="translate(72.0625,66.8125)"/>
<path d="M0 0 C0.33 0 0.66 0 1 0 C1.19847191 8.49689901 0.64071985 16.69984024 -0.4375 25.125 C-0.57220703 26.24648437 -0.70691406 27.36796875 -0.84570312 28.5234375 C-1.86049734 36.72099468 -1.86049734 36.72099468 -3 39 C-20.74966238 39.86001056 -35.26593446 36.15331489 -51 28 C-49.2109375 26.88671875 -49.2109375 26.88671875 -47 26 C-45.24521259 26.94238583 -43.49294527 27.89720897 -41.81640625 28.97265625 C-39.30092947 30.39538828 -36.84882367 30.72206598 -34 31 C-34 31.66 -34 32.32 -34 33 C-33.22914062 33.13277344 -32.45828125 33.26554687 -31.6640625 33.40234375 C-30.66117188 33.57894531 -29.65828125 33.75554687 -28.625 33.9375 C-27.62726563 34.11152344 -26.62953125 34.28554687 -25.6015625 34.46484375 C-23 35 -23 35 -21 36 C-18.11629667 36.07194869 -15.25760336 36.09291708 -12.375 36.0625 C-11.57320312 36.05798828 -10.77140625 36.05347656 -9.9453125 36.04882812 C-7.96350994 36.03703168 -5.98174567 36.01909605 -4 36 C-4.05220703 34.96166016 -4.05220703 34.96166016 -4.10546875 33.90234375 C-4.31123945 26.46520256 -3.31736228 19.77347233 -1.734375 12.515625 C-0.86226607 8.34063543 -0.37236489 4.24495979 0 0 Z " fill="#C23948" transform="translate(103,140)"/>
<path d="M0 0 C2.64 0 5.28 0 8 0 C7.01 0.66 6.02 1.32 5 2 C3.98131338 2.98095748 2.97648017 3.97702078 2 5 C2.33 5.66 2.66 6.32 3 7 C4.65 7 6.3 7 8 7 C8 7.99 8 8.98 8 10 C7.01 10.33 6.02 10.66 5 11 C5 11.66 5 12.32 5 13 C7.64 13 10.28 13 13 13 C13 13.66 13 14.32 13 15 C11.25183142 15.50636607 9.50137737 16.00484619 7.75 16.5 C6.77546875 16.7784375 5.8009375 17.056875 4.796875 17.34375 C2 18 2 18 -2 18 C-2.33 18.99 -2.66 19.98 -3 21 C-3.99 21.33 -4.98 21.66 -6 22 C-5.4121875 20.4221875 -5.4121875 20.4221875 -4.8125 18.8125 C-3.58778754 15.10417994 -3.58778754 15.10417994 -5.375 12.5 C-5.91125 11.675 -6.4475 10.85 -7 10 C-7.1875 6.1875 -7.1875 6.1875 -7 3 C-6.34 4.32 -5.68 5.64 -5 7 C-4.34 7 -3.68 7 -3 7 C-3 6.34 -3 5.68 -3 5 C-2.34 5 -1.68 5 -1 5 C-0.67 3.35 -0.34 1.7 0 0 Z " fill="#D85560" transform="translate(58,85)"/>
<path d="M0 0 C2.31 0 4.62 0 7 0 C7.33 0.66 7.66 1.32 8 2 C6.8553125 1.8453125 6.8553125 1.8453125 5.6875 1.6875 C4.800625 1.790625 3.91375 1.89375 3 2 C1.1375562 4.40858714 1.1375562 4.40858714 0 7 C0.804375 8.010625 1.60875 9.02125 2.4375 10.0625 C5.10547019 13.75545309 5.72410871 16.49377556 6 21 C5.34 21.33 4.68 21.66 4 22 C2 20.625 2 20.625 0 19 C0 18.34 0 17.68 0 17 C-1.66611905 16.957279 -3.33382885 16.95936168 -5 17 C-6.35618499 18.12534105 -6.35618499 18.12534105 -6.0625 21.0625 C-6.041875 22.031875 -6.02125 23.00125 -6 24 C-4.35 24.33 -2.7 24.66 -1 25 C-1 25.33 -1 25.66 -1 26 C-4.96 26.495 -4.96 26.495 -9 27 C-10.125 21.375 -10.125 21.375 -9 18 C-9.66 17.67 -10.32 17.34 -11 17 C-10.375 15.0625 -10.375 15.0625 -9 13 C-5.41410857 12.00815769 -3.55287397 11.81570868 0 13 C-0.495 12.29875 -0.99 11.5975 -1.5 10.875 C-3.1936681 7.62880281 -3.25162315 5.60659844 -3 2 C-2.01 2.33 -1.02 2.66 0 3 C0 2.01 0 1.02 0 0 Z " fill="#D33344" transform="translate(43,86)"/>
<path d="M0 0 C0.76570313 0.35964844 0.76570313 0.35964844 1.546875 0.7265625 C8.45491312 3.54367024 13.85435981 2.68061588 21 1 C18.80271391 3.24765368 16.54836445 5.15463264 14 7 C16.31 8.32 18.62 9.64 21 11 C21 11.66 21 12.32 21 13 C20.071875 13.33 19.14375 13.66 18.1875 14 C14.75363621 16.1545812 14.54997699 16.51591769 13.4375 20.125 C12.7578125 22.25390625 12.7578125 22.25390625 12 24 C7.9890422 25.9481795 3.28526677 24.65368476 -1 24 C-0.01 23.34 0.98 22.68 2 22 C1.34 21.34 0.68 20.68 0 20 C3.3 20.33 6.6 20.66 10 21 C10.28875 19.9275 10.5775 18.855 10.875 17.75 C11.72820109 14.90599636 12.5636503 12.56491017 14 10 C12.35 9.67 10.7 9.34 9 9 C8.67 8.01 8.34 7.02 8 6 C5.69 5.67 3.38 5.34 1 5 C0.67 3.35 0.34 1.7 0 0 Z " fill="#C75963" transform="translate(42,112)"/>
<path d="M0 0 C2.08826214 3.13239321 2.25307573 3.92362364 2.30859375 7.5 C2.33195801 8.38179932 2.35532227 9.26359863 2.37939453 10.17211914 C2.39856934 11.10531982 2.41774414 12.03852051 2.4375 13 C2.6513075 19.91135651 3.23931522 25.89875153 5.43359375 32.4921875 C6.52137847 37.30844811 5.70070265 42.16261907 5 47 C5.99 47.33 6.98 47.66 8 48 C8.33 50.31 8.66 52.62 9 55 C8.34 54.67 7.68 54.34 7 54 C6.375 51.4375 6.375 51.4375 6 49 C5.34 49 4.68 49 4 49 C3.34 41.74 2.68 34.48 2 27 C1.34 27 0.68 27 0 27 C0 18.09 0 9.18 0 0 Z " fill="#C60F27" transform="translate(18,77)"/>
<path d="M0 0 C1.04005702 3.38018531 1.08004482 6.4780279 1 10 C-0.98 9.34 -2.96 8.68 -5 8 C-5 9.65 -5 11.3 -5 13 C-6.65 13.66 -8.3 14.32 -10 15 C-10 15.66 -10 16.32 -10 17 C-10.78246094 17.04898438 -11.56492187 17.09796875 -12.37109375 17.1484375 C-13.38300781 17.22320312 -14.39492188 17.29796875 -15.4375 17.375 C-16.44683594 17.44460937 -17.45617187 17.51421875 -18.49609375 17.5859375 C-19.32238281 17.72257812 -20.14867187 17.85921875 -21 18 C-21.33 18.66 -21.66 19.32 -22 20 C-24 19.33333333 -26 18.66666667 -28 18 C-28.33 17.01 -28.66 16.02 -29 15 C-28.42330566 15.18191895 -27.84661133 15.36383789 -27.25244141 15.55126953 C-23.41025402 16.31670855 -20.06820996 14.95321902 -16.375 13.875 C-15.21097656 13.57335937 -15.21097656 13.57335937 -14.0234375 13.265625 C-9.36290975 12.01154408 -9.36290975 12.01154408 -6.4765625 8.3203125 C-6.24066406 7.17175781 -6.24066406 7.17175781 -6 6 C-4.68 6.33 -3.36 6.66 -2 7 C-1.855625 6.030625 -1.71125 5.06125 -1.5625 4.0625 C-1 1 -1 1 0 0 Z " fill="#D13243" transform="translate(70,128)"/>
<path d="M0 0 C1.8871875 0.0309375 1.8871875 0.0309375 3.8125 0.0625 C4.1425 1.0525 4.4725 2.0425 4.8125 3.0625 C7.4525 2.7325 10.0925 2.4025 12.8125 2.0625 C11.9375 9.6875 11.9375 9.6875 10.8125 13.0625 C10.998125 13.92875 11.18375 14.795 11.375 15.6875 C12.07155995 21.06096251 11.10017428 26.03193672 8.1875 30.625 C7.73375 31.099375 7.28 31.57375 6.8125 32.0625 C6.96589844 31.35867187 7.11929688 30.65484375 7.27734375 29.9296875 C8.43543184 23.72504034 8.8125 17.36699044 8.8125 11.0625 C8.8125 8.47987783 9.03112699 6.50429067 9.8125 4.0625 C8.905 4.0625 7.9975 4.0625 7.0625 4.0625 C2.80669696 4.0625 -1.03090125 3.98618861 -5.1875 3.0625 C-5.1875 4.0525 -5.1875 5.0425 -5.1875 6.0625 C-5.8475 5.7325 -6.5075 5.4025 -7.1875 5.0625 C-7.1875 3.7425 -7.1875 2.4225 -7.1875 1.0625 C-4.43671116 0.14557039 -2.82801087 -0.04636083 0 0 Z " fill="#C9152B" transform="translate(73.1875,78.9375)"/>
<path d="M0 0 C0.33 0 0.66 0 1 0 C2.18820252 5.82119386 2.33784516 11.64413402 2.5625 17.5625 C2.60568359 18.57119141 2.64886719 19.57988281 2.69335938 20.61914062 C3.19077181 33.03866053 2.98284425 45.39557278 2.5 57.8125 C2.45230469 59.08931641 2.40460938 60.36613281 2.35546875 61.68164062 C2.23913138 64.78784841 2.12061062 67.89395572 2 71 C1.67 71 1.34 71 1 71 C0.67 51.2 0.34 31.4 0 11 C-0.33 11 -0.66 11 -1 11 C-0.67 7.37 -0.34 3.74 0 0 Z " fill="#D98E95" transform="translate(103,69)"/>
<path d="M0 0 C0.66 0.66 1.32 1.32 2 2 C4.58354218 2.16687448 4.58354218 2.16687448 7 2 C7 2.99 7 3.98 7 5 C6.01 5.33 5.02 5.66 4 6 C4 6.66 4 7.32 4 8 C6.64 8 9.28 8 12 8 C12 8.66 12 9.32 12 10 C10.25183142 10.50636607 8.50137737 11.00484619 6.75 11.5 C5.77546875 11.7784375 4.8009375 12.056875 3.796875 12.34375 C1 13 1 13 -3 13 C-3.33 13.99 -3.66 14.98 -4 16 C-4.99 16.33 -5.98 16.66 -7 17 C-5.92598892 14.08482708 -5.22189824 12.22189824 -3 10 C-0.875 10.375 -0.875 10.375 1 11 C1 9.68 1 8.36 1 7 C0.34 6.67 -0.32 6.34 -1 6 C-0.34 5.34 0.32 4.68 1 4 C0.6814823 1.89179203 0.6814823 1.89179203 0 0 Z " fill="#C57980" transform="translate(59,90)"/>
<path d="M0 0 C2.80063432 1.14194429 5.47332213 2.32801232 8 4 C9 6.75 9 6.75 9 9 C5.35206816 10.27253436 1.8063457 11.32829194 -2 12 C-1.81584568 14.94091587 -1.81584568 14.94091587 -1 18 C0.95163118 19.43637698 0.95163118 19.43637698 3 20 C2.01 20.33 1.02 20.66 0 21 C0 20.34 0 19.68 0 19 C-0.66 19 -1.32 19 -2 19 C-2 18.34 -2 17.68 -2 17 C-3.32 16.34 -4.64 15.68 -6 15 C-6.042721 13.33388095 -6.04063832 11.66617115 -6 10 C-4.26043342 8.26043342 -1.8063378 8.62809614 0.5625 8.4375 C1.57441406 8.35371094 2.58632812 8.26992187 3.62890625 8.18359375 C4.41136719 8.12300781 5.19382812 8.06242188 6 8 C6 7.01 6 6.02 6 5 C4.35 4.67 2.7 4.34 1 4 C0.67 2.68 0.34 1.36 0 0 Z " fill="#CC6D72" transform="translate(71,138)"/>
<path d="M0 0 C0.33 0.99 0.66 1.98 1 3 C-0.32 3 -1.64 3 -3 3 C-2.34 3.33 -1.68 3.66 -1 4 C-1 4.99 -1 5.98 -1 7 C0.32 7 1.64 7 3 7 C4.5 8.5625 4.5 8.5625 6 11 C6.54914063 11.85078125 6.54914063 11.85078125 7.109375 12.71875 C8.16519605 14.42541965 9.08952252 16.21156209 10 18 C9.67 18.99 9.34 19.98 9 21 C8.01 21 7.02 21 6 21 C5.649375 19.96875 5.29875 18.9375 4.9375 17.875 C3.60197627 14.65288692 2.0727009 13.04396911 -0.6875 10.9375 C-3.94870872 8.39567555 -3.94870872 8.39567555 -4.4375 4.625 C-4.293125 3.75875 -4.14875 2.8925 -4 2 C-2.68 2 -1.36 2 0 2 C0 1.34 0 0.68 0 0 Z " fill="#CA747A" transform="translate(78,111)"/>
<path d="M0 0 C2.9375 0.75 2.9375 0.75 6 2 C6.875 4.125 6.875 4.125 7 6 C8.65 6.33 10.3 6.66 12 7 C12 7.99 12 8.98 12 10 C9.59454362 11.20272819 8.05003047 11.10071472 5.375 11.0625 C4.14910156 11.04896484 4.14910156 11.04896484 2.8984375 11.03515625 C1.95871094 11.01775391 1.95871094 11.01775391 1 11 C1 10.01 1 9.02 1 8 C0.8503356 6.60224142 0.68279513 5.2063129 0.5 3.8125 C0.335 2.554375 0.17 1.29625 0 0 Z " fill="#DC1228" transform="translate(65,136)"/>
<path d="M0 0 C0.33 0 0.66 0 1 0 C1 9.9 1 19.8 1 30 C1.66 30 2.32 30 3 30 C3.88639389 32.65918166 4.17989025 34.48064641 4.31640625 37.23046875 C4.35830078 38.03291016 4.40019531 38.83535156 4.44335938 39.66210938 C4.48267578 40.49548828 4.52199219 41.32886719 4.5625 42.1875 C4.60568359 43.03248047 4.64886719 43.87746094 4.69335938 44.74804688 C4.79931518 46.83184433 4.9001502 48.91590103 5 51 C-3.75055771 37.87416344 -0.27977725 15.13810116 0 0 Z " fill="#DB7983" transform="translate(17,74)"/>
<path d="M0 0 C18.15 0 36.3 0 55 0 C55 2.31 55 4.62 55 7 C54.773125 6.360625 54.54625 5.72125 54.3125 5.0625 C53.18267334 2.77578023 53.18267334 2.77578023 50.72883606 2.38392639 C48.13134165 2.01847877 45.64736253 1.84309113 43.02612305 1.79467773 C42.06550461 1.77473251 41.10488617 1.75478729 40.11515808 1.73423767 C38.57895561 1.70916893 38.57895561 1.70916893 37.01171875 1.68359375 C35.95338333 1.66281265 34.89504791 1.64203156 33.80464172 1.62062073 C30.43232559 1.55536897 27.05993326 1.49635363 23.6875 1.4375 C21.39777866 1.3942916 19.10806495 1.35067657 16.81835938 1.30664062 C11.21231955 1.19971259 5.60620434 1.09790137 0 1 C0 0.67 0 0.34 0 0 Z " fill="#C3162B" transform="translate(48,68)"/>
<path d="M0 0 C2 1 4 2 6 3 C6 3.99 6 4.98 6 6 C8.31 6.66 10.62 7.32 13 8 C13.33 9.65 13.66 11.3 14 13 C14.99 13.33 15.98 13.66 17 14 C17.33 14.99 17.66 15.98 18 17 C10.44381526 14.87482304 4.55254174 8.11747797 0 2 C0 1.34 0 0.68 0 0 Z " fill="#CC3343" transform="translate(34,150)"/>
<path d="M0 0 C0.66 0.33 1.32 0.66 2 1 C2.33 0.67 2.66 0.34 3 0 C3.66 1.32 4.32 2.64 5 4 C3.35 3.67 1.7 3.34 0 3 C0.33 3.99 0.66 4.98 1 6 C0.01 6.66 -0.98 7.32 -2 8 C-2.04125 8.9075 -2.0825 9.815 -2.125 10.75 C-3.36708445 15.36345654 -6.1128873 16.49302036 -10.06640625 18.8984375 C-10.70449219 19.26195313 -11.34257812 19.62546875 -12 20 C-10.46226926 16.83582328 -8.77588602 13.7867651 -7 10.75 C-6.484375 9.85796875 -5.96875 8.9659375 -5.4375 8.046875 C-4.963125 7.37140625 -4.48875 6.6959375 -4 6 C-3.34 6 -2.68 6 -2 6 C-1.34 4.02 -0.68 2.04 0 0 Z " fill="#555555" transform="translate(162,92)"/>
<path d="M0 0 C0.33 0 0.66 0 1 0 C1.20875408 8.54732003 0.61014235 16.77891379 -0.5 25.25 C-0.64308594 26.38824219 -0.78617187 27.52648437 -0.93359375 28.69921875 C-1.2824806 31.46705442 -1.63802596 34.23385089 -2 37 C-2.33 37 -2.66 37 -3 37 C-3.44218385 24.35681738 -2.16365445 12.453892 0 0 Z " fill="#D9757F" transform="translate(103,140)"/>
<path d="M0 0 C2 2 2 2 2.125 5.625 C2.08375 6.73875 2.0425 7.8525 2 9 C1.236875 9.268125 0.47375 9.53625 -0.3125 9.8125 C-2.99379205 10.77258128 -2.99379205 10.77258128 -4.375 12.5625 C-6.92029154 14.81410406 -9.71074113 14.68969256 -13 15 C-10.75873141 12.58632613 -8.79196903 10.87687963 -5.9375 9.1875 C-2.1972656 6.40221906 -1.50172067 4.33830414 0 0 Z " fill="#D34E60" transform="translate(88,142)"/>
<path d="M0 0 C0.66 0 1.32 0 2 0 C3 2 4 4 5 6 C5.53625 7.051875 6.0725 8.10375 6.625 9.1875 C8.70392361 13.43984375 9.38319733 17.32992267 10 22 C6.68855986 18.21344019 4.69587352 14.50382034 2.75 9.875 C2.481875 9.25496094 2.21375 8.63492188 1.9375 7.99609375 C0.74172613 5.15918126 0 3.11050544 0 0 Z " fill="#D04B5C" transform="translate(22,126)"/>
<path d="M0 0 C2.7972908 2.06756277 3.02692273 3.14440371 3.6875 6.6875 C3.790625 7.780625 3.89375 8.87375 4 10 C3.01 10.495 3.01 10.495 2 11 C0 9.625 0 9.625 -2 8 C-2 7.34 -2 6.68 -2 6 C-5.62885324 5.84850702 -5.62885324 5.84850702 -9 7 C-9 6.01 -9 5.02 -9 4 C-6.36 3.67 -3.72 3.34 -1 3 C-0.67 2.01 -0.34 1.02 0 0 Z " fill="#C75661" transform="translate(45,97)"/>
<path d="M0 0 C4.1255442 6.1883163 2.9186932 12.97553043 2 20 C2.99 20.33 3.98 20.66 5 21 C5.33 23.31 5.66 25.62 6 28 C5.34 27.67 4.68 27.34 4 27 C3.375 24.4375 3.375 24.4375 3 22 C2.34 22 1.68 22 1 22 C-0.17402193 14.66236293 -0.09377123 7.41834582 0 0 Z " fill="#DB0D27" transform="translate(21,104)"/>
<path d="M0 0 C2.38212548 0.92638213 4.69430342 1.83235994 6.9375 3.0625 C9.57505571 4.26138896 12.14204094 4.61027831 15 5 C15 5.66 15 6.32 15 7 C16.32 7.33 17.64 7.66 19 8 C15.43002266 9.78498867 11.66563901 8.14654574 8 7 C4.5813281 5.48269763 1.28073854 3.79447494 -2 2 C-1.34 1.34 -0.68 0.68 0 0 Z " fill="#C03146" transform="translate(54,166)"/>
<path d="M0 0 C0.66 0.33 1.32 0.66 2 1 C1.34 1.66 0.68 2.32 0 3 C-0.71927295 5.31765729 -1.3909893 7.65095874 -2 10 C-6.61073111 11.29676812 -10.33840089 10.71109139 -15 10 C-14.01 9.34 -13.02 8.68 -12 8 C-12.66 7.34 -13.32 6.68 -14 6 C-10.7 6.33 -7.4 6.66 -4 7 C-3.896875 6.21625 -3.79375 5.4325 -3.6875 4.625 C-3 2 -3 2 0 0 Z " fill="#D0515B" transform="translate(56,126)"/>
<path d="M0 0 C0.721875 0.185625 1.44375 0.37125 2.1875 0.5625 C5.12826973 1.01995307 7.14103058 0.73516357 10 0 C9.67 0.66 9.34 1.32 9 2 C10.32 2.66 11.64 3.32 13 4 C11.6875 5.5 11.6875 5.5 10 7 C9.01 7 8.02 7 7 7 C7 6.34 7 5.68 7 5 C6.01 5 5.02 5 4 5 C2.32900023 4.68911632 0.66128463 4.35919668 -1 4 C-0.67 2.68 -0.34 1.36 0 0 Z " fill="#14111A" transform="translate(139,161)"/>
<path d="M0 0 C2.875 -0.1875 2.875 -0.1875 6 0 C6.66 0.99 7.32 1.98 8 3 C7.01 3.99 6.02 4.98 5 6 C5 5.34 5 4.68 5 4 C4.14277344 4.144375 3.28554687 4.28875 2.40234375 4.4375 C-3.45609958 5.38858888 -9.06182678 6.2761941 -15 6 C-11.79989612 4.1866078 -8.86716157 3.47786026 -5.25 2.875 C-4.26515625 2.70742187 -3.2803125 2.53984375 -2.265625 2.3671875 C-1.51796875 2.24601562 -0.7703125 2.12484375 0 2 C0 1.34 0 0.68 0 0 Z " fill="#939394" transform="translate(160,84)"/>
<path d="M0 0 C3.08793255 2.0586217 3.47838607 2.8553312 5 6 C5.66 6.33 6.32 6.66 7 7 C7.33 5.02 7.66 3.04 8 1 C8.33 1 8.66 1 9 1 C9.33 3.97 9.66 6.94 10 10 C9.01 10 8.02 10 7 10 C7 12.31 7 14.62 7 17 C6.67 17 6.34 17 6 17 C5.7525 15.80375 5.505 14.6075 5.25 13.375 C4.25379199 9.29632229 2.40447052 6.44640775 0 3 C0 2.01 0 1.02 0 0 Z " fill="#C87883" transform="translate(85,116)"/>
<path d="M0 0 C2.31 0 4.62 0 7 0 C7.33 1.32 7.66 2.64 8 4 C5.69 4.33 3.38 4.66 1 5 C1 5.66 1 6.32 1 7 C0.01 6.67 -0.98 6.34 -2 6 C-1.49396008 3.83125748 -1.00016187 2.00032373 0 0 Z " fill="#D60E21" transform="translate(35,112)"/>
<path d="M0 0 C2.64 0 5.28 0 8 0 C6 1.33333333 4 2.66666667 2 4 C2.33 5.98 2.66 7.96 3 10 C2.01 10 1.02 10 0 10 C-0.33 9.34 -0.66 8.68 -1 8 C-1.99 8.495 -1.99 8.495 -3 9 C-3 7.68 -3 6.36 -3 5 C-2.34 5 -1.68 5 -1 5 C-0.67 3.35 -0.34 1.7 0 0 Z " fill="#C03741" transform="translate(58,85)"/>
<path d="M0 0 C1.2065625 0.0309375 1.2065625 0.0309375 2.4375 0.0625 C1.4475 0.5575 1.4475 0.5575 0.4375 1.0625 C0.35523332 4.10636724 0.46141783 6.13425348 1.4375 9.0625 C3.43766466 10.27132096 3.43766466 10.27132096 5.4375 11.0625 C4.4475 11.3925 3.4575 11.7225 2.4375 12.0625 C2.4375 11.4025 2.4375 10.7425 2.4375 10.0625 C1.7775 10.0625 1.1175 10.0625 0.4375 10.0625 C0.4375 9.4025 0.4375 8.7425 0.4375 8.0625 C-0.8825 7.4025 -2.2025 6.7425 -3.5625 6.0625 C-3.605221 4.39638095 -3.60313832 2.72867115 -3.5625 1.0625 C-2.5625 0.0625 -2.5625 0.0625 0 0 Z " fill="#D74959" transform="translate(68.5625,146.9375)"/>
<path d="M0 0 C0 3.63195496 -0.95453155 4.74713911 -3 7.6875 C-3.556875 8.49574219 -4.11375 9.30398437 -4.6875 10.13671875 C-5.120625 10.75160156 -5.55375 11.36648437 -6 12 C-8.046875 8.28125 -8.046875 8.28125 -7.625 5.75 C-7.41875 5.1725 -7.2125 4.595 -7 4 C-6.01 4 -5.02 4 -4 4 C-3.67 3.01 -3.34 2.02 -3 1 C-2.01 0.67 -1.02 0.34 0 0 Z " fill="#404041" transform="translate(155,142)"/>
<path d="M0 0 C0.66 0.66 1.32 1.32 2 2 C4.58354218 2.16687448 4.58354218 2.16687448 7 2 C7 2.99 7 3.98 7 5 C6.01 5.33 5.02 5.66 4 6 C4 6.66 4 7.32 4 8 C6.64 8 9.28 8 12 8 C12 8.66 12 9.32 12 10 C9.03 9.67 6.06 9.34 3 9 C3 8.01 3 7.02 3 6 C2.34 5.67 1.68 5.34 1 5 C0.375 2.4375 0.375 2.4375 0 0 Z " fill="#D5A6AB" transform="translate(59,90)"/>
<path d="M0 0 C1.8871875 0.0309375 1.8871875 0.0309375 3.8125 0.0625 C3.4825 1.0525 3.1525 2.0425 2.8125 3.0625 C-0.47446233 3.86203138 -1.89773192 4.15908936 -5.1875 3.0625 C-5.1875 4.0525 -5.1875 5.0425 -5.1875 6.0625 C-5.8475 5.7325 -6.5075 5.4025 -7.1875 5.0625 C-7.1875 3.7425 -7.1875 2.4225 -7.1875 1.0625 C-4.43671116 0.14557039 -2.82801087 -0.04636083 0 0 Z " fill="#D25258" transform="translate(73.1875,78.9375)"/>
<path d="M0 0 C-1.65 0.33 -3.3 0.66 -5 1 C-5 1.66 -5 2.32 -5 3 C-10.28 3 -15.56 3 -21 3 C-21 2.67 -21 2.34 -21 2 C-19.66195313 1.80083984 -19.66195313 1.80083984 -18.296875 1.59765625 C-17.12640625 1.42105469 -15.9559375 1.24445313 -14.75 1.0625 C-13.00976562 0.80146484 -13.00976562 0.80146484 -11.234375 0.53515625 C-8.14116912 0.07349349 -8.14116912 0.07349349 -5.71875 -0.59375 C-3.54877884 -1.10665228 -2.0965127 -0.67387908 0 0 Z " fill="#D96570" transform="translate(37,70)"/>
<path d="M0 0 C1.04005702 3.38018531 1.08004482 6.4780279 1 10 C-0.98 9.34 -2.96 8.68 -5 8 C-5 8.99 -5 9.98 -5 11 C-5.66 10.67 -6.32 10.34 -7 10 C-6.67 8.68 -6.34 7.36 -6 6 C-4.02 6.495 -4.02 6.495 -2 7 C-1.855625 6.030625 -1.71125 5.06125 -1.5625 4.0625 C-1 1 -1 1 0 0 Z " fill="#C98E97" transform="translate(70,128)"/>
<path d="M0 0 C1.98 0.99 1.98 0.99 4 2 C4 2.66 4 3.32 4 4 C4.66 4 5.32 4 6 4 C6 4.66 6 5.32 6 6 C7.65 5.34 9.3 4.68 11 4 C11 4.99 11 5.98 11 7 C9.54207116 7.05399736 8.08357288 7.09279177 6.625 7.125 C5.81289062 7.14820313 5.00078125 7.17140625 4.1640625 7.1953125 C2 7 2 7 0 5 C0.66 5 1.32 5 2 5 C1.34 3.35 0.68 1.7 0 0 Z " fill="#D31229" transform="translate(65,153)"/>
<path d="M0 0 C1.98 0 3.96 0 6 0 C6 1.98 6 3.96 6 6 C4.68 6.33 3.36 6.66 2 7 C0.5393715 4.35261084 0 3.10551666 0 0 Z " fill="#E12D48" transform="translate(35,136)"/>
<path d="M0 0 C1.67542976 0.28604898 3.34385343 0.61781233 5 1 C3.73058503 4.91402949 2.48832306 6.79072873 -1 9 C-1.33 8.01 -1.66 7.02 -2 6 C-1.34 5.67 -0.68 5.34 0 5 C-0.2784375 4.0409375 -0.2784375 4.0409375 -0.5625 3.0625 C-0.7790625 2.0415625 -0.7790625 2.0415625 -1 1 C-0.67 0.67 -0.34 0.34 0 0 Z " fill="#4B494E" transform="translate(180,99)"/>
<path d="M0 0 C0.9375 1.875 0.9375 1.875 0.625 4.0625 C0.2846875 4.9596875 0.2846875 4.9596875 -0.0625 5.875 C-0.7225 4.885 -1.3825 3.895 -2.0625 2.875 C-5.63019552 2.13893501 -5.63019552 2.13893501 -9.0625 1.875 C-9.3925 2.865 -9.7225 3.855 -10.0625 4.875 C-10.0625 3.555 -10.0625 2.235 -10.0625 0.875 C-2.63641304 -1.43804348 -2.63641304 -1.43804348 0 0 Z " fill="#D3102A" transform="translate(52.0625,84.125)"/>
<path d="M0 0 C0.90105469 0.00902344 1.80210937 0.01804688 2.73046875 0.02734375 C3.41753906 0.03894531 4.10460937 0.05054688 4.8125 0.0625 C4.8125 0.3925 4.8125 0.7225 4.8125 1.0625 C2.8325 1.3925 0.8525 1.7225 -1.1875 2.0625 C-1.1875 3.0525 -1.1875 4.0425 -1.1875 5.0625 C-2.8375 5.0625 -4.4875 5.0625 -6.1875 5.0625 C-5.8575 4.4025 -5.5275 3.7425 -5.1875 3.0625 C-6.1775 2.4025 -7.1675 1.7425 -8.1875 1.0625 C-5.17259443 0.05753148 -3.14568308 -0.04085303 0 0 Z " fill="#565459" transform="translate(153.1875,158.9375)"/>
<path d="M0 0 C0.66 0 1.32 0 2 0 C2.66 1.65 3.32 3.3 4 5 C3.01 5.33 2.02 5.66 1 6 C1 7.32 1 8.64 1 10 C0.01 9.67 -0.98 9.34 -2 9 C-1.34 6.03 -0.68 3.06 0 0 Z " fill="#E90826" transform="translate(84,98)"/>
<path d="M0 0 C0.99 0 1.98 0 3 0 C3 6.27 3 12.54 3 19 C2.67 19 2.34 19 2 19 C1.93941406 18.13117188 1.87882812 17.26234375 1.81640625 16.3671875 C1.73261719 15.21476562 1.64882813 14.06234375 1.5625 12.875 C1.48128906 11.73804687 1.40007813 10.60109375 1.31640625 9.4296875 C1.02269035 6.2459522 0.56875687 3.14489093 0 0 Z " fill="#E9081F" transform="translate(19,77)"/>
<path d="M0 0 C1.98 0.66 3.96 1.32 6 2 C5.67 2.99 5.34 3.98 5 5 C4.34 5 3.68 5 3 5 C2.67 5.99 2.34 6.98 2 8 C-0.1519437 4.77208445 -0.20086443 3.71599191 0 0 Z " fill="#D61126" transform="translate(65,136)"/>
<path d="M0 0 C0.33 1.32 0.66 2.64 1 4 C0.01 4.33 -0.98 4.66 -2 5 C-2 6.65 -2 8.3 -2 10 C-3.65 10.66 -5.3 11.32 -7 12 C-5.44298069 7.32894208 -2.91552627 3.91294315 0 0 Z " fill="#6B6B6B" transform="translate(143,121)"/>
<path d="M0 0 C0.33 0.99 0.66 1.98 1 3 C-0.32 3 -1.64 3 -3 3 C-2.34 3.33 -1.68 3.66 -1 4 C-1 4.99 -1 5.98 -1 7 C-0.01 7.33 0.98 7.66 2 8 C1.67 8.99 1.34 9.98 1 11 C-1.5 9.875 -1.5 9.875 -4 8 C-4.3125 4.8125 -4.3125 4.8125 -4 2 C-2.68 2 -1.36 2 0 2 C0 1.34 0 0.68 0 0 Z " fill="#D65E69" transform="translate(78,111)"/>
<path d="M0 0 C2.29013653 3.4352048 2.17842973 4.985331 2 9 C0.35 8.67 -1.3 8.34 -3 8 C-3.33 6.35 -3.66 4.7 -4 3 C-2.68 3 -1.36 3 0 3 C0 2.01 0 1.02 0 0 Z " fill="#B31A28" transform="translate(79,111)"/>
<path d="M0 0 C0.33 0 0.66 0 1 0 C1.84023188 4.35332736 2.10770995 8.44442519 2.0625 12.875 C2.05347656 14.02742188 2.04445313 15.17984375 2.03515625 16.3671875 C2.02355469 17.23601562 2.01195313 18.10484375 2 19 C1.67 19 1.34 19 1 19 C0.67 16.36 0.34 13.72 0 11 C-0.33 11 -0.66 11 -1 11 C-0.67 7.37 -0.34 3.74 0 0 Z " fill="#E78E95" transform="translate(103,69)"/>
<path d="M0 0 C1.65 0 3.3 0 5 0 C5.66 1.65 6.32 3.3 7 5 C6.01 5.33 5.02 5.66 4 6 C1.8125 4.75 1.8125 4.75 0 3 C0 2.01 0 1.02 0 0 Z " fill="#DE051A" transform="translate(67,140)"/>
<path d="M0 0 C1.98 0.66 3.96 1.32 6 2 C5.34 3.32 4.68 4.64 4 6 C2.68 5.67 1.36 5.34 0 5 C0 3.35 0 1.7 0 0 Z " fill="#D3202E" transform="translate(32,144)"/>
<path d="M0 0 C0.66 0.33 1.32 0.66 2 1 C2.625 4.0625 2.625 4.0625 3 7 C1.68 7.33 0.36 7.66 -1 8 C-1.144375 7.38125 -1.28875 6.7625 -1.4375 6.125 C-1.93152225 3.96741678 -1.93152225 3.96741678 -3 2 C-2.01 2 -1.02 2 0 2 C0 1.34 0 0.68 0 0 Z " fill="#141215" transform="translate(147,119)"/>
<path d="M0 0 C0.556875 0.185625 1.11375 0.37125 1.6875 0.5625 C4.05608681 1.16536239 4.05608681 1.16536239 6.625 0.4375 C7.40875 0.293125 8.1925 0.14875 9 0 C9.66 0.66 10.32 1.32 11 2 C10.01 2.33 9.02 2.66 8 3 C7.67 3.66 7.34 4.32 7 5 C5 4.33333333 3 3.66666667 1 3 C0.67 2.01 0.34 1.02 0 0 Z " fill="#D54E5E" transform="translate(41,143)"/>
<path d="M0 0 C1.65 0.33 3.3 0.66 5 1 C5 2.32 5 3.64 5 5 C2.03 4.505 2.03 4.505 -1 4 C-0.67 2.68 -0.34 1.36 0 0 Z " fill="#C71626" transform="translate(55,96)"/>
<path d="M0 0 C0 3.10551666 -0.5393715 4.35261084 -2 7 C-2.33 6.34 -2.66 5.68 -3 5 C-5.01669827 3.86649466 -5.01669827 3.86649466 -7 3 C-6.67 2.34 -6.34 1.68 -6 1 C-2.9375 0.375 -2.9375 0.375 0 0 Z " fill="#C2707B" transform="translate(89,135)"/>
<path d="M0 0 C0.65234375 1.765625 0.65234375 1.765625 1 4 C0.00390625 5.921875 0.00390625 5.921875 -1.4375 7.75 C-1.91058594 8.36359375 -2.38367188 8.9771875 -2.87109375 9.609375 C-3.24363281 10.06828125 -3.61617187 10.5271875 -4 11 C-4.66 9.68 -5.32 8.36 -6 7 C-4.625 5.5 -4.625 5.5 -3 4 C-2.34 4 -1.68 4 -1 4 C-0.67 2.68 -0.34 1.36 0 0 Z " fill="#4C4C4F" transform="translate(177,108)"/>
<path d="M0 0 C0.33 1.98 0.66 3.96 1 6 C0.34 5.67 -0.32 5.34 -1 5 C-1 4.34 -1 3.68 -1 3 C-4.62885324 2.84850702 -4.62885324 2.84850702 -8 4 C-8 3.01 -8 2.02 -8 1 C-5.10765685 0.17361624 -3.11257569 0 0 0 Z " fill="#D55B5F" transform="translate(44,100)"/>
<path d="M0 0 C0.66 0.33 1.32 0.66 2 1 C2.33 0.67 2.66 0.34 3 0 C3.66 1.32 4.32 2.64 5 4 C3.35 3.67 1.7 3.34 0 3 C0.33 3.99 0.66 4.98 1 6 C-0.65 6.66 -2.3 7.32 -4 8 C-4 7.34 -4 6.68 -4 6 C-3.34 6 -2.68 6 -2 6 C-1.34 4.02 -0.68 2.04 0 0 Z " fill="#6C6B6D" transform="translate(162,92)"/>
<path d="M0 0 C0.99 0 1.98 0 3 0 C3 1.98 3 3.96 3 6 C1.68 6 0.36 6 -1 6 C-1.042721 4.33388095 -1.04063832 2.66617115 -1 1 C-0.67 0.67 -0.34 0.34 0 0 Z " fill="#EA0111" transform="translate(25,74)"/>
<path d="M0 0 C1.32 0.33 2.64 0.66 4 1 C4 2.65 4 4.3 4 6 C3.01 6.495 3.01 6.495 2 7 C1.34 6.67 0.68 6.34 0 6 C0 4.02 0 2.04 0 0 Z " fill="#E80722" transform="translate(93,138)"/>
<path d="M0 0 C2 1 4 2 6 3 C6.625 6.0625 6.625 6.0625 7 9 C4.03595495 6.19195732 1.55500981 3.81684226 0 0 Z " fill="#D25562" transform="translate(34,150)"/>
<path d="M0 0 C2 2 2 2 2.125 5.625 C2.08375 6.73875 2.0425 7.8525 2 9 C1.01 8.67 0.02 8.34 -1 8 C-0.67 5.36 -0.34 2.72 0 0 Z " fill="#CE2D41" transform="translate(88,142)"/>
<path d="M0 0 C0.99 0.33 1.98 0.66 3 1 C2.34 3.64 1.68 6.28 1 9 C0.01 9 -0.98 9 -2 9 C-1.34 6.03 -0.68 3.06 0 0 Z " fill="#C42034" transform="translate(92,127)"/>
<path d="M0 0 C2.31 0 4.62 0 7 0 C7.33 0.66 7.66 1.32 8 2 C7.278125 1.896875 6.55625 1.79375 5.8125 1.6875 C1.87958411 2.12449065 0.53678077 4.10082197 -2 7 C-1.34 4.69 -0.68 2.38 0 0 Z " fill="#D26772" transform="translate(43,86)"/>
<path d="M0 0 C1.65 0 3.3 0 5 0 C5 0.66 5 1.32 5 2 C6.32 2.33 7.64 2.66 9 3 C5.93109813 4.53445094 3.29905734 3.54984289 0 3 C0 2.01 0 1.02 0 0 Z " fill="#CE2139" transform="translate(64,171)"/>
<path d="M0 0 C2.64 0 5.28 0 8 0 C7.34 1.32 6.68 2.64 6 4 C3.83125748 3.49396008 2.00032373 3.00016187 0 2 C0 1.34 0 0.68 0 0 Z " fill="#ED071F" transform="translate(40,154)"/>
<path d="M0 0 C0.99 0.66 1.98 1.32 3 2 C1.02 4.97 1.02 4.97 -1 8 C-2.0625 6.125 -2.0625 6.125 -3 4 C-2.67 3.34 -2.34 2.68 -2 2 C-1.34 2 -0.68 2 0 2 C0 1.34 0 0.68 0 0 Z " fill="#3A3A3B" transform="translate(169,118)"/>
<path d="M0 0 C0.66 0 1.32 0 2 0 C3.60355101 3.50776784 4.22036864 6.14354879 4 10 C1.7448078 7.7448078 1.02276532 5.9952413 0 3 C0 2.01 0 1.02 0 0 Z " fill="#D26E76" transform="translate(22,126)"/>
<path d="M0 0 C1.98 0 3.96 0 6 0 C6 2.31 6 4.62 6 7 C5.7525 6.360625 5.505 5.72125 5.25 5.0625 C4.18437567 2.81258459 4.18437567 2.81258459 1.875 2.25 C0.946875 2.12625 0.946875 2.12625 0 2 C0 1.34 0 0.68 0 0 Z " fill="#B62D3F" transform="translate(97,68)"/>
<path d="M0 0 C0.33 0 0.66 0 1 0 C1.36923077 7.38461538 1.36923077 7.38461538 -0.5 10.5 C-0.995 10.995 -1.49 11.49 -2 12 C-2 10.02 -2 8.04 -2 6 C-1.34 6 -0.68 6 0 6 C0 4.02 0 2.04 0 0 Z " fill="#D65F6C" transform="translate(102,154)"/>
<path d="M0 0 C0.2475 0.639375 0.495 1.27875 0.75 1.9375 C1.81562433 4.18741541 1.81562433 4.18741541 4.125 4.75 C4.74375 4.8325 5.3625 4.915 6 5 C4.1875 5.6875 4.1875 5.6875 2 6 C0.25 4.5625 0.25 4.5625 -1 3 C-0.67 2.01 -0.34 1.02 0 0 Z " fill="#C8132A" transform="translate(40,142)"/>
<path d="M0 0 C2.33944736 0.28730055 4.6739143 0.61936779 7 1 C7 1.33 7 1.66 7 2 C6.05125 2.103125 5.1025 2.20625 4.125 2.3125 C0.70892499 2.68539295 0.70892499 2.68539295 -1 6 C-1.042721 4.33388095 -1.04063832 2.66617115 -1 1 C-0.67 0.67 -0.34 0.34 0 0 Z " fill="#B61D28" transform="translate(40,133)"/>
<path d="M0 0 C0.99 0 1.98 0 3 0 C3.33 0.99 3.66 1.98 4 3 C2.0625 5.6875 2.0625 5.6875 0 8 C-0.33 6.68 -0.66 5.36 -1 4 C-0.34 3.67 0.32 3.34 1 3 C0.67 2.01 0.34 1.02 0 0 Z " fill="#3E3E3E" transform="translate(161,127)"/>
<path d="M0 0 C2.475 0.495 2.475 0.495 5 1 C5.33 1.99 5.66 2.98 6 4 C4.35 4.33 2.7 4.66 1 5 C0.67 3.35 0.34 1.7 0 0 Z " fill="#D18A98" transform="translate(57,121)"/>
<path d="M0 0 C0.89130413 2.6739124 1.47731534 5.23723823 2 8 C-0.475 7.01 -0.475 7.01 -3 6 C-1.125 1.125 -1.125 1.125 0 0 Z " fill="#656468" transform="translate(149,112)"/>
<path d="M0 0 C1.32 0.66 2.64 1.32 4 2 C1.03 4.475 1.03 4.475 -2 7 C-2 3.89448334 -1.4606285 2.64738916 0 0 Z " fill="#BB8482" transform="translate(55,100)"/>
<path d="M0 0 C2.64 0 5.28 0 8 0 C6.35 1.32 4.7 2.64 3 4 C2.01 2.68 1.02 1.36 0 0 Z " fill="#E80922" transform="translate(50,82)"/>
<path d="M0 0 C0.99 0.33 1.98 0.66 3 1 C3 1.66 3 2.32 3 3 C1.68 3 0.36 3 -1 3 C-0.67 2.01 -0.34 1.02 0 0 Z " fill="#BE98A6" transform="translate(68,87)"/>
<path d="" fill="#FFFFFF" transform="translate(0,0)"/>
<path d="" fill="#E3E3E3" transform="translate(0,0)"/>
</svg>
